<svg width="196" height="171" viewBox="0 0 196 171" fill="none" xmlns="http://www.w3.org/2000/svg">
<line x1="1.09589" y1="-1.09589" x2="3.40487" y2="-1.09589" transform="matrix(-1 0 0 1 64.3561 40)" stroke="#1492EF" stroke-width="2.19178" stroke-linecap="round"/>
<line x1="1.09589" y1="-1.09589" x2="9.76068" y2="-1.09589" transform="matrix(-1 0 0 1 56.7146 39.9999)" stroke="#1492EF" stroke-width="2.19178" stroke-linecap="round"/>
<line x1="1.09589" y1="-1.09589" x2="3.40487" y2="-1.09589" transform="matrix(-1 0 0 1 44.4979 59.726)" stroke="#FFB86B" stroke-width="2.19178" stroke-linecap="round"/>
<line x1="1.09589" y1="-1.09589" x2="9.76068" y2="-1.09589" transform="matrix(-1 0 0 1 36.8566 59.726)" stroke="#FFB86B" stroke-width="2.19178" stroke-linecap="round"/>
<line x1="1.09589" y1="-1.09589" x2="3.40487" y2="-1.09589" transform="matrix(1 0 0 -1 127.999 129.726)" stroke="#1492EF" stroke-width="2.19178" stroke-linecap="round"/>
<line x1="1.09589" y1="-1.09589" x2="9.76068" y2="-1.09589" transform="matrix(1 0 0 -1 135.641 129.726)" stroke="#1492EF" stroke-width="2.19178" stroke-linecap="round"/>
<line x1="1.09589" y1="-1.09589" x2="3.40487" y2="-1.09589" transform="matrix(1 0 0 -1 147.858 110)" stroke="#FFB86B" stroke-width="2.19178" stroke-linecap="round"/>
<line x1="1.09589" y1="-1.09589" x2="9.76068" y2="-1.09589" transform="matrix(1 0 0 -1 155.499 110)" stroke="#FFB86B" stroke-width="2.19178" stroke-linecap="round"/>
<g filter="url(#filter0_d_1417_9790)">
<rect x="142.675" y="9" width="33.5181" height="33.5181" rx="16.759" transform="rotate(15 142.675 9)" fill="url(#paint0_radial_1417_9790)"/>
<path d="M145.283 31.1902L146.895 25.1777L149.002 25.7425L147.391 31.755L145.283 31.1902ZM148.127 24.7945C147.742 24.6915 147.46 24.501 147.281 24.2231C147.102 23.9452 147.055 23.6473 147.14 23.3293C147.225 23.0113 147.415 22.7768 147.709 22.6257C148.003 22.4746 148.343 22.4506 148.727 22.5537C149.112 22.6567 149.395 22.8435 149.576 23.114C149.759 23.3771 149.808 23.6676 149.723 23.9856C149.633 24.3184 149.441 24.564 149.145 24.7225C148.858 24.8755 148.519 24.8995 148.127 24.7945ZM158.009 28.0487C158.475 28.1736 158.863 28.3807 159.174 28.6701C159.494 28.954 159.705 29.3198 159.807 29.7672C159.917 30.2166 159.888 30.7519 159.722 31.3732L158.8 34.8121L156.693 34.2473L157.522 31.1523C157.637 30.7234 157.639 30.391 157.528 30.1551C157.418 29.9118 157.223 29.7525 156.942 29.6772C156.742 29.6237 156.548 29.6232 156.36 29.6758C156.172 29.7283 156.006 29.8425 155.864 30.0184C155.724 30.1869 155.612 30.4265 155.529 30.7371L154.729 33.7212L152.621 33.1564L153.451 30.0614C153.566 29.6325 153.567 29.3001 153.456 29.0642C153.355 28.8229 153.159 28.6636 152.871 28.5863C152.664 28.5309 152.466 28.5294 152.278 28.5819C152.097 28.6365 151.931 28.7507 151.782 28.9246C151.641 29.0931 151.53 29.3327 151.446 29.6433L150.647 32.6273L148.539 32.0626L150.15 26.0501L152.158 26.5881L151.709 28.2631L151.438 27.6791C151.774 27.3096 152.164 27.0692 152.606 26.9578C153.05 26.8389 153.509 26.8429 153.982 26.9698C154.522 27.1144 154.957 27.3818 155.289 27.7718C155.63 28.1564 155.792 28.6596 155.776 29.2815L155.127 28.953C155.472 28.5224 155.896 28.2277 156.398 28.069C156.91 27.9049 157.447 27.8981 158.009 28.0487ZM160.769 35.4467C160.414 35.3516 160.147 35.153 159.966 34.851C159.785 34.5489 159.744 34.2167 159.841 33.8543C159.942 33.4771 160.144 33.2103 160.448 33.0539C160.753 32.89 161.083 32.8556 161.438 32.9507C161.793 33.0458 162.062 33.2407 162.245 33.5354C162.429 33.8226 162.471 34.1549 162.37 34.532C162.273 34.8944 162.071 35.1612 161.763 35.3325C161.456 35.5037 161.124 35.5418 160.769 35.4467Z" fill="white"/>
</g>
<g filter="url(#filter1_d_1417_9790)">
<rect x="20" y="119.504" width="23.9947" height="23.9947" rx="11.9973" transform="rotate(-35.6581 20 119.504)" fill="url(#paint1_radial_1417_9790)"/>
<path d="M32.9658 127.429L30.3682 123.808L31.6374 122.898L34.235 126.518L32.9658 127.429ZM30.7152 122.952C30.4836 123.118 30.2503 123.188 30.0151 123.161C29.7799 123.134 29.5936 123.025 29.4563 122.833C29.3189 122.642 29.2751 122.431 29.3249 122.199C29.3748 121.968 29.5155 121.769 29.7471 121.603C29.9787 121.437 30.2104 121.365 30.4424 121.387C30.6712 121.405 30.8543 121.51 30.9916 121.702C31.1354 121.902 31.184 122.12 31.1373 122.356C31.0919 122.584 30.9512 122.783 30.7152 122.952ZM37.0015 118.958C37.2821 118.757 37.573 118.636 37.8743 118.595C38.1769 118.546 38.4751 118.596 38.7692 118.742C39.0677 118.885 39.3511 119.144 39.6195 119.518L41.1052 121.589L39.836 122.5L38.4989 120.636C38.3135 120.378 38.1304 120.226 37.9493 120.18C37.7651 120.13 37.5883 120.166 37.4191 120.288C37.2989 120.374 37.2105 120.481 37.1541 120.609C37.0977 120.737 37.0859 120.881 37.1187 121.039C37.1483 121.193 37.2302 121.364 37.3644 121.551L38.6537 123.348L37.3845 124.259L36.0473 122.395C35.862 122.137 35.6788 121.985 35.4978 121.939C35.318 121.886 35.1412 121.922 34.9676 122.046C34.8429 122.136 34.7523 122.245 34.6959 122.373C34.6439 122.498 34.6321 122.641 34.6604 122.803C34.6901 122.957 34.772 123.128 34.9062 123.315L36.1954 125.112L34.9262 126.022L32.3286 122.402L33.5377 121.534L34.2614 122.543L33.8148 122.428C33.7631 122.074 33.8067 121.749 33.9456 121.454C34.0813 121.154 34.2917 120.902 34.5767 120.698C34.9018 120.465 35.2475 120.345 35.6139 120.338C35.9815 120.324 36.3338 120.462 36.6708 120.754L36.1943 120.964C36.1126 120.577 36.1418 120.209 36.2819 119.859C36.4232 119.501 36.6631 119.201 37.0015 118.958ZM42.3502 120.787C42.1365 120.94 41.905 120.998 41.6558 120.961C41.4066 120.924 41.2037 120.797 41.0471 120.578C40.8842 120.351 40.8283 120.118 40.8794 119.879C40.9273 119.636 41.0581 119.437 41.2719 119.284C41.4856 119.131 41.7155 119.07 41.9615 119.103C42.2044 119.131 42.4072 119.259 42.5702 119.486C42.7267 119.704 42.7827 119.937 42.738 120.185C42.6932 120.433 42.564 120.634 42.3502 120.787Z" fill="white"/>
</g>
<rect x="57.5255" y="33.9999" width="80" height="80" rx="40" fill="#FAFAFA"/>
<path d="M85.5255 87.3333C85.1789 87.3333 84.8322 87.1999 84.5789 86.9466C84.2189 86.5866 84.0989 86.0666 84.2589 85.5866L86.6189 78.4933C85.8989 76.8799 85.5122 75.1066 85.5255 73.3333C85.5255 70.9866 86.1789 68.6799 87.4189 66.6799C88.6589 64.6799 90.4189 63.0666 92.5255 62.0133C94.2722 61.1333 96.2989 60.6399 98.1922 60.6666H98.8589C102.046 60.8399 104.966 62.1466 107.179 64.3466C109.379 66.5466 110.686 69.4799 110.859 72.5866V73.3333C110.859 75.2933 110.406 77.2533 109.512 78.9999C108.459 81.0933 106.846 82.8666 104.846 84.1066C102.832 85.3466 100.539 86.0399 98.1655 85.9999C96.4055 85.9999 94.6455 85.6266 93.0322 84.9066L85.9389 87.2666C85.8055 87.3199 85.6589 87.3333 85.5122 87.3333H85.5255ZM98.1655 63.3333C96.6322 63.3333 95.0989 63.6933 93.7255 64.3866C92.0589 65.2133 90.6589 66.4933 89.6855 68.0799C88.7122 69.6666 88.1922 71.4799 88.1922 73.3333C88.1922 74.8799 88.5522 76.4266 89.2455 77.7999C89.4055 78.1199 89.4322 78.4799 89.3255 78.8266L87.6322 83.8933L92.6989 82.1999C93.0322 82.0799 93.4055 82.1199 93.7255 82.2799C95.0989 82.9733 96.6589 83.3333 98.1922 83.3333C100.059 83.3333 101.872 82.8133 103.446 81.8399C105.032 80.8666 106.299 79.4666 107.126 77.8133C107.819 76.4266 108.192 74.8933 108.179 73.3466V72.6799C108.046 70.2933 107.019 67.9866 105.272 66.2533C103.539 64.5199 101.219 63.4799 98.7655 63.3466H98.1789C98.1789 63.3466 98.1655 63.3466 98.1522 63.3466L98.1655 63.3333Z" fill="url(#paint2_linear_1417_9790)"/>
<defs>
<filter id="filter0_d_1417_9790" x="110" y="-3" width="89.0511" height="89.0511" filterUnits="userSpaceOnUse" color-interpolation-filters="sRGB">
<feFlood flood-opacity="0" result="BackgroundImageFix"/>
<feColorMatrix in="SourceAlpha" type="matrix" values="0 0 0 0 0 0 0 0 0 0 0 0 0 0 0 0 0 0 127 0" result="hardAlpha"/>
<feOffset dy="12"/>
<feGaussianBlur stdDeviation="12"/>
<feComposite in2="hardAlpha" operator="out"/>
<feColorMatrix type="matrix" values="0 0 0 0 0 0 0 0 0 0.283333 0 0 0 0 1 0 0 0 0.16 0"/>
<feBlend mode="normal" in2="BackgroundImageFix" result="effect1_dropShadow_1417_9790"/>
<feBlend mode="normal" in="SourceGraphic" in2="effect1_dropShadow_1417_9790" result="shape"/>
</filter>
<filter id="filter1_d_1417_9790" x="-4" y="93.5165" width="81.4835" height="81.4835" filterUnits="userSpaceOnUse" color-interpolation-filters="sRGB">
<feFlood flood-opacity="0" result="BackgroundImageFix"/>
<feColorMatrix in="SourceAlpha" type="matrix" values="0 0 0 0 0 0 0 0 0 0 0 0 0 0 0 0 0 0 127 0" result="hardAlpha"/>
<feOffset dy="12"/>
<feGaussianBlur stdDeviation="12"/>
<feComposite in2="hardAlpha" operator="out"/>
<feColorMatrix type="matrix" values="0 0 0 0 0 0 0 0 0 0.283333 0 0 0 0 1 0 0 0 0.16 0"/>
<feBlend mode="normal" in2="BackgroundImageFix" result="effect1_dropShadow_1417_9790"/>
<feBlend mode="normal" in="SourceGraphic" in2="effect1_dropShadow_1417_9790" result="shape"/>
</filter>
<radialGradient id="paint0_radial_1417_9790" cx="0" cy="0" r="1" gradientUnits="userSpaceOnUse" gradientTransform="translate(170.956 14.2372) rotate(133.698) scale(32.5971)">
<stop stop-color="white"/>
<stop offset="1" stop-color="#48B1FF"/>
</radialGradient>
<radialGradient id="paint1_radial_1417_9790" cx="0" cy="0" r="1" gradientUnits="userSpaceOnUse" gradientTransform="translate(40.2455 123.253) rotate(133.698) scale(23.3353)">
<stop stop-color="white"/>
<stop offset="1" stop-color="#48B1FF"/>
</radialGradient>
<linearGradient id="paint2_linear_1417_9790" x1="84.1893" y1="87.3333" x2="111.394" y2="86.7759" gradientUnits="userSpaceOnUse">
<stop stop-color="#5EA5FF"/>
<stop offset="0.445" stop-color="#C79AFF"/>
<stop offset="0.90877" stop-color="#FFB76A"/>
</linearGradient>
</defs>
</svg>
