<svg width="16" height="17" viewBox="0 0 16 17" fill="none" xmlns="http://www.w3.org/2000/svg">
<path d="M5.33337 8.5C5.33337 9.60457 4.43794 10.5 3.33337 10.5C2.2288 10.5 1.33337 9.60457 1.33337 8.5C1.33337 7.39544 2.2288 6.5 3.33337 6.5C4.43794 6.5 5.33337 7.39544 5.33337 8.5Z" fill="white"/>
<path d="M14.6667 3.16667C14.6667 4.27124 13.7713 5.16667 12.6667 5.16667C11.5621 5.16667 10.6667 4.27124 10.6667 3.16667C10.6667 2.0621 11.5621 1.16667 12.6667 1.16667C13.7713 1.16667 14.6667 2.0621 14.6667 3.16667Z" fill="white"/>
<path d="M14.6667 13.8333C14.6667 14.9379 13.7713 15.8333 12.6667 15.8333C11.5621 15.8333 10.6667 14.9379 10.6667 13.8333C10.6667 12.7288 11.5621 11.8333 12.6667 11.8333C13.7713 11.8333 14.6667 12.7288 14.6667 13.8333Z" fill="white"/>
</svg>
