<svg width="219" height="81" viewBox="0 0 219 81" fill="none" xmlns="http://www.w3.org/2000/svg">
<g filter="url(#filter0_d_828_18101)">
<rect x="24" y="12" width="171" height="33" rx="16.5" fill="url(#paint0_linear_828_18101)" shape-rendering="crispEdges"/>
<path d="M53.3334 28.5C53.3334 29.6046 52.4379 30.5 51.3334 30.5C50.2288 30.5 49.3334 29.6046 49.3334 28.5C49.3334 27.3954 50.2288 26.5 51.3334 26.5C52.4379 26.5 53.3334 27.3954 53.3334 28.5Z" fill="white"/>
<path d="M62.6667 23.1667C62.6667 24.2712 61.7713 25.1667 60.6667 25.1667C59.5621 25.1667 58.6667 24.2712 58.6667 23.1667C58.6667 22.0621 59.5621 21.1667 60.6667 21.1667C61.7713 21.1667 62.6667 22.0621 62.6667 23.1667Z" fill="white"/>
<path d="M62.6667 33.8333C62.6667 34.9379 61.7713 35.8333 60.6667 35.8333C59.5621 35.8333 58.6667 34.9379 58.6667 33.8333C58.6667 32.7288 59.5621 31.8333 60.6667 31.8333C61.7713 31.8333 62.6667 32.7288 62.6667 33.8333Z" fill="white"/>
<path d="M73.874 34L78.242 24.2H80.482L84.864 34H82.484L78.9 25.348H79.796L76.198 34H73.874ZM76.058 31.9L76.66 30.178H81.7L82.316 31.9H76.058ZM85.6008 34V24.2H87.8688V34H85.6008ZM92.3113 34L96.6793 24.2H98.9193L103.301 34H100.921L97.3373 25.348H98.2333L94.6353 34H92.3113ZM94.4953 31.9L95.0973 30.178H100.137L100.753 31.9H94.4953ZM107.258 34.168C106.474 34.168 105.723 34.0653 105.004 33.86C104.285 33.6453 103.707 33.37 103.268 33.034L104.038 31.326C104.458 31.6247 104.953 31.872 105.522 32.068C106.101 32.2547 106.684 32.348 107.272 32.348C107.72 32.348 108.079 32.306 108.35 32.222C108.63 32.1287 108.835 32.0027 108.966 31.844C109.097 31.6853 109.162 31.5033 109.162 31.298C109.162 31.0367 109.059 30.8313 108.854 30.682C108.649 30.5233 108.378 30.3973 108.042 30.304C107.706 30.2013 107.333 30.108 106.922 30.024C106.521 29.9307 106.115 29.8187 105.704 29.688C105.303 29.5573 104.934 29.3893 104.598 29.184C104.262 28.9787 103.987 28.708 103.772 28.372C103.567 28.036 103.464 27.6067 103.464 27.084C103.464 26.524 103.613 26.0153 103.912 25.558C104.22 25.0913 104.677 24.7227 105.284 24.452C105.9 24.172 106.67 24.032 107.594 24.032C108.21 24.032 108.817 24.1067 109.414 24.256C110.011 24.396 110.539 24.6107 110.996 24.9L110.296 26.622C109.839 26.3607 109.381 26.1693 108.924 26.048C108.467 25.9173 108.019 25.852 107.58 25.852C107.141 25.852 106.782 25.9033 106.502 26.006C106.222 26.1087 106.021 26.244 105.9 26.412C105.779 26.5707 105.718 26.7573 105.718 26.972C105.718 27.224 105.821 27.4293 106.026 27.588C106.231 27.7373 106.502 27.8587 106.838 27.952C107.174 28.0453 107.543 28.1387 107.944 28.232C108.355 28.3253 108.761 28.4327 109.162 28.554C109.573 28.6753 109.946 28.8387 110.282 29.044C110.618 29.2493 110.889 29.52 111.094 29.856C111.309 30.192 111.416 30.6167 111.416 31.13C111.416 31.6807 111.262 32.1847 110.954 32.642C110.646 33.0993 110.184 33.468 109.568 33.748C108.961 34.028 108.191 34.168 107.258 34.168ZM115.906 34.168C115.122 34.168 114.37 34.0653 113.652 33.86C112.933 33.6453 112.354 33.37 111.916 33.034L112.686 31.326C113.106 31.6247 113.6 31.872 114.17 32.068C114.748 32.2547 115.332 32.348 115.92 32.348C116.368 32.348 116.727 32.306 116.998 32.222C117.278 32.1287 117.483 32.0027 117.614 31.844C117.744 31.6853 117.81 31.5033 117.81 31.298C117.81 31.0367 117.707 30.8313 117.502 30.682C117.296 30.5233 117.026 30.3973 116.69 30.304C116.354 30.2013 115.98 30.108 115.57 30.024C115.168 29.9307 114.762 29.8187 114.352 29.688C113.95 29.5573 113.582 29.3893 113.246 29.184C112.91 28.9787 112.634 28.708 112.42 28.372C112.214 28.036 112.112 27.6067 112.112 27.084C112.112 26.524 112.261 26.0153 112.56 25.558C112.868 25.0913 113.325 24.7227 113.932 24.452C114.548 24.172 115.318 24.032 116.242 24.032C116.858 24.032 117.464 24.1067 118.062 24.256C118.659 24.396 119.186 24.6107 119.644 24.9L118.944 26.622C118.486 26.3607 118.029 26.1693 117.572 26.048C117.114 25.9173 116.666 25.852 116.228 25.852C115.789 25.852 115.43 25.9033 115.15 26.006C114.87 26.1087 114.669 26.244 114.548 26.412C114.426 26.5707 114.366 26.7573 114.366 26.972C114.366 27.224 114.468 27.4293 114.674 27.588C114.879 27.7373 115.15 27.8587 115.486 27.952C115.822 28.0453 116.19 28.1387 116.592 28.232C117.002 28.3253 117.408 28.4327 117.81 28.554C118.22 28.6753 118.594 28.8387 118.93 29.044C119.266 29.2493 119.536 29.52 119.742 29.856C119.956 30.192 120.064 30.6167 120.064 31.13C120.064 31.6807 119.91 32.1847 119.602 32.642C119.294 33.0993 118.832 33.468 118.216 33.748C117.609 34.028 116.839 34.168 115.906 34.168ZM121.334 34V24.2H123.602V34H121.334ZM128.867 34.168C128.083 34.168 127.332 34.0653 126.613 33.86C125.895 33.6453 125.316 33.37 124.877 33.034L125.647 31.326C126.067 31.6247 126.562 31.872 127.131 32.068C127.71 32.2547 128.293 32.348 128.881 32.348C129.329 32.348 129.689 32.306 129.959 32.222C130.239 32.1287 130.445 32.0027 130.575 31.844C130.706 31.6853 130.771 31.5033 130.771 31.298C130.771 31.0367 130.669 30.8313 130.463 30.682C130.258 30.5233 129.987 30.3973 129.651 30.304C129.315 30.2013 128.942 30.108 128.531 30.024C128.13 29.9307 127.724 29.8187 127.313 29.688C126.912 29.5573 126.543 29.3893 126.207 29.184C125.871 28.9787 125.596 28.708 125.381 28.372C125.176 28.036 125.073 27.6067 125.073 27.084C125.073 26.524 125.223 26.0153 125.521 25.558C125.829 25.0913 126.287 24.7227 126.893 24.452C127.509 24.172 128.279 24.032 129.203 24.032C129.819 24.032 130.426 24.1067 131.023 24.256C131.621 24.396 132.148 24.6107 132.605 24.9L131.905 26.622C131.448 26.3607 130.991 26.1693 130.533 26.048C130.076 25.9173 129.628 25.852 129.189 25.852C128.751 25.852 128.391 25.9033 128.111 26.006C127.831 26.1087 127.631 26.244 127.509 26.412C127.388 26.5707 127.327 26.7573 127.327 26.972C127.327 27.224 127.43 27.4293 127.635 27.588C127.841 27.7373 128.111 27.8587 128.447 27.952C128.783 28.0453 129.152 28.1387 129.553 28.232C129.964 28.3253 130.37 28.4327 130.771 28.554C131.182 28.6753 131.555 28.8387 131.891 29.044C132.227 29.2493 132.498 29.52 132.703 29.856C132.918 30.192 133.025 30.6167 133.025 31.13C133.025 31.6807 132.871 32.1847 132.563 32.642C132.255 33.0993 131.793 33.468 131.177 33.748C130.571 34.028 129.801 34.168 128.867 34.168ZM136.188 34V26.048H133.052V24.2H141.592V26.048H138.456V34H136.188ZM140.752 34L145.12 24.2H147.36L151.742 34H149.362L145.778 25.348H146.674L143.076 34H140.752ZM142.936 31.9L143.538 30.178H148.578L149.194 31.9H142.936ZM152.479 34V24.2H154.355L160.137 31.256H159.227V24.2H161.467V34H159.605L153.809 26.944H154.719V34H152.479ZM165.536 34V26.048H162.4V24.2H170.94V26.048H167.804V34H165.536Z" fill="white"/>
</g>
<defs>
<filter id="filter0_d_828_18101" x="0" y="0" width="219" height="81" filterUnits="userSpaceOnUse" color-interpolation-filters="sRGB">
<feFlood flood-opacity="0" result="BackgroundImageFix"/>
<feColorMatrix in="SourceAlpha" type="matrix" values="0 0 0 0 0 0 0 0 0 0 0 0 0 0 0 0 0 0 127 0" result="hardAlpha"/>
<feOffset dy="12"/>
<feGaussianBlur stdDeviation="12"/>
<feComposite in2="hardAlpha" operator="out"/>
<feColorMatrix type="matrix" values="0 0 0 0 0 0 0 0 0 0.283333 0 0 0 0 1 0 0 0 0.16 0"/>
<feBlend mode="normal" in2="BackgroundImageFix" result="effect1_dropShadow_828_18101"/>
<feBlend mode="normal" in="SourceGraphic" in2="effect1_dropShadow_828_18101" result="shape"/>
</filter>
<linearGradient id="paint0_linear_828_18101" x1="24" y1="45" x2="196.559" y2="26.6829" gradientUnits="userSpaceOnUse">
<stop stop-color="#5EA5FF"/>
<stop offset="0.445" stop-color="#C79AFF"/>
<stop offset="0.90877" stop-color="#FFB76A"/>
</linearGradient>
</defs>
</svg>
