<svg width="16" height="16" viewBox="0 0 16 16" fill="none" xmlns="http://www.w3.org/2000/svg">
<path d="M2 14.6666C1.82667 14.6666 1.65333 14.5999 1.52667 14.4733C1.34667 14.2933 1.28667 14.0333 1.36667 13.7933L2.54667 10.2466C2.18667 9.43994 1.99333 8.55328 2 7.66661C2 6.49328 2.32667 5.33994 2.94667 4.33994C3.56667 3.33994 4.44667 2.53328 5.5 2.00661C6.37333 1.56661 7.38667 1.31994 8.33333 1.33328H8.66667C10.26 1.41994 11.72 2.07328 12.8267 3.17328C13.9267 4.27328 14.58 5.73994 14.6667 7.29328V7.66661C14.6667 8.64661 14.44 9.62661 13.9933 10.4999C13.4667 11.5466 12.66 12.4333 11.66 13.0533C10.6533 13.6733 9.50667 14.0199 8.32 13.9999C7.44 13.9999 6.56 13.8133 5.75333 13.4533L2.20667 14.6333C2.14 14.6599 2.06667 14.6666 1.99333 14.6666H2ZM8.32 2.66661C7.55333 2.66661 6.78667 2.84661 6.1 3.19328C5.26667 3.60661 4.56667 4.24661 4.08 5.03994C3.59333 5.83328 3.33333 6.73994 3.33333 7.66661C3.33333 8.43994 3.51333 9.21328 3.86 9.89994C3.94 10.0599 3.95333 10.2399 3.9 10.4133L3.05333 12.9466L5.58667 12.0999C5.75333 12.0399 5.94 12.0599 6.1 12.1399C6.78667 12.4866 7.56667 12.6666 8.33333 12.6666C9.26667 12.6666 10.1733 12.4066 10.96 11.9199C11.7533 11.4333 12.3867 10.7333 12.8 9.90661C13.1467 9.21328 13.3333 8.44661 13.3267 7.67328V7.33994C13.26 6.14661 12.7467 4.99328 11.8733 4.12661C11.0067 3.25994 9.84667 2.73994 8.62 2.67328H8.32667C8.32667 2.67328 8.32 2.67328 8.31333 2.67328L8.32 2.66661Z" fill="url(#paint0_linear_1140_2958)"/>
<defs>
<linearGradient id="paint0_linear_1140_2958" x1="1.3319" y1="14.6666" x2="14.9341" y2="14.3879" gradientUnits="userSpaceOnUse">
<stop stop-color="#5EA5FF"/>
<stop offset="0.445" stop-color="#C79AFF"/>
<stop offset="0.90877" stop-color="#FFB76A"/>
</linearGradient>
</defs>
</svg>
