<svg width="16" height="16" viewBox="0 0 16 16" fill="none" xmlns="http://www.w3.org/2000/svg">
<g clip-path="url(#clip0_956_9058)">
<path fill-rule="evenodd" clip-rule="evenodd" d="M7.99996 2.00008C4.68625 2.00008 1.99996 4.68637 1.99996 8.00008C1.99996 11.3138 4.68625 14.0001 7.99996 14.0001C11.3137 14.0001 14 11.3138 14 8.00008C14 4.68637 11.3137 2.00008 7.99996 2.00008ZM0.666626 8.00008C0.666626 3.94999 3.94987 0.666748 7.99996 0.666748C12.05 0.666748 15.3333 3.94999 15.3333 8.00008C15.3333 12.0502 12.05 15.3334 7.99996 15.3334C3.94987 15.3334 0.666626 12.0502 0.666626 8.00008ZM7.99996 4.66675C8.36815 4.66675 8.66663 4.96522 8.66663 5.33341V8.00008C8.66663 8.36827 8.36815 8.66675 7.99996 8.66675C7.63177 8.66675 7.33329 8.36827 7.33329 8.00008V5.33341C7.33329 4.96522 7.63177 4.66675 7.99996 4.66675ZM7.33329 10.6667C7.33329 10.2986 7.63177 10.0001 7.99996 10.0001H8.00663C8.37482 10.0001 8.67329 10.2986 8.67329 10.6667C8.67329 11.0349 8.37482 11.3334 8.00663 11.3334H7.99996C7.63177 11.3334 7.33329 11.0349 7.33329 10.6667Z" fill="#7C7C7C"/>
</g>
<defs>
<clipPath id="clip0_956_9058">
<rect width="16" height="16" fill="white"/>
</clipPath>
</defs>
</svg>
