<svg width="16" height="14" viewBox="0 0 16 14" fill="none" xmlns="http://www.w3.org/2000/svg">
<path fill-rule="evenodd" clip-rule="evenodd" d="M0 0.99998C0 0.63179 0.298477 0.333313 0.666667 0.333313H15.3333C15.7015 0.333313 16 0.63179 16 0.99998V4.33331C16 4.7015 15.7015 4.99998 15.3333 4.99998H14.6667V13C14.6667 13.3682 14.3682 13.6666 14 13.6666H2C1.63181 13.6666 1.33333 13.3682 1.33333 13V4.99998H0.666667C0.298477 4.99998 0 4.7015 0 4.33331V0.99998ZM2.66667 4.99998V12.3333H13.3333V4.99998H2.66667ZM14.6667 3.66665H1.33333V1.66665H14.6667V3.66665ZM6 6.99998C6 6.63179 6.29848 6.33331 6.66667 6.33331H9.33333C9.70152 6.33331 10 6.63179 10 6.99998C10 7.36817 9.70152 7.66665 9.33333 7.66665H6.66667C6.29848 7.66665 6 7.36817 6 6.99998Z" fill="#1492EF"/>
</svg>
