<svg width="33" height="32" viewBox="0 0 33 32" fill="none" xmlns="http://www.w3.org/2000/svg">
<path d="M16.652 30.3333C15.852 30.3333 15.0654 30.1467 14.4254 29.7867L8.1187 26.1467C5.50536 24.3867 5.33203 24.0667 5.33203 21.3067V14.6933C5.33203 11.9333 5.50536 11.6133 8.06536 9.89333L14.4387 6.21333C15.7054 5.48 17.612 5.48 18.8787 6.21333L25.1854 9.85333C27.7987 11.6133 27.972 11.9333 27.972 14.6933V21.3067C27.972 24.0667 27.7987 24.3867 25.2387 26.1067L18.8654 29.7867C18.2387 30.16 17.4387 30.3333 16.652 30.3333ZM16.652 7.66666C16.1987 7.66666 15.7454 7.76 15.4254 7.94666L9.1187 11.5867C7.33203 12.8 7.33203 12.8 7.33203 14.6933V21.3067C7.33203 23.2 7.33203 23.2 9.18536 24.4533L15.4387 28.0533C16.0787 28.4267 17.2387 28.4267 17.8787 28.0533L24.1854 24.4133C25.972 23.2 25.972 23.2 25.972 21.3067V14.6933C25.972 12.8 25.972 12.8 24.1187 11.5467L17.8654 7.94666C17.5587 7.76 17.1054 7.66666 16.652 7.66666Z" fill="#E8B500"/>
<path d="M23.9855 11.1734C23.4388 11.1734 22.9855 10.72 22.9855 10.1734V6.66669C22.9855 4.56002 22.0922 3.66669 19.9855 3.66669H13.3188C11.2122 3.66669 10.3188 4.56002 10.3188 6.66669V10.08C10.3188 10.6267 9.86551 11.08 9.31885 11.08C8.77218 11.08 8.31885 10.64 8.31885 10.08V6.66669C8.31885 3.44002 10.0922 1.66669 13.3188 1.66669H19.9855C23.2122 1.66669 24.9855 3.44002 24.9855 6.66669V10.1734C24.9855 10.72 24.5322 11.1734 23.9855 11.1734Z" fill="#E8B500"/>
<path d="M18.8253 23.5066C18.5453 23.5066 18.252 23.4533 17.9587 23.3333L16.652 22.8266L15.3453 23.3466C14.6387 23.6266 13.9187 23.56 13.3853 23.1733C12.852 22.7866 12.572 22.12 12.612 21.36L12.692 19.96L11.7987 18.88C11.3187 18.28 11.1587 17.5866 11.372 16.9466C11.572 16.32 12.1187 15.84 12.852 15.6533L14.212 15.3066L14.972 14.12C15.7853 12.84 17.532 12.84 18.3453 14.12L19.1053 15.3066L20.4653 15.6533C21.1987 15.84 21.7453 16.32 21.9453 16.9466C22.1453 17.5733 21.9853 18.28 21.5053 18.8666L20.612 19.9466L20.692 21.3466C20.732 22.1066 20.452 22.76 19.9187 23.16C19.5987 23.3866 19.2253 23.5066 18.8253 23.5066ZM13.3453 17.6L14.2387 18.68C14.5453 19.04 14.7187 19.6133 14.692 20.08L14.612 21.48L15.9187 20.96C16.3587 20.7866 16.9453 20.7866 17.3853 20.96L18.692 21.48L18.612 20.08C18.5853 19.6133 18.7587 19.0533 19.0653 18.68L19.9587 17.6L18.5987 17.2533C18.1453 17.1333 17.6653 16.7866 17.412 16.4L16.6653 15.2266L15.9053 16.4C15.652 16.8 15.172 17.1466 14.7187 17.2666L13.3453 17.6Z" fill="#E8B500"/>
</svg>
