<svg width="16" height="16" viewBox="0 0 16 16" fill="none" xmlns="http://www.w3.org/2000/svg">
<path fill-rule="evenodd" clip-rule="evenodd" d="M5.33331 0.666672C5.7015 0.666672 5.99998 0.965149 5.99998 1.33334V2.00001H9.99998V1.33334C9.99998 0.965149 10.2985 0.666672 10.6666 0.666672C11.0348 0.666672 11.3333 0.965149 11.3333 1.33334V2.00001H12.6666C13.7712 2.00001 14.6666 2.89544 14.6666 4V13.3333C14.6666 14.4379 13.7712 15.3333 12.6666 15.3333H3.33331C2.22874 15.3333 1.33331 14.4379 1.33331 13.3333V4C1.33331 2.89544 2.22874 2.00001 3.33331 2.00001H4.66665V1.33334C4.66665 0.965149 4.96512 0.666672 5.33331 0.666672ZM4.66665 3.33334H3.33331C2.96512 3.33334 2.66665 3.63182 2.66665 4V6H13.3333V4C13.3333 3.63181 13.0348 3.33334 12.6666 3.33334H11.3333V4C11.3333 4.36819 11.0348 4.66667 10.6666 4.66667C10.2985 4.66667 9.99998 4.36819 9.99998 4V3.33334H5.99998V4C5.99998 4.36819 5.7015 4.66667 5.33331 4.66667C4.96512 4.66667 4.66665 4.36819 4.66665 4V3.33334ZM13.3333 7.33334H2.66665V13.3333C2.66665 13.7015 2.96512 14 3.33331 14H12.6666C13.0348 14 13.3333 13.7015 13.3333 13.3333V7.33334Z" fill="#1492EF"/>
</svg>
