<svg width="80" height="81" viewBox="0 0 80 81" fill="none" xmlns="http://www.w3.org/2000/svg">
<rect y="0.5" width="80" height="80" rx="8" fill="#F1F8FF"/>
<path fill-rule="evenodd" clip-rule="evenodd" d="M33 32.5C32.4477 32.5 32 32.9477 32 33.5V47.5C32 47.9288 32.2699 48.2946 32.6491 48.4367L43.2929 37.7929C43.6834 37.4024 44.3166 37.4024 44.7071 37.7929L48 41.0858V33.5C48 32.9477 47.5523 32.5 47 32.5H33ZM50 43.499V33.5C50 31.8431 48.6569 30.5 47 30.5H33C31.3431 30.5 30 31.8431 30 33.5V47.5C30 49.1569 31.3431 50.5 33 50.5H47C48.6569 50.5 50 49.1569 50 47.5V43.501C50 43.5003 50 43.4997 50 43.499ZM48 43.9142L44 39.9142L35.4142 48.5H47C47.5523 48.5 48 48.0523 48 47.5V43.9142ZM36.5 36.5C36.2239 36.5 36 36.7239 36 37C36 37.2761 36.2239 37.5 36.5 37.5C36.7761 37.5 37 37.2761 37 37C37 36.7239 36.7761 36.5 36.5 36.5ZM34 37C34 35.6193 35.1193 34.5 36.5 34.5C37.8807 34.5 39 35.6193 39 37C39 38.3807 37.8807 39.5 36.5 39.5C35.1193 39.5 34 38.3807 34 37Z" fill="#1492EF"/>
</svg>
