<svg width="32" height="32" viewBox="0 0 32 32" fill="none" xmlns="http://www.w3.org/2000/svg">
<rect width="32" height="32" rx="8" fill="#1960BB"/>
<path d="M6.252 19V13.4H7.292V18.12H10.22V19H6.252ZM12.666 19.056C12.2287 19.056 11.8393 18.9627 11.498 18.776C11.1567 18.584 10.8873 18.3227 10.69 17.992C10.4927 17.6613 10.394 17.2853 10.394 16.864C10.394 16.4373 10.4927 16.0613 10.69 15.736C10.8873 15.4053 11.1567 15.1467 11.498 14.96C11.8393 14.7733 12.2287 14.68 12.666 14.68C13.1087 14.68 13.5007 14.7733 13.842 14.96C14.1887 15.1467 14.458 15.4027 14.65 15.728C14.8473 16.0533 14.946 16.432 14.946 16.864C14.946 17.2853 14.8473 17.6613 14.65 17.992C14.458 18.3227 14.1887 18.584 13.842 18.776C13.5007 18.9627 13.1087 19.056 12.666 19.056ZM12.666 18.2C12.9113 18.2 13.13 18.1467 13.322 18.04C13.514 17.9333 13.6633 17.7787 13.77 17.576C13.882 17.3733 13.938 17.136 13.938 16.864C13.938 16.5867 13.882 16.3493 13.77 16.152C13.6633 15.9493 13.514 15.7947 13.322 15.688C13.13 15.5813 12.914 15.528 12.674 15.528C12.4287 15.528 12.21 15.5813 12.018 15.688C11.8313 15.7947 11.682 15.9493 11.57 16.152C11.458 16.3493 11.402 16.5867 11.402 16.864C11.402 17.136 11.458 17.3733 11.57 17.576C11.682 17.7787 11.8313 17.9333 12.018 18.04C12.21 18.1467 12.426 18.2 12.666 18.2ZM17.6783 20.608C17.2836 20.608 16.8969 20.5547 16.5183 20.448C16.1449 20.3467 15.8383 20.1973 15.5983 20L16.0463 19.248C16.2329 19.4027 16.4676 19.5253 16.7503 19.616C17.0383 19.712 17.3289 19.76 17.6223 19.76C18.0916 19.76 18.4356 19.6507 18.6543 19.432C18.8729 19.2187 18.9823 18.896 18.9823 18.464V17.704L19.0623 16.736L19.0303 15.768V14.728H19.9823V18.352C19.9823 19.1253 19.7849 19.6933 19.3903 20.056C18.9956 20.424 18.4249 20.608 17.6783 20.608ZM17.5503 18.808C17.1449 18.808 16.7769 18.7227 16.4463 18.552C16.1209 18.376 15.8623 18.1333 15.6703 17.824C15.4836 17.5147 15.3903 17.152 15.3903 16.736C15.3903 16.3253 15.4836 15.9653 15.6703 15.656C15.8623 15.3467 16.1209 15.1067 16.4463 14.936C16.7769 14.7653 17.1449 14.68 17.5503 14.68C17.9129 14.68 18.2383 14.752 18.5263 14.896C18.8143 15.04 19.0436 15.264 19.2143 15.568C19.3903 15.872 19.4783 16.2613 19.4783 16.736C19.4783 17.2107 19.3903 17.6027 19.2143 17.912C19.0436 18.216 18.8143 18.4427 18.5263 18.592C18.2383 18.736 17.9129 18.808 17.5503 18.808ZM17.7023 17.96C17.9529 17.96 18.1769 17.9093 18.3743 17.808C18.5716 17.7013 18.7236 17.5573 18.8303 17.376C18.9423 17.1893 18.9983 16.976 18.9983 16.736C18.9983 16.496 18.9423 16.2853 18.8303 16.104C18.7236 15.9173 18.5716 15.776 18.3743 15.68C18.1769 15.5787 17.9529 15.528 17.7023 15.528C17.4516 15.528 17.2249 15.5787 17.0223 15.68C16.8249 15.776 16.6703 15.9173 16.5583 16.104C16.4516 16.2853 16.3983 16.496 16.3983 16.736C16.3983 16.976 16.4516 17.1893 16.5583 17.376C16.6703 17.5573 16.8249 17.7013 17.0223 17.808C17.2249 17.9093 17.4516 17.96 17.7023 17.96ZM23.0569 19.056C22.6196 19.056 22.2303 18.9627 21.8889 18.776C21.5476 18.584 21.2783 18.3227 21.0809 17.992C20.8836 17.6613 20.7849 17.2853 20.7849 16.864C20.7849 16.4373 20.8836 16.0613 21.0809 15.736C21.2783 15.4053 21.5476 15.1467 21.8889 14.96C22.2303 14.7733 22.6196 14.68 23.0569 14.68C23.4996 14.68 23.8916 14.7733 24.2329 14.96C24.5796 15.1467 24.8489 15.4027 25.0409 15.728C25.2383 16.0533 25.3369 16.432 25.3369 16.864C25.3369 17.2853 25.2383 17.6613 25.0409 17.992C24.8489 18.3227 24.5796 18.584 24.2329 18.776C23.8916 18.9627 23.4996 19.056 23.0569 19.056ZM23.0569 18.2C23.3023 18.2 23.5209 18.1467 23.7129 18.04C23.9049 17.9333 24.0543 17.7787 24.1609 17.576C24.2729 17.3733 24.3289 17.136 24.3289 16.864C24.3289 16.5867 24.2729 16.3493 24.1609 16.152C24.0543 15.9493 23.9049 15.7947 23.7129 15.688C23.5209 15.5813 23.3049 15.528 23.0649 15.528C22.8196 15.528 22.6009 15.5813 22.4089 15.688C22.2223 15.7947 22.0729 15.9493 21.9609 16.152C21.8489 16.3493 21.7929 16.5867 21.7929 16.864C21.7929 17.136 21.8489 17.3733 21.9609 17.576C22.0729 17.7787 22.2223 17.9333 22.4089 18.04C22.6009 18.1467 22.8169 18.2 23.0569 18.2Z" fill="white"/>
</svg>
