<svg width="17" height="17" viewBox="0 0 17 17" fill="none" xmlns="http://www.w3.org/2000/svg">
<path fill-rule="evenodd" clip-rule="evenodd" d="M7.16683 2.49996C6.99002 2.49996 6.82045 2.5702 6.69543 2.69522C6.5704 2.82025 6.50016 2.98982 6.50016 3.16663V3.83329H10.5002V3.16663C10.5002 2.98982 10.4299 2.82025 10.3049 2.69522C10.1799 2.5702 10.0103 2.49996 9.8335 2.49996H7.16683ZM11.8335 3.83329V3.16663C11.8335 2.63619 11.6228 2.12748 11.2477 1.75241C10.8726 1.37734 10.3639 1.16663 9.8335 1.16663H7.16683C6.6364 1.16663 6.12769 1.37734 5.75262 1.75241C5.37754 2.12748 5.16683 2.63619 5.16683 3.16663V3.83329H2.50016C2.13197 3.83329 1.8335 4.13177 1.8335 4.49996C1.8335 4.86815 2.13197 5.16663 2.50016 5.16663H3.16683V13.8333C3.16683 14.3637 3.37754 14.8724 3.75262 15.2475C4.12769 15.6226 4.6364 15.8333 5.16683 15.8333H11.8335C12.3639 15.8333 12.8726 15.6226 13.2477 15.2475C13.6228 14.8724 13.8335 14.3637 13.8335 13.8333V5.16663H14.5002C14.8684 5.16663 15.1668 4.86815 15.1668 4.49996C15.1668 4.13177 14.8684 3.83329 14.5002 3.83329H11.8335ZM4.50016 5.16663V13.8333C4.50016 14.0101 4.5704 14.1797 4.69543 14.3047C4.82045 14.4297 4.99002 14.5 5.16683 14.5H11.8335C12.0103 14.5 12.1799 14.4297 12.3049 14.3047C12.4299 14.1797 12.5002 14.0101 12.5002 13.8333V5.16663H4.50016ZM7.16683 7.16663C7.53502 7.16663 7.8335 7.4651 7.8335 7.83329V11.8333C7.8335 12.2015 7.53502 12.5 7.16683 12.5C6.79864 12.5 6.50016 12.2015 6.50016 11.8333V7.83329C6.50016 7.4651 6.79864 7.16663 7.16683 7.16663ZM9.16683 7.83329C9.16683 7.4651 9.46531 7.16663 9.8335 7.16663C10.2017 7.16663 10.5002 7.4651 10.5002 7.83329V11.8333C10.5002 12.2015 10.2017 12.5 9.8335 12.5C9.46531 12.5 9.16683 12.2015 9.16683 11.8333V7.83329Z" fill="#FF5151"/>
</svg>
