<svg width="16" height="16" viewBox="0 0 16 16" fill="none" xmlns="http://www.w3.org/2000/svg">
<path fill-rule="evenodd" clip-rule="evenodd" d="M7.99992 1.33334C8.36811 1.33334 8.66659 1.63182 8.66659 2.00001V8.39053L10.8618 6.19527C11.1222 5.93492 11.5443 5.93492 11.8047 6.19527C12.065 6.45562 12.065 6.87773 11.8047 7.13808L8.47132 10.4714C8.21097 10.7318 7.78886 10.7318 7.52851 10.4714L4.19518 7.13808C3.93483 6.87773 3.93483 6.45562 4.19518 6.19527C4.45553 5.93492 4.87764 5.93492 5.13799 6.19527L7.33325 8.39053V2.00001C7.33325 1.63182 7.63173 1.33334 7.99992 1.33334ZM1.99992 9.33334C2.36811 9.33334 2.66659 9.63182 2.66659 10V12.6667C2.66659 12.8435 2.73682 13.0131 2.86185 13.1381C2.98687 13.2631 3.15644 13.3333 3.33325 13.3333H12.6666C12.8434 13.3333 13.013 13.2631 13.138 13.1381C13.263 13.0131 13.3333 12.8435 13.3333 12.6667V10C13.3333 9.63182 13.6317 9.33334 13.9999 9.33334C14.3681 9.33334 14.6666 9.63182 14.6666 10V12.6667C14.6666 13.1971 14.4559 13.7058 14.0808 14.0809C13.7057 14.456 13.197 14.6667 12.6666 14.6667H3.33325C2.80282 14.6667 2.29411 14.456 1.91904 14.0809C1.54397 13.7058 1.33325 13.1971 1.33325 12.6667V10C1.33325 9.63182 1.63173 9.33334 1.99992 9.33334Z" fill="#1492EF"/>
</svg>
