<svg width="15" height="14" viewBox="0 0 15 14" fill="none" xmlns="http://www.w3.org/2000/svg">
<path fill-rule="evenodd" clip-rule="evenodd" d="M7.50001 0.333313C7.8682 0.333313 8.16668 0.63179 8.16668 0.99998V7.3905L10.3619 5.19524C10.6223 4.93489 11.0444 4.93489 11.3047 5.19524C11.5651 5.45559 11.5651 5.8777 11.3047 6.13805L7.97141 9.47138C7.71107 9.73173 7.28896 9.73173 7.02861 9.47138L3.69527 6.13805C3.43492 5.8777 3.43492 5.45559 3.69527 5.19524C3.95562 4.93489 4.37773 4.93489 4.63808 5.19524L6.83334 7.3905V0.99998C6.83334 0.63179 7.13182 0.333313 7.50001 0.333313ZM1.50001 8.33331C1.8682 8.33331 2.16668 8.63179 2.16668 8.99998V11.6666C2.16668 11.8435 2.23691 12.013 2.36194 12.1381C2.48696 12.2631 2.65653 12.3333 2.83334 12.3333H12.1667C12.3435 12.3333 12.5131 12.2631 12.6381 12.1381C12.7631 12.013 12.8333 11.8435 12.8333 11.6666V8.99998C12.8333 8.63179 13.1318 8.33331 13.5 8.33331C13.8682 8.33331 14.1667 8.63179 14.1667 8.99998V11.6666C14.1667 12.1971 13.956 12.7058 13.5809 13.0809C13.2058 13.4559 12.6971 13.6666 12.1667 13.6666H2.83334C2.30291 13.6666 1.7942 13.4559 1.41913 13.0809C1.04406 12.7058 0.833344 12.1971 0.833344 11.6666V8.99998C0.833344 8.63179 1.13182 8.33331 1.50001 8.33331Z" fill="white"/>
</svg>
