<svg width="16" height="16" viewBox="0 0 16 16" fill="none" xmlns="http://www.w3.org/2000/svg">
<path fill-rule="evenodd" clip-rule="evenodd" d="M13.3333 1.91912C13.1351 1.91912 12.9449 1.99788 12.8047 2.13807L6.60198 8.34083L6.24958 9.75042L7.65917 9.39802L13.8619 3.19526C14.0021 3.05507 14.0809 2.86493 14.0809 2.66667C14.0809 2.4684 14.0021 2.27826 13.8619 2.13807C13.7217 1.99788 13.5316 1.91912 13.3333 1.91912ZM11.8619 1.19526C12.2522 0.80502 12.7815 0.585785 13.3333 0.585785C13.8852 0.585785 14.4145 0.80502 14.8047 1.19526C15.195 1.5855 15.4142 2.11478 15.4142 2.66667C15.4142 3.21855 15.195 3.74783 14.8047 4.13807L8.47141 10.4714C8.38597 10.5568 8.27892 10.6175 8.1617 10.6468L5.49503 11.3134C5.26785 11.3702 5.02752 11.3037 4.86193 11.1381C4.69635 10.9725 4.62978 10.7322 4.68658 10.505L5.35324 7.83831C5.38255 7.72109 5.44316 7.61403 5.5286 7.52859L11.8619 1.19526ZM1.25246 2.58578C1.62753 2.21071 2.13624 2 2.66667 2L7.33334 2C7.70153 2 8.00001 2.29848 8.00001 2.66667C8.00001 3.03485 7.70153 3.33333 7.33334 3.33333L2.66667 3.33333C2.48986 3.33333 2.32029 3.40357 2.19527 3.52859C2.07024 3.65362 2.00001 3.82319 2.00001 4L2.00001 13.3333C2.00001 13.5101 2.07024 13.6797 2.19527 13.8047C2.32029 13.9298 2.48986 14 2.66667 14L12 14C12.1768 14 12.3464 13.9298 12.4714 13.8047C12.5964 13.6797 12.6667 13.5101 12.6667 13.3333V8.66667C12.6667 8.29848 12.9651 8 13.3333 8C13.7015 8 14 8.29848 14 8.66667V13.3333C14 13.8638 13.7893 14.3725 13.4142 14.7475C13.0391 15.1226 12.5304 15.3333 12 15.3333L2.66667 15.3333C2.13624 15.3333 1.62753 15.1226 1.25246 14.7475C0.877385 14.3725 0.666672 13.8638 0.666672 13.3333L0.666672 4C0.666672 3.46957 0.877385 2.96086 1.25246 2.58578Z" fill="#1492EF"/>
</svg>
