<svg width="195" height="171" viewBox="0 0 195 171" fill="none" xmlns="http://www.w3.org/2000/svg">
<rect x="55.4756" y="44.9999" width="80" height="80" rx="40" fill="#FAFAFA"/>
<path fill-rule="evenodd" clip-rule="evenodd" d="M82.4755 73.9998C86.5281 74.0183 89.353 74.5278 91.253 75.4356C93.0527 76.2955 94.0361 77.5155 94.4755 79.1288V94.6497C92.2015 92.9706 88.7066 92.0017 82.4942 91.9998C82.4857 91.9777 82.4755 91.9389 82.4755 91.8792V73.9998ZM96.4755 94.6483C98.7537 92.9632 102.247 91.9998 108.475 91.9998V73.9998C104.423 74.0183 101.598 74.5278 99.6979 75.4356C97.8982 76.2955 96.9148 77.5155 96.4755 79.1288V94.6483ZM95.4755 76.4815C94.7164 75.2979 93.607 74.3437 92.1152 73.631C89.8217 72.5352 86.648 72.0185 82.48 71.9998L82.4792 71.9998C82.2158 71.9988 81.9548 72.05 81.7113 72.1503C81.4677 72.2507 81.2464 72.3982 81.0602 72.5845C80.8739 72.7707 80.7263 72.992 80.626 73.2356C80.5259 73.4785 80.4748 73.7387 80.4755 74.0014V91.8792C80.4755 92.3883 80.6332 92.9091 80.9825 93.3193C81.3444 93.7444 81.8723 93.9998 82.4755 93.9998C90.3565 93.9998 93.0773 95.6008 94.6943 97.6241C94.884 97.8615 95.1714 97.9997 95.4752 97.9998C95.7791 97.9999 96.0665 97.8618 96.2564 97.6245C97.8844 95.5892 100.594 93.9998 108.475 93.9998C109.006 93.9998 109.515 93.7891 109.89 93.414C110.265 93.0389 110.475 92.5302 110.475 91.9998V74.0012C110.476 73.7386 110.425 73.4784 110.325 73.2356C110.225 72.992 110.077 72.7707 109.891 72.5845C109.705 72.3982 109.483 72.2507 109.24 72.1503C108.996 72.05 108.735 71.9988 108.472 71.9998L108.471 71.9998C104.303 72.0185 101.129 72.5352 98.8357 73.631C97.344 74.3437 96.2345 75.2979 95.4755 76.4815Z" fill="#1960BB"/>
<line x1="1.09589" y1="-1.09589" x2="3.40487" y2="-1.09589" transform="matrix(-1 0 0 1 63.8306 40)" stroke="#1492EF" stroke-width="2.19178" stroke-linecap="round"/>
<line x1="1.09589" y1="-1.09589" x2="9.76068" y2="-1.09589" transform="matrix(-1 0 0 1 56.1891 39.9999)" stroke="#1492EF" stroke-width="2.19178" stroke-linecap="round"/>
<line x1="1.09589" y1="-1.09589" x2="3.40487" y2="-1.09589" transform="matrix(-1 0 0 1 43.9724 59.726)" stroke="#FFB86B" stroke-width="2.19178" stroke-linecap="round"/>
<line x1="1.09589" y1="-1.09589" x2="9.76068" y2="-1.09589" transform="matrix(-1 0 0 1 36.3311 59.726)" stroke="#FFB86B" stroke-width="2.19178" stroke-linecap="round"/>
<line x1="1.09589" y1="-1.09589" x2="3.40487" y2="-1.09589" transform="matrix(1 0 0 -1 127.474 129.726)" stroke="#1492EF" stroke-width="2.19178" stroke-linecap="round"/>
<line x1="1.09589" y1="-1.09589" x2="9.76068" y2="-1.09589" transform="matrix(1 0 0 -1 135.115 129.726)" stroke="#1492EF" stroke-width="2.19178" stroke-linecap="round"/>
<line x1="1.09589" y1="-1.09589" x2="3.40487" y2="-1.09589" transform="matrix(1 0 0 -1 147.332 110)" stroke="#FFB86B" stroke-width="2.19178" stroke-linecap="round"/>
<line x1="1.09589" y1="-1.09589" x2="9.76068" y2="-1.09589" transform="matrix(1 0 0 -1 154.973 110)" stroke="#FFB86B" stroke-width="2.19178" stroke-linecap="round"/>
<g filter="url(#filter0_d_828_19762)">
<rect x="142.15" y="9" width="33.5181" height="33.5181" rx="16.759" transform="rotate(15 142.15 9)" fill="url(#paint0_radial_828_19762)"/>
<path d="M144.758 31.1902L146.369 25.1777L148.477 25.7425L146.866 31.755L144.758 31.1902ZM147.601 24.7945C147.217 24.6915 146.935 24.501 146.756 24.2231C146.576 23.9452 146.529 23.6473 146.615 23.3293C146.7 23.0113 146.889 22.7768 147.184 22.6257C147.478 22.4746 147.817 22.4506 148.202 22.5537C148.586 22.6567 148.869 22.8435 149.05 23.114C149.233 23.3771 149.282 23.6676 149.197 23.9856C149.108 24.3184 148.915 24.564 148.619 24.7225C148.333 24.8755 147.993 24.8995 147.601 24.7945ZM157.483 28.0487C157.949 28.1736 158.337 28.3807 158.648 28.6701C158.969 28.954 159.18 29.3198 159.282 29.7672C159.391 30.2166 159.363 30.7519 159.196 31.3732L158.275 34.8121L156.167 34.2473L156.996 31.1523C157.111 30.7234 157.113 30.391 157.002 30.1551C156.893 29.9118 156.698 29.7525 156.417 29.6772C156.217 29.6237 156.023 29.6232 155.834 29.6758C155.646 29.7283 155.481 29.8425 155.338 30.0184C155.198 30.1869 155.086 30.4265 155.003 30.7371L154.204 33.7212L152.096 33.1564L152.925 30.0614C153.04 29.6325 153.042 29.3001 152.931 29.0642C152.829 28.8229 152.634 28.6636 152.345 28.5863C152.138 28.5309 151.941 28.5294 151.752 28.5819C151.571 28.6365 151.406 28.7507 151.256 28.9246C151.116 29.0931 151.004 29.3327 150.921 29.6433L150.121 32.6273L148.014 32.0626L149.625 26.0501L151.632 26.5881L151.184 28.2631L150.912 27.6791C151.249 27.3096 151.638 27.0692 152.08 26.9578C152.524 26.8389 152.983 26.8429 153.456 26.9698C153.996 27.1144 154.432 27.3818 154.763 27.7718C155.104 28.1564 155.267 28.6596 155.25 29.2815L154.601 28.953C154.947 28.5224 155.37 28.2277 155.873 28.069C156.384 27.9049 156.921 27.8981 157.483 28.0487ZM160.244 35.4467C159.889 35.3516 159.621 35.153 159.44 34.851C159.26 34.5489 159.218 34.2167 159.315 33.8543C159.416 33.4771 159.619 33.2103 159.922 33.0539C160.228 32.89 160.558 32.8556 160.913 32.9507C161.268 33.0458 161.537 33.2407 161.719 33.5354C161.904 33.8226 161.945 34.1549 161.844 34.532C161.747 34.8944 161.545 35.1612 161.238 35.3325C160.93 35.5037 160.599 35.5418 160.244 35.4467Z" fill="white"/>
</g>
<g filter="url(#filter1_d_828_19762)">
<rect x="19.4745" y="119.504" width="23.9947" height="23.9947" rx="11.9973" transform="rotate(-35.6581 19.4745 119.504)" fill="url(#paint1_radial_828_19762)"/>
<path d="M32.4403 127.429L29.8426 123.808L31.1118 122.898L33.7095 126.518L32.4403 127.429ZM30.1897 122.952C29.9581 123.118 29.7247 123.188 29.4896 123.161C29.2544 123.134 29.0681 123.025 28.9307 122.833C28.7934 122.642 28.7496 122.431 28.7994 122.199C28.8493 121.968 28.99 121.769 29.2216 121.603C29.4531 121.437 29.6849 121.365 29.9169 121.387C30.1457 121.405 30.3287 121.51 30.4661 121.702C30.6099 121.902 30.6585 122.12 30.6118 122.356C30.5664 122.584 30.4257 122.783 30.1897 122.952ZM36.476 118.958C36.7566 118.757 37.0475 118.636 37.3488 118.595C37.6513 118.546 37.9496 118.596 38.2437 118.742C38.5422 118.885 38.8256 119.144 39.094 119.518L40.5797 121.589L39.3105 122.5L37.9734 120.636C37.788 120.378 37.6049 120.226 37.4238 120.18C37.2396 120.13 37.0628 120.166 36.8936 120.287C36.7734 120.374 36.685 120.481 36.6286 120.609C36.5722 120.737 36.5603 120.881 36.5932 121.039C36.6228 121.193 36.7047 121.364 36.8389 121.551L38.1281 123.348L36.8589 124.259L35.5218 122.395C35.3365 122.137 35.1533 121.985 34.9722 121.939C34.7925 121.886 34.6157 121.922 34.442 122.046C34.3173 122.136 34.2268 122.245 34.1703 122.373C34.1184 122.498 34.1066 122.641 34.1349 122.803C34.1646 122.957 34.2465 123.128 34.3807 123.315L35.6699 125.112L34.4007 126.022L31.8031 122.402L33.0122 121.534L33.7358 122.543L33.2893 122.428C33.2376 122.074 33.2812 121.749 33.4201 121.454C33.5558 121.154 33.7662 120.902 34.0512 120.698C34.3763 120.464 34.722 120.345 35.0883 120.338C35.456 120.324 35.8083 120.462 36.1453 120.754L35.6688 120.964C35.5871 120.577 35.6163 120.209 35.7563 119.859C35.8977 119.501 36.1376 119.201 36.476 118.958ZM41.8247 120.787C41.611 120.94 41.3795 120.998 41.1303 120.961C40.8811 120.924 40.6782 120.797 40.5216 120.578C40.3587 120.351 40.3028 120.118 40.3539 119.879C40.4018 119.636 40.5326 119.437 40.7464 119.284C40.9601 119.131 41.19 119.07 41.436 119.103C41.6788 119.131 41.8817 119.259 42.0447 119.486C42.2012 119.704 42.2572 119.937 42.2124 120.185C42.1677 120.433 42.0385 120.634 41.8247 120.787Z" fill="white"/>
</g>
<defs>
<filter id="filter0_d_828_19762" x="109.474" y="-3" width="89.0511" height="89.0511" filterUnits="userSpaceOnUse" color-interpolation-filters="sRGB">
<feFlood flood-opacity="0" result="BackgroundImageFix"/>
<feColorMatrix in="SourceAlpha" type="matrix" values="0 0 0 0 0 0 0 0 0 0 0 0 0 0 0 0 0 0 127 0" result="hardAlpha"/>
<feOffset dy="12"/>
<feGaussianBlur stdDeviation="12"/>
<feComposite in2="hardAlpha" operator="out"/>
<feColorMatrix type="matrix" values="0 0 0 0 0 0 0 0 0 0.283333 0 0 0 0 1 0 0 0 0.16 0"/>
<feBlend mode="normal" in2="BackgroundImageFix" result="effect1_dropShadow_828_19762"/>
<feBlend mode="normal" in="SourceGraphic" in2="effect1_dropShadow_828_19762" result="shape"/>
</filter>
<filter id="filter1_d_828_19762" x="-4.52551" y="93.5164" width="81.4835" height="81.4835" filterUnits="userSpaceOnUse" color-interpolation-filters="sRGB">
<feFlood flood-opacity="0" result="BackgroundImageFix"/>
<feColorMatrix in="SourceAlpha" type="matrix" values="0 0 0 0 0 0 0 0 0 0 0 0 0 0 0 0 0 0 127 0" result="hardAlpha"/>
<feOffset dy="12"/>
<feGaussianBlur stdDeviation="12"/>
<feComposite in2="hardAlpha" operator="out"/>
<feColorMatrix type="matrix" values="0 0 0 0 0 0 0 0 0 0.283333 0 0 0 0 1 0 0 0 0.16 0"/>
<feBlend mode="normal" in2="BackgroundImageFix" result="effect1_dropShadow_828_19762"/>
<feBlend mode="normal" in="SourceGraphic" in2="effect1_dropShadow_828_19762" result="shape"/>
</filter>
<radialGradient id="paint0_radial_828_19762" cx="0" cy="0" r="1" gradientUnits="userSpaceOnUse" gradientTransform="translate(170.43 14.2372) rotate(133.698) scale(32.5971)">
<stop stop-color="white"/>
<stop offset="1" stop-color="#48B1FF"/>
</radialGradient>
<radialGradient id="paint1_radial_828_19762" cx="0" cy="0" r="1" gradientUnits="userSpaceOnUse" gradientTransform="translate(39.72 123.253) rotate(133.698) scale(23.3353)">
<stop stop-color="white"/>
<stop offset="1" stop-color="#48B1FF"/>
</radialGradient>
</defs>
</svg>
