<svg width="16" height="16" viewBox="0 0 16 16" fill="none" xmlns="http://www.w3.org/2000/svg">
<path fill-rule="evenodd" clip-rule="evenodd" d="M4.33333 1.99996C4.06812 1.99996 3.81376 2.10532 3.62623 2.29285C3.43869 2.48039 3.33333 2.73474 3.33333 2.99996V10.8918C3.64295 10.7449 3.98411 10.6666 4.33333 10.6666H12.6667V1.99996H4.33333ZM14 1.33329C14 0.965103 13.7015 0.666626 13.3333 0.666626H4.33333C3.71449 0.666626 3.121 0.912459 2.68342 1.35004C2.24583 1.78763 2 2.38112 2 2.99996V13C2 13.6188 2.24583 14.2123 2.68342 14.6499C3.121 15.0875 3.71449 15.3333 4.33333 15.3333H13.3333C13.7015 15.3333 14 15.0348 14 14.6666V1.33329ZM12.6667 12H4.33333C4.06812 12 3.81376 12.1053 3.62623 12.2929C3.43869 12.4804 3.33333 12.7347 3.33333 13C3.33333 13.2652 3.43869 13.5195 3.62623 13.7071C3.81376 13.8946 4.06812 14 4.33333 14H12.6667V12Z" fill="#1492EF"/>
</svg>
