<svg width="16" height="16" viewBox="0 0 16 16" fill="none" xmlns="http://www.w3.org/2000/svg">
<path fill-rule="evenodd" clip-rule="evenodd" d="M0.728617 1.71941C0.837856 1.48397 1.07381 1.33333 1.33336 1.33333H14.6667C14.9262 1.33333 15.1622 1.48397 15.2714 1.71941C15.3807 1.95485 15.3433 2.23229 15.1757 2.43048L10 8.55076V14C10 14.231 9.88039 14.4456 9.68385 14.5671C9.48731 14.6886 9.24188 14.6996 9.03522 14.5963L6.36855 13.2629C6.1427 13.15 6.00003 12.9192 6.00003 12.6667V8.55076L0.824316 2.43048C0.656718 2.23229 0.619379 1.95485 0.728617 1.71941ZM2.77023 2.66666L7.17574 7.87618C7.27752 7.99653 7.33336 8.14905 7.33336 8.30666V12.2546L8.6667 12.9213V8.30666C8.6667 8.14905 8.72254 7.99653 8.82432 7.87618L13.2298 2.66666H2.77023Z" fill="#1492EF"/>
</svg>
