<svg width="224" height="43" viewBox="0 0 224 43" fill="none" xmlns="http://www.w3.org/2000/svg">
<g filter="url(#filter0_di_1145_244)">
<rect x="16" y="3" width="32" height="32" rx="16" fill="#1960BB"/>
<path d="M22.8948 23.5V16.8292H25.2332V23.5H22.8948ZM24.064 16.0908C23.6373 16.0908 23.2927 15.9718 23.0301 15.7338C22.7676 15.4959 22.6363 15.2005 22.6363 14.8477C22.6363 14.4949 22.7676 14.1995 23.0301 13.9615C23.2927 13.7236 23.6373 13.6046 24.064 13.6046C24.4907 13.6046 24.8353 13.7195 25.0978 13.9492C25.3604 14.1708 25.4917 14.4579 25.4917 14.8108C25.4917 15.18 25.3604 15.4877 25.0978 15.7338C24.8435 15.9718 24.4989 16.0908 24.064 16.0908ZM35.196 16.7185C35.7129 16.7185 36.1724 16.8251 36.5745 17.0385C36.9847 17.2436 37.3047 17.5636 37.5345 17.9985C37.7724 18.4333 37.8914 18.9954 37.8914 19.6846V23.5H35.5529V20.0662C35.5529 19.5903 35.4627 19.2456 35.2822 19.0323C35.1017 18.8108 34.8555 18.7 34.5437 18.7C34.3222 18.7 34.1211 18.7533 33.9406 18.86C33.7601 18.9667 33.6206 19.1308 33.5222 19.3523C33.4237 19.5656 33.3745 19.8446 33.3745 20.1892V23.5H31.036V20.0662C31.036 19.5903 30.9458 19.2456 30.7652 19.0323C30.5929 18.8108 30.3468 18.7 30.0268 18.7C29.797 18.7 29.5919 18.7533 29.4114 18.86C29.2391 18.9667 29.0996 19.1308 28.9929 19.3523C28.8945 19.5656 28.8452 19.8446 28.8452 20.1892V23.5H26.5068V16.8292H28.7345V18.6877L28.2914 18.1585C28.5375 17.6826 28.874 17.3256 29.3006 17.0877C29.7273 16.8415 30.2032 16.7185 30.7283 16.7185C31.3273 16.7185 31.8524 16.8744 32.3037 17.1862C32.7632 17.4897 33.0709 17.9656 33.2268 18.6138L32.4637 18.4538C32.7017 17.9123 33.0586 17.4897 33.5345 17.1862C34.0186 16.8744 34.5724 16.7185 35.196 16.7185ZM40.1058 23.6108C39.712 23.6108 39.3797 23.4795 39.1089 23.2169C38.8381 22.9544 38.7027 22.6221 38.7027 22.22C38.7027 21.8015 38.8381 21.4692 39.1089 21.2231C39.3797 20.9687 39.712 20.8415 40.1058 20.8415C40.4997 20.8415 40.832 20.9687 41.1027 21.2231C41.3735 21.4692 41.5089 21.8015 41.5089 22.22C41.5089 22.6221 41.3735 22.9544 41.1027 23.2169C40.832 23.4795 40.4997 23.6108 40.1058 23.6108Z" fill="white"/>
</g>
<path d="M58.996 14V5.6H60.94V14H58.996ZM62.6935 14V5.6H64.3015L67.8775 11.528H67.0255L70.5415 5.6H72.1375L72.1615 14H70.3375L70.3255 8.396H70.6615L67.8535 13.112H66.9775L64.1095 8.396H64.5175V14H62.6935ZM73.9144 14V5.6H77.5504C78.3024 5.6 78.9504 5.724 79.4944 5.972C80.0384 6.212 80.4584 6.56 80.7544 7.016C81.0504 7.472 81.1984 8.016 81.1984 8.648C81.1984 9.272 81.0504 9.812 80.7544 10.268C80.4584 10.724 80.0384 11.076 79.4944 11.324C78.9504 11.564 78.3024 11.684 77.5504 11.684H74.9944L75.8584 10.808V14H73.9144ZM75.8584 11.024L74.9944 10.1H77.4424C78.0424 10.1 78.4904 9.972 78.7864 9.716C79.0824 9.46 79.2304 9.104 79.2304 8.648C79.2304 8.184 79.0824 7.824 78.7864 7.568C78.4904 7.312 78.0424 7.184 77.4424 7.184H74.9944L75.8584 6.26V11.024ZM80.8204 14L84.5644 5.6H86.4844L90.2404 14H88.2004L85.1284 6.584H85.8964L82.8124 14H80.8204ZM82.6924 12.2L83.2084 10.724H87.5284L88.0564 12.2H82.6924ZM92.6119 12.08L92.5039 9.836L96.5239 5.6H98.6839L95.0599 9.5L93.9799 10.652L92.6119 12.08ZM90.8719 14V5.6H92.8039V14H90.8719ZM96.6199 14L93.6319 10.34L94.9039 8.96L98.8879 14H96.6199ZM100.681 14V7.184H97.9925V5.6H105.313V7.184H102.625V14H100.681ZM107.907 8.984H111.951V10.496H107.907V8.984ZM108.051 12.44H112.623V14H106.119V5.6H112.467V7.16H108.051V12.44ZM113.929 14V5.6H117.565C118.317 5.6 118.965 5.724 119.509 5.972C120.053 6.212 120.473 6.56 120.769 7.016C121.065 7.472 121.213 8.016 121.213 8.648C121.213 9.272 121.065 9.812 120.769 10.268C120.473 10.716 120.053 11.06 119.509 11.3C118.965 11.54 118.317 11.66 117.565 11.66H115.009L115.873 10.808V14H113.929ZM119.269 14L117.169 10.952H119.245L121.369 14H119.269ZM115.873 11.024L115.009 10.112H117.457C118.057 10.112 118.505 9.984 118.801 9.728C119.097 9.464 119.245 9.104 119.245 8.648C119.245 8.184 119.097 7.824 118.801 7.568C118.505 7.312 118.057 7.184 117.457 7.184H115.009L115.873 6.26V11.024Z" fill="#1D2029"/>
<path d="M125.672 14V5.6H129.308C130.06 5.6 130.708 5.724 131.252 5.972C131.796 6.212 132.216 6.56 132.512 7.016C132.808 7.472 132.956 8.016 132.956 8.648C132.956 9.272 132.808 9.812 132.512 10.268C132.216 10.724 131.796 11.076 131.252 11.324C130.708 11.564 130.06 11.684 129.308 11.684H126.752L127.616 10.808V14H125.672ZM127.616 11.024L126.752 10.1H129.2C129.8 10.1 130.248 9.972 130.544 9.716C130.84 9.46 130.988 9.104 130.988 8.648C130.988 8.184 130.84 7.824 130.544 7.568C130.248 7.312 129.8 7.184 129.2 7.184H126.752L127.616 6.26V11.024ZM134.104 14V5.6H137.74C138.492 5.6 139.14 5.724 139.684 5.972C140.228 6.212 140.648 6.56 140.944 7.016C141.24 7.472 141.388 8.016 141.388 8.648C141.388 9.272 141.24 9.812 140.944 10.268C140.648 10.716 140.228 11.06 139.684 11.3C139.14 11.54 138.492 11.66 137.74 11.66H135.184L136.048 10.808V14H134.104ZM139.444 14L137.344 10.952H139.42L141.544 14H139.444ZM136.048 11.024L135.184 10.112H137.632C138.232 10.112 138.68 9.984 138.976 9.728C139.272 9.464 139.42 9.104 139.42 8.648C139.42 8.184 139.272 7.824 138.976 7.568C138.68 7.312 138.232 7.184 137.632 7.184H135.184L136.048 6.26V11.024ZM146.768 14.144C146.104 14.144 145.488 14.036 144.92 13.82C144.36 13.604 143.872 13.3 143.456 12.908C143.048 12.516 142.728 12.056 142.496 11.528C142.272 11 142.16 10.424 142.16 9.8C142.16 9.176 142.272 8.6 142.496 8.072C142.728 7.544 143.052 7.084 143.468 6.692C143.884 6.3 144.372 5.996 144.932 5.78C145.492 5.564 146.1 5.456 146.756 5.456C147.42 5.456 148.028 5.564 148.58 5.78C149.14 5.996 149.624 6.3 150.032 6.692C150.448 7.084 150.772 7.544 151.004 8.072C151.236 8.592 151.352 9.168 151.352 9.8C151.352 10.424 151.236 11.004 151.004 11.54C150.772 12.068 150.448 12.528 150.032 12.92C149.624 13.304 149.14 13.604 148.58 13.82C148.028 14.036 147.424 14.144 146.768 14.144ZM146.756 12.488C147.132 12.488 147.476 12.424 147.788 12.296C148.108 12.168 148.388 11.984 148.628 11.744C148.868 11.504 149.052 11.22 149.18 10.892C149.316 10.564 149.384 10.2 149.384 9.8C149.384 9.4 149.316 9.036 149.18 8.708C149.052 8.38 148.868 8.096 148.628 7.856C148.396 7.616 148.12 7.432 147.8 7.304C147.48 7.176 147.132 7.112 146.756 7.112C146.38 7.112 146.032 7.176 145.712 7.304C145.4 7.432 145.124 7.616 144.884 7.856C144.644 8.096 144.456 8.38 144.32 8.708C144.192 9.036 144.128 9.4 144.128 9.8C144.128 10.192 144.192 10.556 144.32 10.892C144.456 11.22 144.64 11.504 144.872 11.744C145.112 11.984 145.392 12.168 145.712 12.296C146.032 12.424 146.38 12.488 146.756 12.488Z" fill="#1492EF"/>
<path d="M62 31.03C61.5 31.03 61.0367 30.94 60.61 30.76C60.1833 30.58 59.81 30.33 59.49 30.01C59.17 29.6833 58.92 29.3067 58.74 28.88C58.5667 28.4533 58.48 27.9933 58.48 27.5C58.48 27.0067 58.57 26.5467 58.75 26.12C58.93 25.6933 59.18 25.32 59.5 25C59.82 24.6733 60.1933 24.42 60.62 24.24C61.0533 24.06 61.52 23.97 62.02 23.97C62.52 23.97 62.9833 24.06 63.41 24.24C63.8433 24.4133 64.2167 24.66 64.53 24.98C64.85 25.3 65.0967 25.6733 65.27 26.1C65.45 26.52 65.54 26.98 65.54 27.48C65.54 27.98 65.45 28.4467 65.27 28.88C65.09 29.3067 64.8367 29.6833 64.51 30.01C64.19 30.33 63.8167 30.58 63.39 30.76C62.9633 30.94 62.5 31.03 62 31.03ZM62 30.58C62.4333 30.58 62.8367 30.5 63.21 30.34C63.5833 30.18 63.91 29.96 64.19 29.68C64.47 29.4 64.6867 29.0733 64.84 28.7C64.9933 28.32 65.07 27.9133 65.07 27.48C65.07 27.0467 64.9933 26.6433 64.84 26.27C64.6867 25.8967 64.4733 25.5733 64.2 25.3C63.9267 25.0267 63.6033 24.8133 63.23 24.66C62.8633 24.5 62.46 24.42 62.02 24.42C61.58 24.42 61.17 24.5 60.79 24.66C60.4167 24.8133 60.0933 25.0333 59.82 25.32C59.5467 25.6 59.3333 25.9267 59.18 26.3C59.0267 26.6667 58.95 27.0667 58.95 27.5C58.95 27.9333 59.0267 28.3367 59.18 28.71C59.3333 29.0833 59.5467 29.41 59.82 29.69C60.0933 29.97 60.4167 30.19 60.79 30.35C61.1633 30.5033 61.5667 30.58 62 30.58ZM62.11 29.56C61.7033 29.56 61.34 29.4733 61.02 29.3C60.7 29.1267 60.45 28.8867 60.27 28.58C60.09 28.2667 60 27.9067 60 27.5C60 27.0933 60.09 26.7367 60.27 26.43C60.45 26.1167 60.7 25.8733 61.02 25.7C61.34 25.5267 61.7033 25.44 62.11 25.44C62.4633 25.44 62.78 25.5133 63.06 25.66C63.3467 25.8 63.57 25.9967 63.73 26.25L63.16 26.66C63.0333 26.4733 62.8767 26.3367 62.69 26.25C62.51 26.1633 62.3133 26.12 62.1 26.12C61.84 26.12 61.61 26.18 61.41 26.3C61.2167 26.4133 61.06 26.5733 60.94 26.78C60.82 26.98 60.76 27.22 60.76 27.5C60.76 27.78 60.82 28.0233 60.94 28.23C61.06 28.43 61.2167 28.59 61.41 28.71C61.61 28.8233 61.84 28.88 62.1 28.88C62.3133 28.88 62.51 28.8367 62.69 28.75C62.8767 28.6633 63.0333 28.5267 63.16 28.34L63.73 28.74C63.57 28.9933 63.3467 29.1933 63.06 29.34C62.78 29.4867 62.4633 29.56 62.11 29.56ZM66.0899 31V30.32L68.9399 27.57C69.1933 27.33 69.3799 27.12 69.4999 26.94C69.6266 26.7533 69.7099 26.5833 69.7499 26.43C69.7966 26.27 69.8199 26.1167 69.8199 25.97C69.8199 25.61 69.6933 25.3267 69.4399 25.12C69.1866 24.9133 68.8166 24.81 68.3299 24.81C67.9566 24.81 67.6199 24.8733 67.3199 25C67.0199 25.12 66.7599 25.31 66.5399 25.57L65.8599 24.98C66.1266 24.64 66.4833 24.38 66.9299 24.2C67.3833 24.0133 67.8799 23.92 68.4199 23.92C68.9066 23.92 69.3299 24 69.6899 24.16C70.0499 24.3133 70.3266 24.5367 70.5199 24.83C70.7199 25.1233 70.8199 25.47 70.8199 25.87C70.8199 26.0967 70.7899 26.32 70.7299 26.54C70.6699 26.76 70.5566 26.9933 70.3899 27.24C70.2233 27.4867 69.9833 27.7633 69.6699 28.07L67.1299 30.52L66.8899 30.13H71.1199V31H66.0899ZM74.5923 31.08C74.0457 31.08 73.5557 30.94 73.1223 30.66C72.6957 30.38 72.3557 29.9733 72.1023 29.44C71.8557 28.9067 71.7323 28.26 71.7323 27.5C71.7323 26.74 71.8557 26.0933 72.1023 25.56C72.3557 25.0267 72.6957 24.62 73.1223 24.34C73.5557 24.06 74.0457 23.92 74.5923 23.92C75.1323 23.92 75.619 24.06 76.0523 24.34C76.4857 24.62 76.8257 25.0267 77.0723 25.56C77.319 26.0933 77.4423 26.74 77.4423 27.5C77.4423 28.26 77.319 28.9067 77.0723 29.44C76.8257 29.9733 76.4857 30.38 76.0523 30.66C75.619 30.94 75.1323 31.08 74.5923 31.08ZM74.5923 30.19C74.959 30.19 75.279 30.09 75.5523 29.89C75.8323 29.69 76.049 29.39 76.2023 28.99C76.3623 28.59 76.4423 28.0933 76.4423 27.5C76.4423 26.9067 76.3623 26.41 76.2023 26.01C76.049 25.61 75.8323 25.31 75.5523 25.11C75.279 24.91 74.959 24.81 74.5923 24.81C74.2257 24.81 73.9023 24.91 73.6223 25.11C73.3423 25.31 73.1223 25.61 72.9623 26.01C72.809 26.41 72.7323 26.9067 72.7323 27.5C72.7323 28.0933 72.809 28.59 72.9623 28.99C73.1223 29.39 73.3423 29.69 73.6223 29.89C73.9023 30.09 74.2257 30.19 74.5923 30.19ZM78.0923 31V30.32L80.9423 27.57C81.1956 27.33 81.3823 27.12 81.5023 26.94C81.6289 26.7533 81.7123 26.5833 81.7523 26.43C81.7989 26.27 81.8223 26.1167 81.8223 25.97C81.8223 25.61 81.6956 25.3267 81.4423 25.12C81.1889 24.9133 80.8189 24.81 80.3323 24.81C79.9589 24.81 79.6223 24.8733 79.3223 25C79.0223 25.12 78.7623 25.31 78.5423 25.57L77.8623 24.98C78.1289 24.64 78.4856 24.38 78.9323 24.2C79.3856 24.0133 79.8823 23.92 80.4223 23.92C80.9089 23.92 81.3323 24 81.6923 24.16C82.0523 24.3133 82.3289 24.5367 82.5223 24.83C82.7223 25.1233 82.8223 25.47 82.8223 25.87C82.8223 26.0967 82.7923 26.32 82.7323 26.54C82.6723 26.76 82.5589 26.9933 82.3923 27.24C82.2256 27.4867 81.9856 27.7633 81.6723 28.07L79.1323 30.52L78.8923 30.13H83.1223V31H78.0923ZM83.4589 29.28V28.58L87.0389 24H88.1189L84.5689 28.58L84.0589 28.42H89.6489V29.28H83.4589ZM87.3489 31V29.28L87.3789 28.42V26.9H88.3189V31H87.3489ZM93.1039 31V24H94.1039V31H93.1039ZM95.9996 31V24H96.8196L99.9596 29.29H99.5196L102.62 24H103.44L103.45 31H102.49L102.48 25.51H102.71L99.9496 30.15H99.4896L96.7096 25.51H96.9596V31H95.9996ZM105.35 31V24H108.08C108.694 24 109.217 24.0967 109.65 24.29C110.084 24.4833 110.417 24.7633 110.65 25.13C110.884 25.4967 111 25.9333 111 26.44C111 26.9467 110.884 27.3833 110.65 27.75C110.417 28.11 110.084 28.39 109.65 28.59C109.217 28.7833 108.694 28.88 108.08 28.88H105.9L106.35 28.41V31H105.35ZM106.35 28.51L105.9 28.01H108.05C108.69 28.01 109.174 27.8733 109.5 27.6C109.834 27.3267 110 26.94 110 26.44C110 25.94 109.834 25.5533 109.5 25.28C109.174 25.0067 108.69 24.87 108.05 24.87H105.9L106.35 24.37V28.51ZM110.858 31L114.028 24H115.018L118.198 31H117.148L114.318 24.56H114.718L111.888 31H110.858ZM112.208 29.25L112.478 28.45H116.418L116.708 29.25H112.208ZM119.922 29.31L119.872 28.09L123.842 24H124.982L121.912 27.24L121.352 27.86L119.922 29.31ZM119.042 31V24H120.042V31H119.042ZM124.002 31L121.132 27.66L121.802 26.92L125.172 31H124.002ZM126.99 31V24.87H124.59V24H130.38V24.87H127.98V31H126.99ZM132.179 27.02H135.779V27.87H132.179V27.02ZM132.269 30.13H136.349V31H131.269V24H136.209V24.87H132.269V30.13ZM137.768 31V24H140.498C141.112 24 141.635 24.0967 142.068 24.29C142.502 24.4833 142.835 24.7633 143.068 25.13C143.302 25.4967 143.418 25.9333 143.418 26.44C143.418 26.9467 143.302 27.3833 143.068 27.75C142.835 28.11 142.502 28.3867 142.068 28.58C141.635 28.7733 141.112 28.87 140.498 28.87H138.318L138.768 28.41V31H137.768ZM142.448 31L140.668 28.46H141.738L143.538 31H142.448ZM138.768 28.51L138.318 28.02H140.468C141.108 28.02 141.592 27.8833 141.918 27.61C142.252 27.33 142.418 26.94 142.418 26.44C142.418 25.94 142.252 25.5533 141.918 25.28C141.592 25.0067 141.108 24.87 140.468 24.87H138.318L138.768 24.37V28.51ZM147.32 31V24H148.32V30.13H152.11V31H147.32ZM152.917 31V25.7H153.877V31H152.917ZM153.397 24.68C153.21 24.68 153.054 24.62 152.927 24.5C152.807 24.38 152.747 24.2333 152.747 24.06C152.747 23.88 152.807 23.73 152.927 23.61C153.054 23.49 153.21 23.43 153.397 23.43C153.584 23.43 153.737 23.49 153.857 23.61C153.984 23.7233 154.047 23.8667 154.047 24.04C154.047 24.22 153.987 24.3733 153.867 24.5C153.747 24.62 153.59 24.68 153.397 24.68ZM162.14 25.65C162.567 25.65 162.943 25.7333 163.27 25.9C163.597 26.0667 163.85 26.32 164.03 26.66C164.217 27 164.31 27.43 164.31 27.95V31H163.35V28.06C163.35 27.5467 163.23 27.16 162.99 26.9C162.75 26.64 162.413 26.51 161.98 26.51C161.66 26.51 161.38 26.5767 161.14 26.71C160.9 26.8433 160.713 27.04 160.58 27.3C160.453 27.56 160.39 27.8833 160.39 28.27V31H159.43V28.06C159.43 27.5467 159.31 27.16 159.07 26.9C158.837 26.64 158.5 26.51 158.06 26.51C157.747 26.51 157.47 26.5767 157.23 26.71C156.99 26.8433 156.803 27.04 156.67 27.3C156.537 27.56 156.47 27.8833 156.47 28.27V31H155.51V25.7H156.43V27.11L156.28 26.75C156.447 26.4033 156.703 26.1333 157.05 25.94C157.397 25.7467 157.8 25.65 158.26 25.65C158.767 25.65 159.203 25.7767 159.57 26.03C159.937 26.2767 160.177 26.6533 160.29 27.16L159.9 27C160.06 26.5933 160.34 26.2667 160.74 26.02C161.14 25.7733 161.607 25.65 162.14 25.65ZM165.876 31V25.7H166.836V31H165.876ZM166.356 24.68C166.17 24.68 166.013 24.62 165.886 24.5C165.766 24.38 165.706 24.2333 165.706 24.06C165.706 23.88 165.766 23.73 165.886 23.61C166.013 23.49 166.17 23.43 166.356 23.43C166.543 23.43 166.696 23.49 166.816 23.61C166.943 23.7233 167.006 23.8667 167.006 24.04C167.006 24.22 166.946 24.3733 166.826 24.5C166.706 24.62 166.55 24.68 166.356 24.68ZM170.289 31.06C169.756 31.06 169.343 30.9167 169.049 30.63C168.756 30.3433 168.609 29.9333 168.609 29.4V24.54H169.569V29.36C169.569 29.6467 169.639 29.8667 169.779 30.02C169.926 30.1733 170.133 30.25 170.399 30.25C170.699 30.25 170.949 30.1667 171.149 30L171.449 30.69C171.303 30.8167 171.126 30.91 170.919 30.97C170.719 31.03 170.509 31.06 170.289 31.06ZM167.709 26.49V25.7H171.089V26.49H167.709ZM174.594 31.06C174.028 31.06 173.528 30.9433 173.094 30.71C172.668 30.4767 172.334 30.1567 172.094 29.75C171.861 29.3433 171.744 28.8767 171.744 28.35C171.744 27.8233 171.858 27.3567 172.084 26.95C172.318 26.5433 172.634 26.2267 173.034 26C173.441 25.7667 173.898 25.65 174.404 25.65C174.918 25.65 175.371 25.7633 175.764 25.99C176.158 26.2167 176.464 26.5367 176.684 26.95C176.911 27.3567 177.024 27.8333 177.024 28.38C177.024 28.42 177.021 28.4667 177.014 28.52C177.014 28.5733 177.011 28.6233 177.004 28.67H172.494V27.98H176.504L176.114 28.22C176.121 27.88 176.051 27.5767 175.904 27.31C175.758 27.0433 175.554 26.8367 175.294 26.69C175.041 26.5367 174.744 26.46 174.404 26.46C174.071 26.46 173.774 26.5367 173.514 26.69C173.254 26.8367 173.051 27.0467 172.904 27.32C172.758 27.5867 172.684 27.8933 172.684 28.24V28.4C172.684 28.7533 172.764 29.07 172.924 29.35C173.091 29.6233 173.321 29.8367 173.614 29.99C173.908 30.1433 174.244 30.22 174.624 30.22C174.938 30.22 175.221 30.1667 175.474 30.06C175.734 29.9533 175.961 29.7933 176.154 29.58L176.684 30.2C176.444 30.48 176.144 30.6933 175.784 30.84C175.431 30.9867 175.034 31.06 174.594 31.06ZM180.347 31.06C179.834 31.06 179.374 30.9467 178.967 30.72C178.567 30.4933 178.251 30.1767 178.017 29.77C177.784 29.3633 177.667 28.89 177.667 28.35C177.667 27.81 177.784 27.34 178.017 26.94C178.251 26.5333 178.567 26.2167 178.967 25.99C179.374 25.7633 179.834 25.65 180.347 25.65C180.794 25.65 181.197 25.75 181.557 25.95C181.917 26.15 182.204 26.45 182.417 26.85C182.637 27.25 182.747 27.75 182.747 28.35C182.747 28.95 182.641 29.45 182.427 29.85C182.221 30.25 181.937 30.5533 181.577 30.76C181.217 30.96 180.807 31.06 180.347 31.06ZM180.427 30.22C180.761 30.22 181.061 30.1433 181.327 29.99C181.601 29.8367 181.814 29.62 181.967 29.34C182.127 29.0533 182.207 28.7233 182.207 28.35C182.207 27.97 182.127 27.6433 181.967 27.37C181.814 27.09 181.601 26.8733 181.327 26.72C181.061 26.5667 180.761 26.49 180.427 26.49C180.087 26.49 179.784 26.5667 179.517 26.72C179.251 26.8733 179.037 27.09 178.877 27.37C178.717 27.6433 178.637 27.97 178.637 28.35C178.637 28.7233 178.717 29.0533 178.877 29.34C179.037 29.62 179.251 29.8367 179.517 29.99C179.784 30.1433 180.087 30.22 180.427 30.22ZM182.237 31V29.57L182.297 28.34L182.197 27.11V23.58H183.157V31H182.237Z" fill="#7C7C7C"/>
<defs>
<filter id="filter0_di_1145_244" x="11.0769" y="0.538461" width="41.8462" height="41.8462" filterUnits="userSpaceOnUse" color-interpolation-filters="sRGB">
<feFlood flood-opacity="0" result="BackgroundImageFix"/>
<feColorMatrix in="SourceAlpha" type="matrix" values="0 0 0 0 0 0 0 0 0 0 0 0 0 0 0 0 0 0 127 0" result="hardAlpha"/>
<feOffset dy="2.46154"/>
<feGaussianBlur stdDeviation="2.46154"/>
<feComposite in2="hardAlpha" operator="out"/>
<feColorMatrix type="matrix" values="0 0 0 0 0.078125 0 0 0 0 0.539062 0 0 0 0 1 0 0 0 0.32 0"/>
<feBlend mode="normal" in2="BackgroundImageFix" result="effect1_dropShadow_1145_244"/>
<feBlend mode="normal" in="SourceGraphic" in2="effect1_dropShadow_1145_244" result="shape"/>
<feColorMatrix in="SourceAlpha" type="matrix" values="0 0 0 0 0 0 0 0 0 0 0 0 0 0 0 0 0 0 127 0" result="hardAlpha"/>
<feOffset dy="4.92308"/>
<feGaussianBlur stdDeviation="2.46154"/>
<feComposite in2="hardAlpha" operator="arithmetic" k2="-1" k3="1"/>
<feColorMatrix type="matrix" values="0 0 0 0 0.135042 0 0 0 0 0.581937 0 0 0 0 1 0 0 0 0.25 0"/>
<feBlend mode="normal" in2="shape" result="effect2_innerShadow_1145_244"/>
</filter>
</defs>
</svg>
