<svg width="76" height="68" viewBox="0 0 76 68" fill="none" xmlns="http://www.w3.org/2000/svg">
<g filter="url(#filter0_d_1462_13607)">
<rect x="12" y="8" width="48" height="48" rx="12" fill="#E7FFFC" shape-rendering="crispEdges"/>
<path fill-rule="evenodd" clip-rule="evenodd" d="M28.6419 24.1187C28.575 24.0479 28.4489 23.9367 28.2585 23.893C28.0344 23.8416 27.8263 23.9066 27.6773 24.0208C27.5506 24.1179 27.4805 24.2376 27.4434 24.3131C27.4028 24.3956 27.3752 24.4803 27.3554 24.5553C27.2802 24.8397 27.2514 25.2457 27.2505 25.6973C27.2487 26.6265 27.3672 27.96 27.6404 29.4288C28.1801 32.3301 29.3604 35.9613 31.598 38.0054L31.5982 38.0056C33.2436 39.5074 35.338 40.1773 37.2461 40.1036C39.0859 40.0326 40.8316 39.2603 41.7824 37.7736C42.516 37.9647 43.2766 38.121 44.069 38.2429C44.4102 38.2954 44.7293 38.0614 44.7818 37.7202C44.8343 37.3791 44.6003 37.0599 44.2591 37.0075C43.5985 36.9058 42.9616 36.7791 42.3451 36.6268C43.4008 33.7518 42.2185 30.3062 38.9129 28.1713C37.3091 27.1353 35.6619 26.86 34.1631 26.6094C33.9162 26.5682 33.6733 26.5276 33.4353 26.4844C31.7401 26.1766 30.1677 25.7342 28.642 24.1188L28.6419 24.1187ZM41.1356 36.287C42.0165 34.0092 41.1649 31.1138 38.2347 29.2213L38.2347 29.2213C36.8639 28.3358 35.4918 28.1035 33.991 27.8494C33.7353 27.8061 33.4758 27.7622 33.212 27.7143C31.6671 27.4338 30.0597 27.018 28.5005 25.7041C28.4992 26.5414 28.6078 27.7944 28.8693 29.2002C29.3999 32.0526 30.5223 35.3295 32.4409 37.0823L32.4409 37.0824L32.4411 37.0825C33.8343 38.354 35.605 38.9161 37.1979 38.8546C38.5972 38.8006 39.7952 38.2735 40.5119 37.3991C37.449 36.3873 34.8488 34.711 32.3293 32.338C32.078 32.1013 32.0662 31.7058 32.3028 31.4545C32.5395 31.2032 32.9351 31.1914 33.1863 31.428C35.65 33.7485 38.161 35.3466 41.1356 36.287Z" fill="#03A500"/>
</g>
<defs>
<filter id="filter0_d_1462_13607" x="-4" y="0" width="80" height="80" filterUnits="userSpaceOnUse" color-interpolation-filters="sRGB">
<feFlood flood-opacity="0" result="BackgroundImageFix"/>
<feColorMatrix in="SourceAlpha" type="matrix" values="0 0 0 0 0 0 0 0 0 0 0 0 0 0 0 0 0 0 127 0" result="hardAlpha"/>
<feOffset dy="8"/>
<feGaussianBlur stdDeviation="8"/>
<feComposite in2="hardAlpha" operator="out"/>
<feColorMatrix type="matrix" values="0 0 0 0 0.201367 0 0 0 0 0.374404 0 0 0 0 1 0 0 0 0.1 0"/>
<feBlend mode="normal" in2="BackgroundImageFix" result="effect1_dropShadow_1462_13607"/>
<feBlend mode="normal" in="SourceGraphic" in2="effect1_dropShadow_1462_13607" result="shape"/>
</filter>
</defs>
</svg>
