<svg width="16" height="15" viewBox="0 0 16 15" fill="none" xmlns="http://www.w3.org/2000/svg">
<path fill-rule="evenodd" clip-rule="evenodd" d="M2.03646 6.99998H4.6999C4.84937 5.15786 5.46591 3.38959 6.48364 1.85986C4.11238 2.47729 2.31184 4.5088 2.03646 6.99998ZM7.99984 2.03385C6.88672 3.46794 6.2057 5.1912 6.03823 6.99998H9.96144C9.79398 5.1912 9.11295 3.46794 7.99984 2.03385ZM9.96144 8.33331C9.79398 10.1421 9.11295 11.8654 7.99984 13.2994C6.88672 11.8654 6.2057 10.1421 6.03823 8.33331H9.96144ZM4.6999 8.33331H2.03646C2.31184 10.8245 4.11238 12.856 6.48364 13.4734C5.4659 11.9437 4.84937 10.1754 4.6999 8.33331ZM9.51603 13.4734C10.5338 11.9437 11.1503 10.1754 11.2998 8.33331H13.9632C13.6878 10.8245 11.8873 12.856 9.51603 13.4734ZM13.9632 6.99998H11.2998C11.1503 5.15786 10.5338 3.38959 9.51603 1.85986C11.8873 2.47729 13.6878 4.5088 13.9632 6.99998ZM0.666504 7.66665C0.666504 3.61656 3.94975 0.333313 7.99984 0.333313C12.0499 0.333313 15.3332 3.61656 15.3332 7.66665C15.3332 11.7167 12.0499 15 7.99984 15C3.94975 15 0.666504 11.7167 0.666504 7.66665Z" fill="#1492EF"/>
</svg>
