<svg width="76" height="68" viewBox="0 0 76 68" fill="none" xmlns="http://www.w3.org/2000/svg">
<g filter="url(#filter0_d_1462_13619)">
<rect x="12" y="8" width="48" height="48" rx="12" fill="#F1F8FF" shape-rendering="crispEdges"/>
<path fill-rule="evenodd" clip-rule="evenodd" d="M29.125 23.875C28.9592 23.875 28.8003 23.9408 28.6831 24.0581C28.5658 24.1753 28.5 24.3342 28.5 24.5V40.125H32.25V38.25C32.25 37.9048 32.5298 37.625 32.875 37.625C33.2202 37.625 33.5 37.9048 33.5 38.25V40.125H37.25V24.5C37.25 24.3342 37.1842 24.1753 37.0669 24.0581C36.9497 23.9408 36.7908 23.875 36.625 23.875H29.125ZM38.5 30.125V40.125H43.5V30.75C43.5 30.5842 43.4342 30.4253 43.3169 30.3081C43.1997 30.1908 43.0408 30.125 42.875 30.125H38.5ZM37.801 41.3707C37.8253 41.3735 37.85 41.375 37.875 41.375H44.125C44.4702 41.375 44.75 41.0952 44.75 40.75V30.75C44.75 30.2527 44.5525 29.7758 44.2008 29.4242C43.8492 29.0725 43.3723 28.875 42.875 28.875H38.5V24.5C38.5 24.0027 38.3025 23.5258 37.9508 23.1742C37.5992 22.8225 37.1223 22.625 36.625 22.625H29.125C28.6277 22.625 28.1508 22.8225 27.7992 23.1742C27.4475 23.5258 27.25 24.0027 27.25 24.5V40.75C27.25 41.0952 27.5298 41.375 27.875 41.375H37.7188C37.7463 41.375 37.7738 41.3735 37.801 41.3707Z" fill="#1492EF"/>
<path d="M29.8313 38.8699C29.7018 38.8869 29.5703 38.8628 29.4552 38.8012C29.3401 38.7396 29.2472 38.6435 29.1895 38.5264C29.1318 38.4093 29.1123 38.2771 29.1336 38.1483C29.1549 38.0195 29.2159 37.9006 29.3083 37.8083C29.4006 37.7159 29.5195 37.6549 29.6483 37.6336C29.7771 37.6123 29.9093 37.6318 30.0264 37.6895C30.1435 37.7472 30.2396 37.8401 30.3012 37.9552C30.3628 38.0703 30.3869 38.2018 30.3699 38.3312C30.3521 38.4679 30.2896 38.5947 30.1921 38.6921C30.0947 38.7896 29.9679 38.8521 29.8313 38.8699Z" fill="#1492EF"/>
<path d="M29.8313 35.7449C29.7018 35.7619 29.5703 35.7378 29.4552 35.6762C29.3401 35.6146 29.2472 35.5185 29.1895 35.4014C29.1318 35.2843 29.1123 35.1521 29.1336 35.0233C29.1549 34.8945 29.2159 34.7756 29.3083 34.6833C29.4006 34.5909 29.5195 34.5299 29.6483 34.5086C29.7771 34.4873 29.9093 34.5068 30.0264 34.5645C30.1435 34.6222 30.2396 34.7151 30.3012 34.8302C30.3628 34.9453 30.3869 35.0768 30.3699 35.2062C30.3521 35.3429 30.2896 35.4697 30.1921 35.5671C30.0947 35.6646 29.9679 35.7271 29.8313 35.7449Z" fill="#1492EF"/>
<path d="M29.8313 32.6199C29.7018 32.6369 29.5703 32.6128 29.4552 32.5512C29.3401 32.4896 29.2472 32.3935 29.1895 32.2764C29.1318 32.1593 29.1123 32.0271 29.1336 31.8983C29.1549 31.7695 29.2159 31.6506 29.3083 31.5583C29.4006 31.4659 29.5195 31.4049 29.6483 31.3836C29.7771 31.3623 29.9093 31.3818 30.0264 31.4395C30.1435 31.4972 30.2396 31.5901 30.3012 31.7052C30.3628 31.8203 30.3869 31.9518 30.3699 32.0812C30.3521 32.2179 30.2896 32.3447 30.1921 32.4421C30.0947 32.5396 29.9679 32.6021 29.8313 32.6199Z" fill="#1492EF"/>
<path d="M29.8313 29.4949C29.7018 29.5119 29.5703 29.4878 29.4552 29.4262C29.3401 29.3646 29.2472 29.2685 29.1895 29.1514C29.1318 29.0343 29.1123 28.9021 29.1336 28.7733C29.1549 28.6445 29.2159 28.5256 29.3083 28.4333C29.4006 28.3409 29.5195 28.2799 29.6483 28.2586C29.7771 28.2373 29.9093 28.2568 30.0264 28.3145C30.1435 28.3722 30.2396 28.4651 30.3012 28.5802C30.3628 28.6953 30.3869 28.8268 30.3699 28.9563C30.3521 29.0929 30.2896 29.2197 30.1921 29.3171C30.0947 29.4146 29.9679 29.4771 29.8313 29.4949Z" fill="#1492EF"/>
<path d="M29.8313 26.3699C29.7018 26.3869 29.5703 26.3628 29.4552 26.3012C29.3401 26.2396 29.2472 26.1435 29.1895 26.0264C29.1318 25.9093 29.1123 25.7771 29.1336 25.6483C29.1549 25.5195 29.2159 25.4006 29.3083 25.3083C29.4006 25.2159 29.5195 25.1549 29.6483 25.1336C29.7771 25.1123 29.9093 25.1318 30.0264 25.1895C30.1435 25.2472 30.2396 25.3401 30.3012 25.4552C30.3628 25.5703 30.3869 25.7018 30.3699 25.8313C30.3521 25.9679 30.2896 26.0947 30.1921 26.1921C30.0947 26.2896 29.9679 26.3521 29.8313 26.3699Z" fill="#1492EF"/>
<path d="M32.9563 35.7449C32.8268 35.7619 32.6953 35.7378 32.5802 35.6762C32.4651 35.6146 32.3722 35.5185 32.3145 35.4014C32.2568 35.2843 32.2373 35.1521 32.2586 35.0233C32.2799 34.8945 32.3409 34.7756 32.4333 34.6833C32.5256 34.5909 32.6445 34.5299 32.7733 34.5086C32.9021 34.4873 33.0343 34.5068 33.1514 34.5645C33.2685 34.6222 33.3646 34.7151 33.4262 34.8302C33.4878 34.9453 33.5119 35.0768 33.4949 35.2062C33.4771 35.3429 33.4146 35.4697 33.3171 35.5671C33.2197 35.6646 33.0929 35.7271 32.9563 35.7449Z" fill="#1492EF"/>
<path d="M32.9563 32.6199C32.8268 32.6369 32.6953 32.6128 32.5802 32.5512C32.4651 32.4896 32.3722 32.3935 32.3145 32.2764C32.2568 32.1593 32.2373 32.0271 32.2586 31.8983C32.2799 31.7695 32.3409 31.6506 32.4333 31.5583C32.5256 31.4659 32.6445 31.4049 32.7733 31.3836C32.9021 31.3623 33.0343 31.3818 33.1514 31.4395C33.2685 31.4972 33.3646 31.5901 33.4262 31.7052C33.4878 31.8203 33.5119 31.9518 33.4949 32.0812C33.4771 32.2179 33.4146 32.3447 33.3171 32.4421C33.2197 32.5396 33.0929 32.6021 32.9563 32.6199Z" fill="#1492EF"/>
<path d="M32.9563 29.4949C32.8268 29.5119 32.6953 29.4878 32.5802 29.4262C32.4651 29.3646 32.3722 29.2685 32.3145 29.1514C32.2568 29.0343 32.2373 28.9021 32.2586 28.7733C32.2799 28.6445 32.3409 28.5256 32.4333 28.4333C32.5256 28.3409 32.6445 28.2799 32.7733 28.2586C32.9021 28.2373 33.0343 28.2568 33.1514 28.3145C33.2685 28.3722 33.3646 28.4651 33.4262 28.5802C33.4878 28.6953 33.5119 28.8268 33.4949 28.9563C33.4771 29.0929 33.4146 29.2197 33.3171 29.3171C33.2197 29.4146 33.0929 29.4771 32.9563 29.4949Z" fill="#1492EF"/>
<path d="M32.9563 26.3699C32.8268 26.3869 32.6953 26.3628 32.5802 26.3012C32.4651 26.2396 32.3722 26.1435 32.3145 26.0264C32.2568 25.9093 32.2373 25.7771 32.2586 25.6483C32.2799 25.5195 32.3409 25.4006 32.4333 25.3083C32.5256 25.2159 32.6445 25.1549 32.7733 25.1336C32.9021 25.1123 33.0343 25.1318 33.1514 25.1895C33.2685 25.2472 33.3646 25.3401 33.4262 25.4552C33.4878 25.5703 33.5119 25.7018 33.4949 25.8313C33.4771 25.9679 33.4146 26.0947 33.3171 26.1921C33.2197 26.2896 33.0929 26.3521 32.9563 26.3699Z" fill="#1492EF"/>
<path d="M36.0812 38.8699C35.9518 38.8869 35.8203 38.8628 35.7052 38.8012C35.5901 38.7396 35.4972 38.6435 35.4395 38.5264C35.3818 38.4093 35.3623 38.2771 35.3836 38.1483C35.4049 38.0195 35.4659 37.9006 35.5583 37.8083C35.6506 37.7159 35.7695 37.6549 35.8983 37.6336C36.0271 37.6123 36.1593 37.6318 36.2764 37.6895C36.3935 37.7472 36.4896 37.8401 36.5512 37.9552C36.6128 38.0703 36.6369 38.2018 36.6199 38.3312C36.6021 38.4679 36.5396 38.5947 36.4421 38.6921C36.3447 38.7896 36.2179 38.8521 36.0812 38.8699Z" fill="#1492EF"/>
<path d="M36.0812 35.7449C35.9518 35.7619 35.8203 35.7378 35.7052 35.6762C35.5901 35.6146 35.4972 35.5185 35.4395 35.4014C35.3818 35.2843 35.3623 35.1521 35.3836 35.0233C35.4049 34.8945 35.4659 34.7756 35.5583 34.6833C35.6506 34.5909 35.7695 34.5299 35.8983 34.5086C36.0271 34.4873 36.1593 34.5068 36.2764 34.5645C36.3935 34.6222 36.4896 34.7151 36.5512 34.8302C36.6128 34.9453 36.6369 35.0768 36.6199 35.2062C36.6021 35.3429 36.5396 35.4697 36.4421 35.5671C36.3447 35.6646 36.2179 35.7271 36.0812 35.7449Z" fill="#1492EF"/>
<path d="M36.0812 32.6199C35.9518 32.6369 35.8203 32.6128 35.7052 32.5512C35.5901 32.4896 35.4972 32.3935 35.4395 32.2764C35.3818 32.1593 35.3623 32.0271 35.3836 31.8983C35.4049 31.7695 35.4659 31.6506 35.5583 31.5583C35.6506 31.4659 35.7695 31.4049 35.8983 31.3836C36.0271 31.3623 36.1593 31.3818 36.2764 31.4395C36.3935 31.4972 36.4896 31.5901 36.5512 31.7052C36.6128 31.8203 36.6369 31.9518 36.6199 32.0812C36.6021 32.2179 36.5396 32.3447 36.4421 32.4421C36.3447 32.5396 36.2179 32.6021 36.0812 32.6199Z" fill="#1492EF"/>
<path d="M36.4428 29.3174C36.6861 29.0741 36.6851 28.6786 36.4406 28.4341C36.196 28.1896 35.8005 28.1886 35.5572 28.4319C35.3139 28.6752 35.3149 29.0707 35.5594 29.3152C35.804 29.5598 36.1995 29.5608 36.4428 29.3174Z" fill="#1492EF"/>
<path d="M36.0812 26.3699C35.9518 26.3869 35.8203 26.3628 35.7052 26.3012C35.5901 26.2396 35.4972 26.1435 35.4395 26.0264C35.3818 25.9093 35.3623 25.7771 35.3836 25.6483C35.4049 25.5195 35.4659 25.4006 35.5583 25.3083C35.6506 25.2159 35.7695 25.1549 35.8983 25.1336C36.0271 25.1123 36.1593 25.1318 36.2764 25.1895C36.3935 25.2472 36.4896 25.3401 36.5512 25.4552C36.6128 25.5703 36.6369 25.7018 36.6199 25.8313C36.6021 25.9679 36.5396 26.0947 36.4421 26.1921C36.3447 26.2896 36.2179 26.3521 36.0812 26.3699Z" fill="#1492EF"/>
<path d="M41.625 37.625C41.5014 37.625 41.3805 37.6617 41.2778 37.7303C41.175 37.799 41.0949 37.8966 41.0476 38.0108C41.0003 38.125 40.9879 38.2507 41.012 38.3719C41.0361 38.4932 41.0956 38.6045 41.1831 38.6919C41.2705 38.7794 41.3818 38.8389 41.5031 38.863C41.6243 38.8871 41.75 38.8747 41.8642 38.8274C41.9784 38.7801 42.076 38.7 42.1447 38.5972C42.2133 38.4945 42.25 38.3736 42.25 38.25C42.25 38.0842 42.1842 37.9253 42.0669 37.8081C41.9497 37.6908 41.7908 37.625 41.625 37.625Z" fill="#1492EF"/>
<path d="M41.625 34.5C41.5014 34.5 41.3805 34.5367 41.2778 34.6053C41.175 34.674 41.0949 34.7716 41.0476 34.8858C41.0003 35 40.9879 35.1257 41.012 35.2469C41.0361 35.3682 41.0956 35.4795 41.1831 35.5669C41.2705 35.6544 41.3818 35.7139 41.5031 35.738C41.6243 35.7621 41.75 35.7497 41.8642 35.7024C41.9784 35.6551 42.076 35.575 42.1447 35.4722C42.2133 35.3695 42.25 35.2486 42.25 35.125C42.25 34.9592 42.1842 34.8003 42.0669 34.6831C41.9497 34.5658 41.7908 34.5 41.625 34.5Z" fill="#1492EF"/>
<path d="M41.625 31.375C41.5014 31.375 41.3805 31.4117 41.2778 31.4803C41.175 31.549 41.0949 31.6466 41.0476 31.7608C41.0003 31.875 40.9879 32.0007 41.012 32.1219C41.0361 32.2432 41.0956 32.3545 41.1831 32.4419C41.2705 32.5294 41.3818 32.5889 41.5031 32.613C41.6243 32.6371 41.75 32.6247 41.8642 32.5774C41.9784 32.5301 42.076 32.45 42.1447 32.3472C42.2133 32.2445 42.25 32.1236 42.25 32C42.25 31.8342 42.1842 31.6753 42.0669 31.5581C41.9497 31.4408 41.7908 31.375 41.625 31.375Z" fill="#1492EF"/>
<path d="M39.125 37.625C39.0014 37.625 38.8805 37.6617 38.7778 37.7303C38.675 37.799 38.5949 37.8966 38.5476 38.0108C38.5003 38.125 38.4879 38.2507 38.512 38.3719C38.5361 38.4932 38.5956 38.6045 38.6831 38.6919C38.7705 38.7794 38.8818 38.8389 39.0031 38.863C39.1243 38.8871 39.25 38.8747 39.3642 38.8274C39.4784 38.7801 39.576 38.7 39.6447 38.5972C39.7133 38.4945 39.75 38.3736 39.75 38.25C39.75 38.0842 39.6842 37.9253 39.5669 37.8081C39.4497 37.6908 39.2908 37.625 39.125 37.625Z" fill="#1492EF"/>
<path d="M39.125 34.5C39.0014 34.5 38.8805 34.5367 38.7778 34.6053C38.675 34.674 38.5949 34.7716 38.5476 34.8858C38.5003 35 38.4879 35.1257 38.512 35.2469C38.5361 35.3682 38.5956 35.4795 38.6831 35.5669C38.7705 35.6544 38.8818 35.7139 39.0031 35.738C39.1243 35.7621 39.25 35.7497 39.3642 35.7024C39.4784 35.6551 39.576 35.575 39.6447 35.4722C39.7133 35.3695 39.75 35.2486 39.75 35.125C39.75 34.9592 39.6842 34.8003 39.5669 34.6831C39.4497 34.5658 39.2908 34.5 39.125 34.5Z" fill="#1492EF"/>
<path d="M39.125 31.375C39.0014 31.375 38.8805 31.4117 38.7778 31.4803C38.675 31.549 38.5949 31.6466 38.5476 31.7608C38.5003 31.875 38.4879 32.0007 38.512 32.1219C38.5361 32.2432 38.5956 32.3545 38.6831 32.4419C38.7705 32.5294 38.8818 32.5889 39.0031 32.613C39.1243 32.6371 39.25 32.6247 39.3642 32.5774C39.4784 32.5301 39.576 32.45 39.6447 32.3472C39.7133 32.2445 39.75 32.1236 39.75 32C39.75 31.8342 39.6842 31.6753 39.5669 31.5581C39.4497 31.4408 39.2908 31.375 39.125 31.375Z" fill="#1492EF"/>
</g>
<defs>
<filter id="filter0_d_1462_13619" x="-4" y="0" width="80" height="80" filterUnits="userSpaceOnUse" color-interpolation-filters="sRGB">
<feFlood flood-opacity="0" result="BackgroundImageFix"/>
<feColorMatrix in="SourceAlpha" type="matrix" values="0 0 0 0 0 0 0 0 0 0 0 0 0 0 0 0 0 0 127 0" result="hardAlpha"/>
<feOffset dy="8"/>
<feGaussianBlur stdDeviation="8"/>
<feComposite in2="hardAlpha" operator="out"/>
<feColorMatrix type="matrix" values="0 0 0 0 0.201367 0 0 0 0 0.374404 0 0 0 0 1 0 0 0 0.1 0"/>
<feBlend mode="normal" in2="BackgroundImageFix" result="effect1_dropShadow_1462_13619"/>
<feBlend mode="normal" in="SourceGraphic" in2="effect1_dropShadow_1462_13619" result="shape"/>
</filter>
</defs>
</svg>
