<svg width="140" height="14" viewBox="0 0 140 14" fill="none" xmlns="http://www.w3.org/2000/svg">
<path d="M0.494 13V0.399999H3.41V13H0.494ZM6.04025 13V0.399999H8.45225L13.8163 9.292H12.5383L17.8123 0.399999H20.2063L20.2423 13H17.5063L17.4883 4.594H17.9923L13.7803 11.668H12.4663L8.16425 4.594H8.77625V13H6.04025ZM22.8717 13V0.399999H28.3257C29.4537 0.399999 30.4257 0.585999 31.2417 0.957999C32.0577 1.318 32.6877 1.84 33.1317 2.524C33.5757 3.208 33.7977 4.024 33.7977 4.972C33.7977 5.908 33.5757 6.718 33.1317 7.402C32.6877 8.086 32.0577 8.614 31.2417 8.986C30.4257 9.346 29.4537 9.526 28.3257 9.526H24.4917L25.7877 8.212V13H22.8717ZM25.7877 8.536L24.4917 7.15H28.1637C29.0637 7.15 29.7357 6.958 30.1797 6.574C30.6237 6.19 30.8457 5.656 30.8457 4.972C30.8457 4.276 30.6237 3.736 30.1797 3.352C29.7357 2.968 29.0637 2.776 28.1637 2.776H24.4917L25.7877 1.39V8.536ZM33.2307 13L38.8467 0.399999H41.7267L47.3607 13H44.3007L39.6927 1.876H40.8447L36.2187 13H33.2307ZM36.0387 10.3L36.8127 8.086H43.2927L44.0847 10.3H36.0387ZM50.9179 10.12L50.7559 6.754L56.7859 0.399999H60.0259L54.5899 6.25L52.9699 7.978L50.9179 10.12ZM48.3079 13V0.399999H51.2059V13H48.3079ZM56.9299 13L52.4479 7.51L54.3559 5.44L60.3319 13H56.9299ZM63.0208 13V2.776H58.9888V0.399999H69.9688V2.776H65.9368V13H63.0208ZM73.8597 5.476H79.9257V7.744H73.8597V5.476ZM74.0757 10.66H80.9337V13H71.1777V0.399999H80.6997V2.74H74.0757V10.66ZM82.8939 13V0.399999H88.3479C89.4759 0.399999 90.4479 0.585999 91.2639 0.957999C92.0799 1.318 92.7099 1.84 93.1539 2.524C93.5979 3.208 93.8199 4.024 93.8199 4.972C93.8199 5.908 93.5979 6.718 93.1539 7.402C92.7099 8.074 92.0799 8.59 91.2639 8.95C90.4479 9.31 89.4759 9.49 88.3479 9.49H84.5139L85.8099 8.212V13H82.8939ZM90.9039 13L87.7539 8.428H90.8679L94.0539 13H90.9039ZM85.8099 8.536L84.5139 7.168H88.1859C89.0859 7.168 89.7579 6.976 90.2019 6.592C90.6459 6.196 90.8679 5.656 90.8679 4.972C90.8679 4.276 90.6459 3.736 90.2019 3.352C89.7579 2.968 89.0859 2.776 88.1859 2.776H84.5139L85.8099 1.39V8.536Z" fill="#7C7C7C"/>
<path d="M100.508 13V0.399999H105.962C107.09 0.399999 108.062 0.585999 108.878 0.957999C109.694 1.318 110.324 1.84 110.768 2.524C111.212 3.208 111.434 4.024 111.434 4.972C111.434 5.908 111.212 6.718 110.768 7.402C110.324 8.086 109.694 8.614 108.878 8.986C108.062 9.346 107.09 9.526 105.962 9.526H102.128L103.424 8.212V13H100.508ZM103.424 8.536L102.128 7.15H105.8C106.7 7.15 107.372 6.958 107.816 6.574C108.26 6.19 108.482 5.656 108.482 4.972C108.482 4.276 108.26 3.736 107.816 3.352C107.372 2.968 106.7 2.776 105.8 2.776H102.128L103.424 1.39V8.536ZM113.156 13V0.399999H118.61C119.738 0.399999 120.71 0.585999 121.526 0.957999C122.342 1.318 122.972 1.84 123.416 2.524C123.86 3.208 124.082 4.024 124.082 4.972C124.082 5.908 123.86 6.718 123.416 7.402C122.972 8.074 122.342 8.59 121.526 8.95C120.71 9.31 119.738 9.49 118.61 9.49H114.776L116.072 8.212V13H113.156ZM121.166 13L118.016 8.428H121.13L124.316 13H121.166ZM116.072 8.536L114.776 7.168H118.448C119.348 7.168 120.02 6.976 120.464 6.592C120.908 6.196 121.13 5.656 121.13 4.972C121.13 4.276 120.908 3.736 120.464 3.352C120.02 2.968 119.348 2.776 118.448 2.776H114.776L116.072 1.39V8.536ZM132.152 13.216C131.156 13.216 130.232 13.054 129.38 12.73C128.54 12.406 127.808 11.95 127.184 11.362C126.572 10.774 126.092 10.084 125.744 9.292C125.408 8.5 125.24 7.636 125.24 6.7C125.24 5.764 125.408 4.9 125.744 4.108C126.092 3.316 126.578 2.626 127.202 2.038C127.826 1.45 128.558 0.993999 129.398 0.669999C130.238 0.345999 131.15 0.184 132.134 0.184C133.13 0.184 134.042 0.345999 134.87 0.669999C135.71 0.993999 136.436 1.45 137.048 2.038C137.672 2.626 138.158 3.316 138.506 4.108C138.854 4.888 139.028 5.752 139.028 6.7C139.028 7.636 138.854 8.506 138.506 9.31C138.158 10.102 137.672 10.792 137.048 11.38C136.436 11.956 135.71 12.406 134.87 12.73C134.042 13.054 133.136 13.216 132.152 13.216ZM132.134 10.732C132.698 10.732 133.214 10.636 133.682 10.444C134.162 10.252 134.582 9.976 134.942 9.616C135.302 9.256 135.578 8.83 135.77 8.338C135.974 7.846 136.076 7.3 136.076 6.7C136.076 6.1 135.974 5.554 135.77 5.062C135.578 4.57 135.302 4.144 134.942 3.784C134.594 3.424 134.18 3.148 133.7 2.956C133.22 2.764 132.698 2.668 132.134 2.668C131.57 2.668 131.048 2.764 130.568 2.956C130.1 3.148 129.686 3.424 129.326 3.784C128.966 4.144 128.684 4.57 128.48 5.062C128.288 5.554 128.192 6.1 128.192 6.7C128.192 7.288 128.288 7.834 128.48 8.338C128.684 8.83 128.96 9.256 129.308 9.616C129.668 9.976 130.088 10.252 130.568 10.444C131.048 10.636 131.57 10.732 132.134 10.732Z" fill="#1492EF"/>
</svg>
