<svg width="121" height="38" viewBox="0 0 121 38" fill="none" xmlns="http://www.w3.org/2000/svg">
<path d="M1.26 12V3.6H4.536C5.272 3.6 5.9 3.716 6.42 3.948C6.94 4.18 7.34 4.516 7.62 4.956C7.9 5.396 8.04 5.92 8.04 6.528C8.04 7.136 7.9 7.66 7.62 8.1C7.34 8.532 6.94 8.868 6.42 9.108C5.9 9.34 5.272 9.456 4.536 9.456H1.92L2.46 8.892V12H1.26ZM2.46 9.012L1.92 8.412H4.5C5.268 8.412 5.848 8.248 6.24 7.92C6.64 7.592 6.84 7.128 6.84 6.528C6.84 5.928 6.64 5.464 6.24 5.136C5.848 4.808 5.268 4.644 4.5 4.644H1.92L2.46 4.044V9.012ZM9.2895 12V5.64H10.3935V7.368L10.2855 6.936C10.4615 6.496 10.7575 6.16 11.1735 5.928C11.5895 5.696 12.1015 5.58 12.7095 5.58V6.696C12.6615 6.688 12.6135 6.684 12.5655 6.684C12.5255 6.684 12.4855 6.684 12.4455 6.684C11.8295 6.684 11.3415 6.868 10.9815 7.236C10.6215 7.604 10.4415 8.136 10.4415 8.832V12H9.2895ZM16.6628 12.072C15.9828 12.072 15.3828 11.932 14.8628 11.652C14.3508 11.372 13.9508 10.988 13.6628 10.5C13.3828 10.012 13.2428 9.452 13.2428 8.82C13.2428 8.188 13.3788 7.628 13.6508 7.14C13.9308 6.652 14.3108 6.272 14.7908 6C15.2788 5.72 15.8268 5.58 16.4348 5.58C17.0508 5.58 17.5948 5.716 18.0668 5.988C18.5388 6.26 18.9068 6.644 19.1708 7.14C19.4428 7.628 19.5788 8.2 19.5788 8.856C19.5788 8.904 19.5748 8.96 19.5668 9.024C19.5668 9.088 19.5628 9.148 19.5548 9.204H14.1428V8.376H18.9548L18.4868 8.664C18.4948 8.256 18.4108 7.892 18.2348 7.572C18.0588 7.252 17.8148 7.004 17.5028 6.828C17.1988 6.644 16.8428 6.552 16.4348 6.552C16.0348 6.552 15.6788 6.644 15.3668 6.828C15.0548 7.004 14.8108 7.256 14.6348 7.584C14.4588 7.904 14.3708 8.272 14.3708 8.688V8.88C14.3708 9.304 14.4668 9.684 14.6588 10.02C14.8588 10.348 15.1348 10.604 15.4868 10.788C15.8388 10.972 16.2428 11.064 16.6988 11.064C17.0748 11.064 17.4148 11 17.7188 10.872C18.0308 10.744 18.3028 10.552 18.5348 10.296L19.1708 11.04C18.8828 11.376 18.5228 11.632 18.0908 11.808C17.6668 11.984 17.1908 12.072 16.6628 12.072ZM24.3104 12.072C23.7824 12.072 23.2984 11.952 22.8584 11.712C22.4264 11.464 22.0784 11.1 21.8144 10.62C21.5584 10.14 21.4304 9.54 21.4304 8.82C21.4304 8.1 21.5544 7.5 21.8024 7.02C22.0584 6.54 22.4024 6.18 22.8344 5.94C23.2744 5.7 23.7664 5.58 24.3104 5.58C24.9344 5.58 25.4864 5.716 25.9664 5.988C26.4464 6.26 26.8264 6.64 27.1064 7.128C27.3864 7.608 27.5264 8.172 27.5264 8.82C27.5264 9.468 27.3864 10.036 27.1064 10.524C26.8264 11.012 26.4464 11.392 25.9664 11.664C25.4864 11.936 24.9344 12.072 24.3104 12.072ZM20.9384 14.328V5.64H22.0424V7.356L21.9704 8.832L22.0904 10.308V14.328H20.9384ZM24.2144 11.064C24.6224 11.064 24.9864 10.972 25.3064 10.788C25.6344 10.604 25.8904 10.344 26.0744 10.008C26.2664 9.664 26.3624 9.268 26.3624 8.82C26.3624 8.364 26.2664 7.972 26.0744 7.644C25.8904 7.308 25.6344 7.048 25.3064 6.864C24.9864 6.68 24.6224 6.588 24.2144 6.588C23.8144 6.588 23.4504 6.68 23.1224 6.864C22.8024 7.048 22.5464 7.308 22.3544 7.644C22.1704 7.972 22.0784 8.364 22.0784 8.82C22.0784 9.268 22.1704 9.664 22.3544 10.008C22.5464 10.344 22.8024 10.604 23.1224 10.788C23.4504 10.972 23.8144 11.064 24.2144 11.064ZM32.7675 12V10.656L32.7075 10.404V8.112C32.7075 7.624 32.5635 7.248 32.2755 6.984C31.9955 6.712 31.5715 6.576 31.0035 6.576C30.6275 6.576 30.2595 6.64 29.8995 6.768C29.5395 6.888 29.2355 7.052 28.9875 7.26L28.5075 6.396C28.8355 6.132 29.2275 5.932 29.6835 5.796C30.1475 5.652 30.6315 5.58 31.1355 5.58C32.0075 5.58 32.6795 5.792 33.1515 6.216C33.6235 6.64 33.8595 7.288 33.8595 8.16V12H32.7675ZM30.6795 12.072C30.2075 12.072 29.7915 11.992 29.4315 11.832C29.0795 11.672 28.8075 11.452 28.6155 11.172C28.4235 10.884 28.3275 10.56 28.3275 10.2C28.3275 9.856 28.4075 9.544 28.5675 9.264C28.7355 8.984 29.0035 8.76 29.3715 8.592C29.7475 8.424 30.2515 8.34 30.8835 8.34H32.8995V9.168H30.9315C30.3555 9.168 29.9675 9.264 29.7675 9.456C29.5675 9.648 29.4675 9.88 29.4675 10.152C29.4675 10.464 29.5915 10.716 29.8395 10.908C30.0875 11.092 30.4315 11.184 30.8715 11.184C31.3035 11.184 31.6795 11.088 31.9995 10.896C32.3275 10.704 32.5635 10.424 32.7075 10.056L32.9355 10.848C32.7835 11.224 32.5155 11.524 32.1315 11.748C31.7475 11.964 31.2635 12.072 30.6795 12.072ZM35.7514 12V5.64H36.8554V7.368L36.7474 6.936C36.9234 6.496 37.2194 6.16 37.6354 5.928C38.0514 5.696 38.5634 5.58 39.1714 5.58V6.696C39.1234 6.688 39.0754 6.684 39.0274 6.684C38.9874 6.684 38.9474 6.684 38.9074 6.684C38.2914 6.684 37.8034 6.868 37.4434 7.236C37.0834 7.604 36.9034 8.136 36.9034 8.832V12H35.7514ZM43.1246 12.072C42.4446 12.072 41.8446 11.932 41.3246 11.652C40.8126 11.372 40.4126 10.988 40.1246 10.5C39.8446 10.012 39.7046 9.452 39.7046 8.82C39.7046 8.188 39.8406 7.628 40.1126 7.14C40.3926 6.652 40.7726 6.272 41.2526 6C41.7406 5.72 42.2886 5.58 42.8966 5.58C43.5126 5.58 44.0566 5.716 44.5286 5.988C45.0006 6.26 45.3686 6.644 45.6326 7.14C45.9046 7.628 46.0406 8.2 46.0406 8.856C46.0406 8.904 46.0366 8.96 46.0286 9.024C46.0286 9.088 46.0246 9.148 46.0166 9.204H40.6046V8.376H45.4166L44.9486 8.664C44.9566 8.256 44.8726 7.892 44.6966 7.572C44.5206 7.252 44.2766 7.004 43.9646 6.828C43.6606 6.644 43.3046 6.552 42.8966 6.552C42.4966 6.552 42.1406 6.644 41.8286 6.828C41.5166 7.004 41.2726 7.256 41.0966 7.584C40.9206 7.904 40.8326 8.272 40.8326 8.688V8.88C40.8326 9.304 40.9286 9.684 41.1206 10.02C41.3206 10.348 41.5966 10.604 41.9486 10.788C42.3006 10.972 42.7046 11.064 43.1606 11.064C43.5366 11.064 43.8766 11 44.1806 10.872C44.4926 10.744 44.7646 10.552 44.9966 10.296L45.6326 11.04C45.3446 11.376 44.9846 11.632 44.5526 11.808C44.1286 11.984 43.6526 12.072 43.1246 12.072ZM50.0283 12.072C49.4123 12.072 48.8603 11.936 48.3723 11.664C47.8923 11.392 47.5123 11.012 47.2323 10.524C46.9523 10.036 46.8123 9.468 46.8123 8.82C46.8123 8.172 46.9523 7.608 47.2323 7.128C47.5123 6.64 47.8923 6.26 48.3723 5.988C48.8603 5.716 49.4123 5.58 50.0283 5.58C50.5643 5.58 51.0483 5.7 51.4803 5.94C51.9123 6.18 52.2563 6.54 52.5123 7.02C52.7763 7.5 52.9083 8.1 52.9083 8.82C52.9083 9.54 52.7803 10.14 52.5243 10.62C52.2763 11.1 51.9363 11.464 51.5043 11.712C51.0723 11.952 50.5803 12.072 50.0283 12.072ZM50.1243 11.064C50.5243 11.064 50.8843 10.972 51.2043 10.788C51.5323 10.604 51.7883 10.344 51.9723 10.008C52.1643 9.664 52.2603 9.268 52.2603 8.82C52.2603 8.364 52.1643 7.972 51.9723 7.644C51.7883 7.308 51.5323 7.048 51.2043 6.864C50.8843 6.68 50.5243 6.588 50.1243 6.588C49.7163 6.588 49.3523 6.68 49.0323 6.864C48.7123 7.048 48.4563 7.308 48.2643 7.644C48.0723 7.972 47.9763 8.364 47.9763 8.82C47.9763 9.268 48.0723 9.664 48.2643 10.008C48.4563 10.344 48.7123 10.604 49.0323 10.788C49.3523 10.972 49.7163 11.064 50.1243 11.064ZM52.2963 12V10.284L52.3683 8.808L52.2483 7.332V3.096H53.4003V12H52.2963ZM58.4906 12V3.6H62.2586C63.2266 3.6 63.9706 3.796 64.4906 4.188C65.0106 4.572 65.2706 5.1 65.2706 5.772C65.2706 6.228 65.1666 6.612 64.9586 6.924C64.7586 7.236 64.4866 7.476 64.1426 7.644C63.7986 7.812 63.4266 7.896 63.0266 7.896L63.2426 7.536C63.7226 7.536 64.1466 7.62 64.5146 7.788C64.8826 7.956 65.1746 8.204 65.3906 8.532C65.6066 8.852 65.7146 9.252 65.7146 9.732C65.7146 10.452 65.4426 11.012 64.8986 11.412C64.3626 11.804 63.5626 12 62.4986 12H58.4906ZM59.6906 11.028H62.4506C63.1146 11.028 63.6226 10.916 63.9746 10.692C64.3266 10.468 64.5026 10.116 64.5026 9.636C64.5026 9.148 64.3266 8.792 63.9746 8.568C63.6226 8.344 63.1146 8.232 62.4506 8.232H59.5826V7.26H62.1506C62.7586 7.26 63.2306 7.148 63.5666 6.924C63.9026 6.7 64.0706 6.364 64.0706 5.916C64.0706 5.468 63.9026 5.132 63.5666 4.908C63.2306 4.684 62.7586 4.572 62.1506 4.572H59.6906V11.028ZM67.4407 14.4C67.1367 14.4 66.8407 14.348 66.5527 14.244C66.2647 14.148 66.0167 14.004 65.8087 13.812L66.3007 12.948C66.4607 13.1 66.6367 13.216 66.8287 13.296C67.0207 13.376 67.2247 13.416 67.4407 13.416C67.7207 13.416 67.9527 13.344 68.1367 13.2C68.3207 13.056 68.4927 12.8 68.6527 12.432L69.0487 11.556L69.1687 11.412L71.6647 5.64H72.7927L69.7087 12.636C69.5247 13.084 69.3167 13.436 69.0847 13.692C68.8607 13.948 68.6127 14.128 68.3407 14.232C68.0687 14.344 67.7687 14.4 67.4407 14.4ZM68.9527 12.204L66.0487 5.64H67.2487L69.7207 11.304L68.9527 12.204ZM76.8864 7.224C76.6624 7.224 76.4704 7.148 76.3104 6.996C76.1504 6.836 76.0704 6.636 76.0704 6.396C76.0704 6.156 76.1504 5.96 76.3104 5.808C76.4704 5.656 76.6624 5.58 76.8864 5.58C77.1024 5.58 77.2864 5.656 77.4384 5.808C77.5984 5.96 77.6784 6.156 77.6784 6.396C77.6784 6.636 77.5984 6.836 77.4384 6.996C77.2864 7.148 77.1024 7.224 76.8864 7.224ZM76.8864 12.072C76.6624 12.072 76.4704 11.996 76.3104 11.844C76.1504 11.684 76.0704 11.484 76.0704 11.244C76.0704 11.004 76.1504 10.808 76.3104 10.656C76.4704 10.504 76.6624 10.428 76.8864 10.428C77.1024 10.428 77.2864 10.504 77.4384 10.656C77.5984 10.808 77.6784 11.004 77.6784 11.244C77.6784 11.484 77.5984 11.684 77.4384 11.844C77.2864 11.996 77.1024 12.072 76.8864 12.072Z" fill="#7C7C7C"/>
<path d="M1.162 37V27.2H3.43V37H1.162ZM5.47575 37V27.2H7.35175L11.5238 34.116H10.5298L14.6318 27.2H16.4938L16.5218 37H14.3938L14.3798 30.462H14.7718L11.4957 35.964H10.4738L7.12775 30.462H7.60375V37H5.47575ZM18.5668 37V27.2H22.8088C23.6862 27.2 24.4422 27.3447 25.0768 27.634C25.7115 27.914 26.2015 28.32 26.5468 28.852C26.8922 29.384 27.0648 30.0187 27.0648 30.756C27.0648 31.484 26.8922 32.114 26.5468 32.646C26.2015 33.178 25.7115 33.5887 25.0768 33.878C24.4422 34.158 23.6862 34.298 22.8088 34.298H19.8268L20.8348 33.276V37H18.5668ZM20.8348 33.528L19.8268 32.45H22.6828C23.3828 32.45 23.9055 32.3007 24.2508 32.002C24.5962 31.7033 24.7688 31.288 24.7688 30.756C24.7688 30.2147 24.5962 29.7947 24.2508 29.496C23.9055 29.1973 23.3828 29.048 22.6828 29.048H19.8268L20.8348 27.97V33.528ZM26.6238 37L30.9918 27.2H33.2318L37.6138 37H35.2338L31.6498 28.348H32.5458L28.9478 37H26.6238ZM28.8078 34.9L29.4098 33.178H34.4498L35.0658 34.9H28.8078ZM40.3806 34.76L40.2546 32.142L44.9446 27.2H47.4646L43.2366 31.75L41.9766 33.094L40.3806 34.76ZM38.3506 37V27.2H40.6046V37H38.3506ZM45.0566 37L41.5706 32.73L43.0546 31.12L47.7026 37H45.0566ZM49.794 37V29.048H46.658V27.2H55.198V29.048H52.062V37H49.794ZM58.2242 31.148H62.9422V32.912H58.2242V31.148ZM58.3922 35.18H63.7262V37H56.1382V27.2H63.5443V29.02H58.3922V35.18ZM65.2508 37V27.2H69.4928C70.3702 27.2 71.1262 27.3447 71.7608 27.634C72.3955 27.914 72.8855 28.32 73.2308 28.852C73.5762 29.384 73.7488 30.0187 73.7488 30.756C73.7488 31.484 73.5762 32.114 73.2308 32.646C72.8855 33.1687 72.3955 33.57 71.7608 33.85C71.1262 34.13 70.3702 34.27 69.4928 34.27H66.5108L67.5188 33.276V37H65.2508ZM71.4808 37L69.0308 33.444H71.4528L73.9308 37H71.4808ZM67.5188 33.528L66.5108 32.464H69.3668C70.0668 32.464 70.5895 32.3147 70.9348 32.016C71.2802 31.708 71.4528 31.288 71.4528 30.756C71.4528 30.2147 71.2802 29.7947 70.9348 29.496C70.5895 29.1973 70.0668 29.048 69.3668 29.048H66.5108L67.5188 27.97V33.528Z" fill="#1D2029"/>
<path d="M78.9506 37V27.2H83.1926C84.0699 27.2 84.8259 27.3447 85.4606 27.634C86.0953 27.914 86.5853 28.32 86.9306 28.852C87.2759 29.384 87.4486 30.0187 87.4486 30.756C87.4486 31.484 87.2759 32.114 86.9306 32.646C86.5853 33.178 86.0953 33.5887 85.4606 33.878C84.8259 34.158 84.0699 34.298 83.1926 34.298H80.2106L81.2186 33.276V37H78.9506ZM81.2186 33.528L80.2106 32.45H83.0666C83.7666 32.45 84.2893 32.3007 84.6346 32.002C84.9799 31.7033 85.1526 31.288 85.1526 30.756C85.1526 30.2147 84.9799 29.7947 84.6346 29.496C84.2893 29.1973 83.7666 29.048 83.0666 29.048H80.2106L81.2186 27.97V33.528ZM88.7878 37V27.2H93.0298C93.9071 27.2 94.6631 27.3447 95.2978 27.634C95.9324 27.914 96.4224 28.32 96.7678 28.852C97.1131 29.384 97.2858 30.0187 97.2858 30.756C97.2858 31.484 97.1131 32.114 96.7678 32.646C96.4224 33.1687 95.9324 33.57 95.2978 33.85C94.6631 34.13 93.9071 34.27 93.0298 34.27H90.0478L91.0558 33.276V37H88.7878ZM95.0178 37L92.5678 33.444H94.9898L97.4678 37H95.0178ZM91.0558 33.528L90.0478 32.464H92.9038C93.6038 32.464 94.1264 32.3147 94.4718 32.016C94.8171 31.708 94.9898 31.288 94.9898 30.756C94.9898 30.2147 94.8171 29.7947 94.4718 29.496C94.1264 29.1973 93.6038 29.048 92.9038 29.048H90.0478L91.0558 27.97V33.528ZM103.563 37.168C102.788 37.168 102.069 37.042 101.407 36.79C100.753 36.538 100.184 36.1833 99.6987 35.726C99.2227 35.2687 98.8494 34.732 98.5787 34.116C98.3174 33.5 98.1867 32.828 98.1867 32.1C98.1867 31.372 98.3174 30.7 98.5787 30.084C98.8494 29.468 99.2274 28.9313 99.7127 28.474C100.198 28.0167 100.767 27.662 101.421 27.41C102.074 27.158 102.783 27.032 103.549 27.032C104.323 27.032 105.033 27.158 105.677 27.41C106.33 27.662 106.895 28.0167 107.371 28.474C107.856 28.9313 108.234 29.468 108.505 30.084C108.775 30.6907 108.911 31.3627 108.911 32.1C108.911 32.828 108.775 33.5047 108.505 34.13C108.234 34.746 107.856 35.2827 107.371 35.74C106.895 36.188 106.33 36.538 105.677 36.79C105.033 37.042 104.328 37.168 103.563 37.168ZM103.549 35.236C103.987 35.236 104.389 35.1613 104.753 35.012C105.126 34.8627 105.453 34.648 105.733 34.368C106.013 34.088 106.227 33.7567 106.377 33.374C106.535 32.9913 106.615 32.5667 106.615 32.1C106.615 31.6333 106.535 31.2087 106.377 30.826C106.227 30.4433 106.013 30.112 105.733 29.832C105.462 29.552 105.14 29.3373 104.767 29.188C104.393 29.0387 103.987 28.964 103.549 28.964C103.11 28.964 102.704 29.0387 102.331 29.188C101.967 29.3373 101.645 29.552 101.365 29.832C101.085 30.112 100.865 30.4433 100.707 30.826C100.557 31.2087 100.483 31.6333 100.483 32.1C100.483 32.5573 100.557 32.982 100.707 33.374C100.865 33.7567 101.08 34.088 101.351 34.368C101.631 34.648 101.957 34.8627 102.331 35.012C102.704 35.1613 103.11 35.236 103.549 35.236Z" fill="#1492EF"/>
</svg>
