<svg width="20" height="20" viewBox="0 0 20 20" fill="none" xmlns="http://www.w3.org/2000/svg">
<path fill-rule="evenodd" clip-rule="evenodd" d="M4.16669 5.83329C3.94567 5.83329 3.73371 5.92109 3.57743 6.07737C3.42115 6.23365 3.33335 6.44561 3.33335 6.66663V15.8333C3.33335 16.0543 3.42115 16.2663 3.57743 16.4225C3.73371 16.5788 3.94567 16.6666 4.16669 16.6666H13.3334C13.5544 16.6666 13.7663 16.5788 13.9226 16.4225C14.0789 16.2663 14.1667 16.0543 14.1667 15.8333V10.8333C14.1667 10.3731 14.5398 9.99996 15 9.99996C15.4603 9.99996 15.8334 10.3731 15.8334 10.8333V15.8333C15.8334 16.4963 15.57 17.1322 15.1011 17.6011C14.6323 18.0699 13.9964 18.3333 13.3334 18.3333H4.16669C3.50365 18.3333 2.86776 18.0699 2.39892 17.6011C1.93008 17.1322 1.66669 16.4963 1.66669 15.8333V6.66663C1.66669 6.00359 1.93008 5.3677 2.39892 4.89886C2.86776 4.43002 3.50365 4.16663 4.16669 4.16663H9.16669C9.62692 4.16663 10 4.53972 10 4.99996C10 5.4602 9.62692 5.83329 9.16669 5.83329H4.16669Z" fill="#1492EF"/>
<path fill-rule="evenodd" clip-rule="evenodd" d="M11.6667 2.49996C11.6667 2.03972 12.0398 1.66663 12.5 1.66663H17.5C17.9603 1.66663 18.3334 2.03972 18.3334 2.49996V7.49996C18.3334 7.9602 17.9603 8.33329 17.5 8.33329C17.0398 8.33329 16.6667 7.9602 16.6667 7.49996V3.33329H12.5C12.0398 3.33329 11.6667 2.9602 11.6667 2.49996Z" fill="#1492EF"/>
<path fill-rule="evenodd" clip-rule="evenodd" d="M18.0893 1.9107C18.4147 2.23614 18.4147 2.76378 18.0893 3.08922L8.92261 12.2559C8.59717 12.5813 8.06954 12.5813 7.7441 12.2559C7.41866 11.9304 7.41866 11.4028 7.7441 11.0774L16.9108 1.9107C17.2362 1.58527 17.7638 1.58527 18.0893 1.9107Z" fill="#1492EF"/>
</svg>
