<svg width="15" height="16" viewBox="0 0 15 16" fill="none" xmlns="http://www.w3.org/2000/svg">
<path fill-rule="evenodd" clip-rule="evenodd" d="M10.5199 1.59185C9.98912 1.59185 9.48004 1.80272 9.10469 2.17807L2.97802 8.30474C2.35248 8.93027 2.00106 9.77869 2.00106 10.6633C2.00106 11.548 2.35248 12.3964 2.97802 13.0219C3.60356 13.6475 4.45197 13.9989 5.33662 13.9989C6.22126 13.9989 7.06967 13.6475 7.69521 13.0219L13.8219 6.89526C14.0822 6.63491 14.5043 6.63491 14.7647 6.89526C15.025 7.15561 15.025 7.57772 14.7647 7.83807L8.63802 13.9647C7.76243 14.8403 6.57488 15.3322 5.33662 15.3322C4.09835 15.3322 2.9108 14.8403 2.03521 13.9647C1.15962 13.0891 0.667725 11.9016 0.667725 10.6633C0.667725 9.42506 1.15962 8.23751 2.03521 7.36193L8.16188 1.23526C8.78728 0.60986 9.6355 0.258514 10.5199 0.258514C11.4044 0.258514 12.2526 0.60986 12.878 1.23526C13.5034 1.86066 13.8548 2.70888 13.8548 3.59333C13.8548 4.47778 13.5034 5.326 12.878 5.9514L6.74469 12.0781C6.36948 12.4533 5.86058 12.6641 5.32995 12.6641C4.79932 12.6641 4.29042 12.4533 3.91521 12.0781C3.54 11.7029 3.32921 11.194 3.32921 10.6633C3.32921 10.1327 3.54 9.62381 3.91521 9.24859L9.57549 3.59498C9.83599 3.33479 10.2581 3.33503 10.5183 3.59554C10.7785 3.85604 10.7782 4.27815 10.5177 4.53835L4.85802 10.1914C4.73303 10.3165 4.66254 10.4865 4.66254 10.6633C4.66254 10.8403 4.73286 11.0101 4.85802 11.1353C4.98318 11.2604 5.15294 11.3307 5.32995 11.3307C5.50696 11.3307 5.67671 11.2604 5.80188 11.1353L11.9352 5.00859C12.3104 4.63327 12.5214 4.12404 12.5214 3.59333C12.5214 3.0625 12.3106 2.55342 11.9352 2.17807C11.5599 1.80272 11.0508 1.59185 10.5199 1.59185Z" fill="#1492EF"/>
</svg>
