<svg width="28" height="36" viewBox="0 0 28 36" fill="none" xmlns="http://www.w3.org/2000/svg">
<path fill-rule="evenodd" clip-rule="evenodd" d="M26 0C27.1046 0 28 0.89543 28 2V34C28 35.1046 27.1046 36 26 36C24.8954 36 24 35.1046 24 34V2C24 0.89543 24.8954 0 26 0ZM14 12C15.1046 12 16 12.8954 16 14V34C16 35.1046 15.1046 36 14 36C12.8954 36 12 35.1046 12 34V14C12 12.8954 12.8954 12 14 12ZM2 24C3.10457 24 4 24.8954 4 26V34C4 35.1046 3.10457 36 2 36C0.89543 36 0 35.1046 0 34V26C0 24.8954 0.89543 24 2 24Z" fill="#FF9951"/>
</svg>
