<svg width="16" height="16" viewBox="0 0 16 16" fill="none" xmlns="http://www.w3.org/2000/svg">
<path fill-rule="evenodd" clip-rule="evenodd" d="M3.46667 0.933293C3.59257 0.765422 3.79016 0.666626 4 0.666626H12C12.2098 0.666626 12.4074 0.765422 12.5333 0.933293L14.5333 3.59996C14.6199 3.71536 14.6667 3.85571 14.6667 3.99996V13.3333C14.6667 13.8637 14.456 14.3724 14.0809 14.7475C13.7058 15.1226 13.1971 15.3333 12.6667 15.3333H3.33333C2.8029 15.3333 2.29419 15.1226 1.91912 14.7475C1.54405 14.3724 1.33333 13.8637 1.33333 13.3333V3.99996C1.33333 3.85571 1.38012 3.71536 1.46667 3.59996L3.46667 0.933293ZM4.33333 1.99996L2.66667 4.22218V13.3333C2.66667 13.5101 2.73691 13.6797 2.86193 13.8047C2.98695 13.9297 3.15652 14 3.33333 14H12.6667C12.8435 14 13.013 13.9297 13.1381 13.8047C13.2631 13.6797 13.3333 13.5101 13.3333 13.3333V4.22218L11.6667 1.99996H4.33333Z" fill="#1492EF"/>
<path fill-rule="evenodd" clip-rule="evenodd" d="M1.33333 3.99996C1.33333 3.63177 1.63181 3.33329 2 3.33329H14C14.3682 3.33329 14.6667 3.63177 14.6667 3.99996C14.6667 4.36815 14.3682 4.66663 14 4.66663H2C1.63181 4.66663 1.33333 4.36815 1.33333 3.99996Z" fill="#1492EF"/>
<path fill-rule="evenodd" clip-rule="evenodd" d="M5.33333 5.99996C5.70152 5.99996 6 6.29844 6 6.66663C6 7.19706 6.21071 7.70577 6.58579 8.08084C6.96086 8.45591 7.46957 8.66663 8 8.66663C8.53043 8.66663 9.03914 8.45591 9.41422 8.08084C9.78929 7.70577 10 7.19706 10 6.66663C10 6.29844 10.2985 5.99996 10.6667 5.99996C11.0349 5.99996 11.3333 6.29844 11.3333 6.66663C11.3333 7.55068 10.9821 8.39853 10.357 9.02365C9.7319 9.64877 8.88406 9.99996 8 9.99996C7.11595 9.99996 6.2681 9.64877 5.64298 9.02365C5.01786 8.39853 4.66667 7.55068 4.66667 6.66663C4.66667 6.29844 4.96514 5.99996 5.33333 5.99996Z" fill="#1492EF"/>
</svg>
