<svg width="195" height="171" viewBox="0 0 195 171" fill="none" xmlns="http://www.w3.org/2000/svg">
<rect x="56.4745" y="45" width="78.0022" height="80" rx="39.0011" fill="#FAFAFA"/>
<path fill-rule="evenodd" clip-rule="evenodd" d="M88.4911 69C87.2989 69 86.4818 69 85.7525 69.198C84.9977 69.4051 84.2949 69.7687 83.6898 70.2651C83.0846 70.7615 82.5907 71.3797 82.2399 72.0794C81.9021 72.7522 81.7428 73.5544 81.5092 74.7243L80.5864 79.3353C80.4229 80.1436 80.4387 80.9779 80.6326 81.7794C80.8265 82.581 81.1938 83.3303 81.7086 83.9745V88.0601C81.7086 90.7957 81.7086 92.9628 81.9363 94.658C82.1715 96.4024 82.6656 97.8149 83.7789 98.9297C84.8922 100.043 86.3047 100.537 88.0506 100.772C89.7458 101 91.9129 101 94.647 101H96.3036C99.0392 101 101.206 101 102.902 100.772C104.646 100.537 106.058 100.043 107.173 98.9297C108.286 97.8149 108.781 96.4024 109.016 94.658C109.243 92.9613 109.243 90.7957 109.243 88.0601V83.976C109.758 83.3315 110.125 82.5819 110.319 81.78C110.513 80.9782 110.528 80.1437 110.364 79.3353L109.441 74.7243C109.209 73.5544 109.049 72.7522 108.712 72.0794C108.361 71.3795 107.867 70.7613 107.262 70.2649C106.656 69.7684 105.953 69.4049 105.198 69.198C104.47 69 103.653 69 102.459 69H88.4911ZM104.805 86.1163C105.563 86.1176 106.313 85.9668 107.011 85.6727V87.9767C107.011 90.8151 107.008 92.8318 106.803 94.3619C106.602 95.8577 106.224 96.7209 105.594 97.3505C104.964 97.9801 104.101 98.3581 102.602 98.5591C101.842 98.6524 101.079 98.709 100.313 98.7287V94.6268C100.313 93.9719 100.313 93.4063 100.272 92.9449C100.227 92.4538 100.129 91.9686 99.8638 91.5116C99.5702 91.0024 99.1477 90.5794 98.6388 90.2852C98.1819 90.0218 97.6967 89.9235 97.2055 89.8789C96.7441 89.8372 96.1786 89.8372 95.5237 89.8372H95.4269C94.772 89.8372 94.2079 89.8372 93.7451 89.8789C93.2539 89.9235 92.7702 90.0218 92.3132 90.2852C91.8038 90.5792 91.3808 91.0022 91.0868 91.5116C90.8234 91.9686 90.7252 92.4538 90.6805 92.9434C90.6388 93.4078 90.6388 93.9719 90.6388 94.6253V98.7287C89.8725 98.7091 89.1076 98.6525 88.3467 98.5591C86.8509 98.3581 85.9877 97.9801 85.3581 97.3505C84.7285 96.7209 84.3505 95.8577 84.1495 94.3604C83.9426 92.8318 83.9412 90.8151 83.9412 87.9767V85.6727C85.1306 86.1744 86.4557 86.2552 87.6973 85.9018C88.939 85.5483 90.0228 84.7818 90.7698 83.7289C91.3098 84.4704 92.0179 85.0734 92.8359 85.4883C93.654 85.9033 94.5588 86.1185 95.476 86.1163C96.3933 86.1185 97.2981 85.9033 98.1161 85.4883C98.9342 85.0734 99.6423 84.4704 100.182 83.7289C100.705 84.4678 101.398 85.0703 102.203 85.4857C103.007 85.9012 103.9 86.1174 104.805 86.1163ZM92.8714 98.7645C93.4489 98.7664 94.069 98.7674 94.7319 98.7674H96.2202C96.883 98.7674 97.5032 98.7664 98.0807 98.7645V94.6744C98.0807 93.9585 98.0792 93.4956 98.0479 93.1459C98.0182 92.811 97.9661 92.6889 97.9304 92.6279C97.8325 92.4586 97.6919 92.318 97.5226 92.2201C97.4615 92.1844 97.3395 92.1338 97.0046 92.1025C96.4957 92.0715 95.9858 92.0605 95.476 92.0698C94.7601 92.0698 94.2972 92.0698 93.9475 92.1025C93.6111 92.1323 93.4906 92.1844 93.4295 92.2201C93.2597 92.3178 93.1185 92.4584 93.0202 92.6279C92.986 92.6874 92.9339 92.811 92.9041 93.1459C92.8729 93.4956 92.8714 93.9585 92.8714 94.6744V98.7645ZM90.5198 71.2326H88.6563C87.2364 71.2326 86.7438 71.243 86.3449 71.3516C85.8921 71.4758 85.4705 71.6938 85.1074 71.9915C84.7443 72.2892 84.4479 72.6599 84.2373 73.0796C84.0513 73.4502 83.9456 73.9295 83.6673 75.3226L82.7772 79.7728C82.6824 80.2307 82.6819 80.7032 82.7759 81.1612C82.8699 81.6193 83.0563 82.0534 83.3238 82.4369C83.5913 82.8205 83.9342 83.1455 84.3315 83.392C84.7289 83.6385 85.1724 83.8013 85.6348 83.8705C86.0973 83.9398 86.569 83.9139 87.0211 83.7946C87.4733 83.6753 87.8963 83.465 88.2644 83.1766C88.6325 82.8882 88.9379 82.5278 89.1619 82.1173C89.3859 81.7068 89.5238 81.255 89.5672 80.7894L89.6699 79.7684L89.6759 79.7059L90.5198 71.2326ZM91.8906 79.9767L92.7657 71.2326H98.1864L99.0556 79.9276C99.1043 80.4251 99.0488 80.9274 98.8926 81.4022C98.7364 81.8771 98.4829 82.3142 98.1484 82.6856C97.8138 83.0571 97.4055 83.3547 96.9495 83.5596C96.4935 83.7645 95.9998 83.872 95.5 83.8755C95.0001 83.8789 94.505 83.7781 94.0462 83.5795C93.5874 83.3809 93.1751 83.0889 92.8355 82.7221C92.4959 82.3552 92.2365 81.9216 92.0738 81.449C91.9111 80.9763 91.8487 80.4749 91.8906 79.9767ZM104.607 71.3516C104.208 71.243 103.716 71.2326 102.296 71.2326H100.429L101.386 80.7879C101.431 81.2522 101.57 81.7024 101.794 82.1113C102.019 82.5202 102.324 82.8791 102.692 83.1662C103.059 83.4533 103.481 83.6625 103.933 83.7812C104.384 83.8999 104.854 83.9256 105.315 83.8566C105.777 83.7876 106.219 83.6255 106.616 83.38C107.012 83.1346 107.355 82.811 107.622 82.4289C107.89 82.0469 108.077 81.6143 108.172 81.1577C108.267 80.7011 108.268 80.2299 108.175 79.7728L107.286 75.3226C107.006 73.9295 106.901 73.4502 106.716 73.0796C106.506 72.6598 106.209 72.289 105.846 71.9913C105.482 71.6936 105.06 71.4756 104.607 71.3516Z" fill="#1960BB"/>
<line x1="1.09589" y1="-1.09589" x2="3.40487" y2="-1.09589" transform="matrix(-1 0 0 1 63.8306 40)" stroke="#1492EF" stroke-width="2.19178" stroke-linecap="round"/>
<line x1="1.09589" y1="-1.09589" x2="9.76068" y2="-1.09589" transform="matrix(-1 0 0 1 56.1891 40)" stroke="#1492EF" stroke-width="2.19178" stroke-linecap="round"/>
<line x1="1.09589" y1="-1.09589" x2="3.40487" y2="-1.09589" transform="matrix(-1 0 0 1 43.9724 59.726)" stroke="#FFB86B" stroke-width="2.19178" stroke-linecap="round"/>
<line x1="1.09589" y1="-1.09589" x2="9.76068" y2="-1.09589" transform="matrix(-1 0 0 1 36.3311 59.726)" stroke="#FFB86B" stroke-width="2.19178" stroke-linecap="round"/>
<line x1="1.09589" y1="-1.09589" x2="3.40487" y2="-1.09589" transform="matrix(1 0 0 -1 127.474 129.726)" stroke="#1492EF" stroke-width="2.19178" stroke-linecap="round"/>
<line x1="1.09589" y1="-1.09589" x2="9.76068" y2="-1.09589" transform="matrix(1 0 0 -1 135.115 129.726)" stroke="#1492EF" stroke-width="2.19178" stroke-linecap="round"/>
<line x1="1.09589" y1="-1.09589" x2="3.40487" y2="-1.09589" transform="matrix(1 0 0 -1 147.332 110)" stroke="#FFB86B" stroke-width="2.19178" stroke-linecap="round"/>
<line x1="1.09589" y1="-1.09589" x2="9.76068" y2="-1.09589" transform="matrix(1 0 0 -1 154.973 110)" stroke="#FFB86B" stroke-width="2.19178" stroke-linecap="round"/>
<g filter="url(#filter0_d_1134_19927)">
<rect x="142.15" y="9" width="33.5181" height="33.5181" rx="16.759" transform="rotate(15 142.15 9)" fill="url(#paint0_radial_1134_19927)"/>
<path d="M144.758 31.1903L146.369 25.1778L148.477 25.7425L146.866 31.7551L144.758 31.1903ZM147.601 24.7946C147.217 24.6915 146.935 24.5011 146.756 24.2232C146.576 23.9453 146.529 23.6474 146.615 23.3294C146.7 23.0114 146.889 22.7768 147.184 22.6258C147.478 22.4747 147.817 22.4507 148.202 22.5537C148.586 22.6568 148.869 22.8436 149.05 23.114C149.233 23.3771 149.282 23.6677 149.197 23.9857C149.108 24.3185 148.915 24.5641 148.619 24.7226C148.333 24.8756 147.993 24.8996 147.601 24.7946ZM157.483 28.0488C157.949 28.1736 158.337 28.3808 158.648 28.6701C158.969 28.9541 159.18 29.3198 159.282 29.7673C159.391 30.2167 159.363 30.752 159.196 31.3732L158.275 34.8121L156.167 34.2474L156.996 31.1524C157.111 30.7234 157.113 30.391 157.002 30.1551C156.893 29.9119 156.698 29.7526 156.417 29.6773C156.217 29.6238 156.023 29.6233 155.834 29.6758C155.646 29.7284 155.481 29.8426 155.338 30.0185C155.198 30.187 155.086 30.4266 155.003 30.7372L154.204 33.7212L152.096 33.1565L152.925 30.0615C153.04 29.6325 153.042 29.3001 152.931 29.0643C152.829 28.823 152.634 28.6637 152.345 28.5864C152.138 28.5309 151.941 28.5294 151.752 28.582C151.571 28.6365 151.406 28.7507 151.256 28.9247C151.116 29.0932 151.004 29.3327 150.921 29.6433L150.121 32.6274L148.014 32.0626L149.625 26.0501L151.632 26.5881L151.184 28.2632L150.912 27.6792C151.249 27.3097 151.638 27.0692 152.08 26.9578C152.524 26.839 152.983 26.843 153.456 26.9698C153.996 27.1145 154.432 27.3818 154.763 27.7718C155.104 28.1564 155.267 28.6597 155.25 29.2816L154.601 28.9531C154.947 28.5224 155.37 28.2278 155.873 28.0691C156.384 27.905 156.921 27.8982 157.483 28.0488ZM160.244 35.4468C159.889 35.3516 159.621 35.1531 159.44 34.851C159.26 34.549 159.218 34.2168 159.315 33.8544C159.416 33.4772 159.619 33.2104 159.922 33.0539C160.228 32.89 160.558 32.8557 160.913 32.9508C161.268 33.0459 161.537 33.2408 161.719 33.5354C161.904 33.8227 161.945 34.1549 161.844 34.5321C161.747 34.8945 161.545 35.1613 161.238 35.3325C160.93 35.5038 160.599 35.5419 160.244 35.4468Z" fill="white"/>
</g>
<g filter="url(#filter1_d_1134_19927)">
<rect x="19.4745" y="119.504" width="23.9947" height="23.9947" rx="11.9973" transform="rotate(-35.6581 19.4745 119.504)" fill="url(#paint1_radial_1134_19927)"/>
<path d="M32.4403 127.429L29.8426 123.808L31.1118 122.898L33.7095 126.518L32.4403 127.429ZM30.1897 122.952C29.9581 123.118 29.7247 123.188 29.4896 123.161C29.2544 123.134 29.0681 123.025 28.9307 122.834C28.7934 122.642 28.7496 122.431 28.7994 122.199C28.8493 121.968 28.99 121.769 29.2216 121.603C29.4531 121.437 29.6849 121.365 29.9169 121.387C30.1457 121.405 30.3287 121.51 30.4661 121.702C30.6099 121.902 30.6585 122.12 30.6118 122.356C30.5664 122.584 30.4257 122.783 30.1897 122.952ZM36.476 118.958C36.7566 118.757 37.0475 118.636 37.3488 118.595C37.6513 118.547 37.9496 118.596 38.2437 118.742C38.5422 118.886 38.8256 119.144 39.094 119.518L40.5797 121.589L39.3105 122.5L37.9734 120.636C37.788 120.378 37.6049 120.226 37.4238 120.18C37.2396 120.13 37.0628 120.166 36.8936 120.288C36.7734 120.374 36.685 120.481 36.6286 120.609C36.5722 120.737 36.5603 120.881 36.5932 121.039C36.6228 121.194 36.7047 121.364 36.8389 121.551L38.1281 123.348L36.8589 124.259L35.5218 122.395C35.3365 122.137 35.1533 121.985 34.9722 121.939C34.7925 121.886 34.6157 121.922 34.442 122.046C34.3173 122.136 34.2268 122.245 34.1703 122.373C34.1184 122.498 34.1066 122.641 34.1349 122.803C34.1646 122.957 34.2465 123.128 34.3807 123.315L35.6699 125.112L34.4007 126.022L31.8031 122.402L33.0122 121.534L33.7358 122.543L33.2893 122.428C33.2376 122.074 33.2812 121.749 33.4201 121.454C33.5558 121.154 33.7662 120.902 34.0512 120.698C34.3763 120.465 34.722 120.345 35.0883 120.338C35.456 120.324 35.8083 120.463 36.1453 120.754L35.6688 120.964C35.5871 120.577 35.6163 120.209 35.7563 119.859C35.8977 119.501 36.1376 119.201 36.476 118.958ZM41.8247 120.787C41.611 120.94 41.3795 120.998 41.1303 120.961C40.8811 120.924 40.6782 120.797 40.5216 120.578C40.3587 120.351 40.3028 120.118 40.3539 119.879C40.4018 119.636 40.5326 119.437 40.7464 119.284C40.9601 119.131 41.19 119.07 41.436 119.103C41.6788 119.131 41.8817 119.259 42.0447 119.486C42.2012 119.704 42.2572 119.937 42.2124 120.185C42.1677 120.433 42.0385 120.634 41.8247 120.787Z" fill="white"/>
</g>
<defs>
<filter id="filter0_d_1134_19927" x="109.474" y="-3" width="89.0511" height="89.051" filterUnits="userSpaceOnUse" color-interpolation-filters="sRGB">
<feFlood flood-opacity="0" result="BackgroundImageFix"/>
<feColorMatrix in="SourceAlpha" type="matrix" values="0 0 0 0 0 0 0 0 0 0 0 0 0 0 0 0 0 0 127 0" result="hardAlpha"/>
<feOffset dy="12"/>
<feGaussianBlur stdDeviation="12"/>
<feComposite in2="hardAlpha" operator="out"/>
<feColorMatrix type="matrix" values="0 0 0 0 0 0 0 0 0 0.283333 0 0 0 0 1 0 0 0 0.16 0"/>
<feBlend mode="normal" in2="BackgroundImageFix" result="effect1_dropShadow_1134_19927"/>
<feBlend mode="normal" in="SourceGraphic" in2="effect1_dropShadow_1134_19927" result="shape"/>
</filter>
<filter id="filter1_d_1134_19927" x="-4.52551" y="93.5165" width="81.4835" height="81.4835" filterUnits="userSpaceOnUse" color-interpolation-filters="sRGB">
<feFlood flood-opacity="0" result="BackgroundImageFix"/>
<feColorMatrix in="SourceAlpha" type="matrix" values="0 0 0 0 0 0 0 0 0 0 0 0 0 0 0 0 0 0 127 0" result="hardAlpha"/>
<feOffset dy="12"/>
<feGaussianBlur stdDeviation="12"/>
<feComposite in2="hardAlpha" operator="out"/>
<feColorMatrix type="matrix" values="0 0 0 0 0 0 0 0 0 0.283333 0 0 0 0 1 0 0 0 0.16 0"/>
<feBlend mode="normal" in2="BackgroundImageFix" result="effect1_dropShadow_1134_19927"/>
<feBlend mode="normal" in="SourceGraphic" in2="effect1_dropShadow_1134_19927" result="shape"/>
</filter>
<radialGradient id="paint0_radial_1134_19927" cx="0" cy="0" r="1" gradientUnits="userSpaceOnUse" gradientTransform="translate(170.43 14.2372) rotate(133.698) scale(32.5971)">
<stop stop-color="white"/>
<stop offset="1" stop-color="#48B1FF"/>
</radialGradient>
<radialGradient id="paint1_radial_1134_19927" cx="0" cy="0" r="1" gradientUnits="userSpaceOnUse" gradientTransform="translate(39.72 123.253) rotate(133.698) scale(23.3353)">
<stop stop-color="white"/>
<stop offset="1" stop-color="#48B1FF"/>
</radialGradient>
</defs>
</svg>
