<svg width="45" height="42" viewBox="0 0 45 42" fill="none" xmlns="http://www.w3.org/2000/svg">
<path d="M0.762512 27.0667V22.9833H32.1458V27.0667H0.762512ZM0.762512 19.0167V14.9333H32.1458V19.0167H0.762512ZM28.4125 42C25.2625 42 22.3458 41.4944 19.6625 40.4833C17.0181 39.4333 14.7236 37.975 12.7792 36.1083C10.8347 34.2028 9.31807 31.9667 8.22918 29.4C7.14029 26.8333 6.59585 24.0333 6.59585 21C6.59585 17.9667 7.14029 15.1667 8.22918 12.6C9.31807 10.0333 10.8347 7.81667 12.7792 5.95C14.7236 4.04445 17.0181 2.58611 19.6625 1.575C22.3458 0.525 25.2625 0 28.4125 0C31.757 0 34.8097 0.583334 37.5708 1.75C40.3708 2.87778 42.7042 4.56944 44.5708 6.825L39.7292 11.4333C38.2514 9.83889 36.5986 8.65278 34.7708 7.875C32.9431 7.05833 30.9597 6.65 28.8208 6.65C26.682 6.65 24.7181 7 22.9292 7.7C21.1792 8.4 19.6431 9.39167 18.3208 10.675C17.0375 11.9583 16.0264 13.475 15.2875 15.225C14.5486 16.975 14.1792 18.9 14.1792 21C14.1792 23.1 14.5486 25.025 15.2875 26.775C16.0264 28.525 17.0375 30.0417 18.3208 31.325C19.6431 32.6083 21.1792 33.6 22.9292 34.3C24.7181 35 26.682 35.35 28.8208 35.35C30.9597 35.35 32.9431 34.9611 34.7708 34.1833C36.5986 33.3667 38.2514 32.1417 39.7292 30.5083L44.5708 35.175C42.7042 37.3917 40.3708 39.0833 37.5708 40.25C34.8097 41.4167 31.757 42 28.4125 42Z" fill="#017C2E"/>
</svg>
