<svg width="14" height="10" viewBox="0 0 14 10" fill="none" xmlns="http://www.w3.org/2000/svg">
<path fill-rule="evenodd" clip-rule="evenodd" d="M0.333334 0.999995C0.333334 0.631805 0.631811 0.333328 1 0.333328H1.00667C1.37486 0.333328 1.67333 0.631805 1.67333 0.999995C1.67333 1.36818 1.37486 1.66666 1.00667 1.66666H1C0.631811 1.66666 0.333334 1.36818 0.333334 0.999995ZM3.66667 0.999995C3.66667 0.631805 3.96514 0.333328 4.33333 0.333328H13C13.3682 0.333328 13.6667 0.631805 13.6667 0.999995C13.6667 1.36818 13.3682 1.66666 13 1.66666H4.33333C3.96514 1.66666 3.66667 1.36818 3.66667 0.999995ZM0.333334 5C0.333334 4.63181 0.631811 4.33333 1 4.33333H1.00667C1.37486 4.33333 1.67333 4.63181 1.67333 5C1.67333 5.36819 1.37486 5.66666 1.00667 5.66666H1C0.631811 5.66666 0.333334 5.36819 0.333334 5ZM3.66667 5C3.66667 4.63181 3.96514 4.33333 4.33333 4.33333H13C13.3682 4.33333 13.6667 4.63181 13.6667 5C13.6667 5.36819 13.3682 5.66666 13 5.66666H4.33333C3.96514 5.66666 3.66667 5.36819 3.66667 5ZM0.333334 9C0.333334 8.63181 0.631811 8.33333 1 8.33333H1.00667C1.37486 8.33333 1.67333 8.63181 1.67333 9C1.67333 9.36819 1.37486 9.66666 1.00667 9.66666H1C0.631811 9.66666 0.333334 9.36819 0.333334 9ZM3.66667 9C3.66667 8.63181 3.96514 8.33333 4.33333 8.33333H13C13.3682 8.33333 13.6667 8.63181 13.6667 9C13.6667 9.36819 13.3682 9.66666 13 9.66666H4.33333C3.96514 9.66666 3.66667 9.36819 3.66667 9Z" fill="#1492EF"/>
</svg>
