<svg width="47" height="41" viewBox="0 0 47 41" fill="none" xmlns="http://www.w3.org/2000/svg">
<path fill-rule="evenodd" clip-rule="evenodd" d="M20.3897 1.56621C21.2883 1.0603 22.3021 0.794525 23.3333 0.794525C24.3645 0.794525 25.3783 1.0603 26.2769 1.56621C27.1755 2.07212 27.9285 2.80108 28.4633 3.68276L28.4691 3.69226L45.4091 31.9723L45.4253 31.9999C45.9492 32.9072 46.2264 33.9358 46.2293 34.9835C46.2323 36.0311 45.9608 37.0613 45.442 37.9715C44.9232 38.8817 44.1751 39.6401 43.2722 40.1714C42.3692 40.7028 41.3429 40.9884 40.2953 40.9999L40.2733 41.0001L6.37134 41C5.32373 40.9885 4.29741 40.7028 3.39447 40.1714C2.49152 39.6401 1.74343 38.8817 1.22462 37.9715C0.705816 37.0613 0.434377 36.0311 0.43731 34.9835C0.440243 33.9358 0.717448 32.9072 1.24134 31.9999L1.25759 31.9723L18.2033 3.68274C18.7381 2.80106 19.4912 2.07212 20.3897 1.56621ZM23.3333 4.79453C22.9896 4.79453 22.6517 4.88312 22.3521 5.05175C22.054 5.21963 21.8039 5.46118 21.6257 5.75329L4.6987 34.0117C4.52834 34.3113 4.43826 34.6499 4.43729 34.9947C4.43632 35.3439 4.5268 35.6873 4.69973 35.9907C4.87267 36.2941 5.12203 36.5469 5.42301 36.724C5.72136 36.8995 6.06011 36.9946 6.40612 37H40.2605C40.6065 36.9946 40.9453 36.8995 41.2436 36.724C41.5446 36.5469 41.794 36.2941 41.9669 35.9907C42.1399 35.6873 42.2303 35.3439 42.2294 34.9947C42.2284 34.6499 42.1383 34.3113 41.968 34.0118L25.0433 5.75727C25.0425 5.75594 25.0417 5.75461 25.0409 5.75329C24.8628 5.46118 24.6127 5.21963 24.3145 5.05175C24.015 4.88312 23.6771 4.79453 23.3333 4.79453ZM23.3333 13C24.4379 13 25.3333 13.8954 25.3333 15V23C25.3333 24.1046 24.4379 25 23.3333 25C22.2288 25 21.3333 24.1046 21.3333 23V15C21.3333 13.8954 22.2288 13 23.3333 13ZM21.3333 31C21.3333 29.8954 22.2288 29 23.3333 29H23.3533C24.4579 29 25.3533 29.8954 25.3533 31C25.3533 32.1046 24.4579 33 23.3533 33H23.3333C22.2288 33 21.3333 32.1046 21.3333 31Z" fill="#FF5151"/>
</svg>
