<svg width="49" height="48" viewBox="0 0 49 48" fill="none" xmlns="http://www.w3.org/2000/svg">
<rect x="0.5" width="48" height="48" rx="24" fill="#F1F8FF"/>
<path fill-rule="evenodd" clip-rule="evenodd" d="M18.9101 14.7408C18.6608 15.0552 18.5 15.5343 18.5 16.125V22.875C18.5 23.0088 18.5486 23.0916 18.6092 23.1473C18.6792 23.2116 18.7783 23.25 18.875 23.25H18.8799L18.8849 23.2501C18.933 23.2507 18.9808 23.2417 19.0254 23.2236C19.07 23.2054 19.1105 23.1786 19.1445 23.1445C19.1786 23.1105 19.2054 23.07 19.2236 23.0254C19.2417 22.9808 19.2507 22.933 19.2501 22.8849L19.25 22.8799V15.75C19.25 15.3358 19.5858 15 20 15C20.4142 15 20.75 15.3358 20.75 15.75V22.8707C20.7525 23.1172 20.706 23.3618 20.6131 23.5903C20.5196 23.8204 20.3809 24.0295 20.2052 24.2052C20.0295 24.3809 19.8204 24.5196 19.5903 24.6131C19.3616 24.7061 19.1168 24.7526 18.87 24.75C17.9554 24.7474 17 24.0436 17 22.875V16.125C17 15.2817 17.2275 14.4484 17.7349 13.8087C18.258 13.1493 19.0384 12.75 20 12.75C20.955 12.75 21.7356 13.1368 22.2616 13.79C22.3776 13.934 22.479 14.088 22.5664 14.25H25.379C25.9756 14.2501 26.5476 14.4871 26.9695 14.9088L26.9695 14.9089L33.5912 21.5305C34.0129 21.9524 34.2499 22.5245 34.25 23.121V32.25C34.25 33.0456 33.9339 33.8087 33.3713 34.3713C32.8087 34.9339 32.0456 35.25 31.25 35.25H21.5C20.7044 35.25 19.9413 34.9339 19.3787 34.3713C18.8161 33.8087 18.5 33.0456 18.5 32.25V26.985C16.156 26.7949 14.75 24.8255 14.75 22.5998V18.75C14.75 18.3358 15.0858 18 15.5 18C15.9142 18 16.25 18.3358 16.25 18.75V22.5998C16.25 24.2901 17.3014 25.5 18.875 25.5C20.4485 25.5 21.5 24.2897 21.5 22.5998V16.0959C21.5 15.5059 21.3395 15.0365 21.0933 14.7308C20.8627 14.4444 20.5182 14.25 20 14.25C19.4883 14.25 19.1438 14.4463 18.9101 14.7408ZM20 26.8567V32.25C20 32.6478 20.158 33.0294 20.4393 33.3107C20.7206 33.592 21.1022 33.75 21.5 33.75H31.25C31.6478 33.75 32.0294 33.592 32.3107 33.3107C32.592 33.0294 32.75 32.6478 32.75 32.25V23.25H27.5C26.9033 23.25 26.331 23.0129 25.909 22.591C25.4871 22.169 25.25 21.5967 25.25 21V15.75H22.987C22.9957 15.8647 23 15.9802 23 16.0959V22.5998C23 24.5764 21.8907 26.3515 20 26.8567ZM26.75 16.8107L31.6893 21.75H27.5C27.3011 21.75 27.1103 21.671 26.9697 21.5303C26.829 21.3897 26.75 21.1989 26.75 21V16.8107Z" fill="#1492EF"/>
</svg>
