<svg width="290" height="290" viewBox="0 0 290 290" fill="none" xmlns="http://www.w3.org/2000/svg">
<path d="M264 145C145 145 210.722 145 145 145C79.2781 145 145 145 26 145C26 210.722 79.2781 264 145 264C210.722 264 264 210.722 264 145Z" fill="#E2BE08"/>
<path d="M145.082 4.50002L145.081 4.50002C117.293 4.48393 90.1241 12.7084 67.0101 28.1333C43.896 43.5583 25.8751 65.491 15.2261 91.1578C4.57716 116.825 1.77844 145.073 7.18388 172.33C12.5893 199.588 25.9561 224.63 45.594 244.291C65.2319 263.952 90.2589 277.347 117.51 282.784C144.761 288.221 173.013 285.455 198.692 274.836C224.371 264.217 246.325 246.221 261.776 223.125C277.228 200.029 285.484 172.87 285.5 145.081V145.081C285.478 107.831 270.683 72.1111 244.359 45.7564C218.034 19.4017 182.331 4.56466 145.082 4.50002ZM145.08 281.797C118.018 281.813 91.5583 273.802 69.0499 258.776C46.5413 243.751 28.9952 222.387 18.6313 197.387C8.26742 172.388 5.55157 144.876 10.8273 118.332C16.1031 91.7884 29.1335 67.4061 48.2698 48.2697C67.4061 29.1334 91.7884 16.1031 118.332 10.8273C144.876 5.55156 172.388 8.26741 197.387 18.6313C222.387 28.9952 243.751 46.5413 258.776 69.0499C273.802 91.5583 281.813 118.018 281.797 145.08C281.733 181.32 267.309 216.057 241.683 241.683C216.057 267.309 181.32 281.733 145.08 281.797Z" fill="#E2BE08" stroke="#E2BE08"/>
<path d="M111.292 176L107.064 166.2H109.514L113.21 174.88H111.768L115.52 166.2H117.774L113.532 176H111.292ZM122.498 176V174.53L122.358 174.208V171.576C122.358 171.109 122.213 170.745 121.924 170.484C121.644 170.223 121.21 170.092 120.622 170.092C120.221 170.092 119.824 170.157 119.432 170.288C119.049 170.409 118.723 170.577 118.452 170.792L117.668 169.266C118.079 168.977 118.573 168.753 119.152 168.594C119.731 168.435 120.319 168.356 120.916 168.356C122.064 168.356 122.955 168.627 123.59 169.168C124.225 169.709 124.542 170.554 124.542 171.702V176H122.498ZM120.202 176.112C119.614 176.112 119.11 176.014 118.69 175.818C118.27 175.613 117.948 175.337 117.724 174.992C117.5 174.647 117.388 174.259 117.388 173.83C117.388 173.382 117.495 172.99 117.71 172.654C117.934 172.318 118.284 172.057 118.76 171.87C119.236 171.674 119.857 171.576 120.622 171.576H122.624V172.85H120.86C120.347 172.85 119.992 172.934 119.796 173.102C119.609 173.27 119.516 173.48 119.516 173.732C119.516 174.012 119.623 174.236 119.838 174.404C120.062 174.563 120.365 174.642 120.748 174.642C121.112 174.642 121.439 174.558 121.728 174.39C122.017 174.213 122.227 173.956 122.358 173.62L122.694 174.628C122.535 175.113 122.246 175.482 121.826 175.734C121.406 175.986 120.865 176.112 120.202 176.112ZM126.519 176V165.612H128.703V176H126.519ZM130.73 176V168.468H132.914V176H130.73ZM131.822 167.418C131.42 167.418 131.094 167.301 130.842 167.068C130.59 166.835 130.464 166.545 130.464 166.2C130.464 165.855 130.59 165.565 130.842 165.332C131.094 165.099 131.42 164.982 131.822 164.982C132.223 164.982 132.55 165.094 132.802 165.318C133.054 165.533 133.18 165.813 133.18 166.158C133.18 166.522 133.054 166.825 132.802 167.068C132.559 167.301 132.232 167.418 131.822 167.418ZM138.175 176.112C137.465 176.112 136.826 175.953 136.257 175.636C135.687 175.309 135.235 174.857 134.899 174.278C134.572 173.699 134.409 173.018 134.409 172.234C134.409 171.441 134.572 170.755 134.899 170.176C135.235 169.597 135.687 169.149 136.257 168.832C136.826 168.515 137.465 168.356 138.175 168.356C138.809 168.356 139.365 168.496 139.841 168.776C140.317 169.056 140.685 169.481 140.947 170.05C141.208 170.619 141.339 171.347 141.339 172.234C141.339 173.111 141.213 173.839 140.961 174.418C140.709 174.987 140.345 175.412 139.869 175.692C139.402 175.972 138.837 176.112 138.175 176.112ZM138.553 174.32C138.907 174.32 139.229 174.236 139.519 174.068C139.808 173.9 140.037 173.662 140.205 173.354C140.382 173.037 140.471 172.663 140.471 172.234C140.471 171.795 140.382 171.422 140.205 171.114C140.037 170.806 139.808 170.568 139.519 170.4C139.229 170.232 138.907 170.148 138.553 170.148C138.189 170.148 137.862 170.232 137.573 170.4C137.283 170.568 137.05 170.806 136.873 171.114C136.705 171.422 136.621 171.795 136.621 172.234C136.621 172.663 136.705 173.037 136.873 173.354C137.05 173.662 137.283 173.9 137.573 174.068C137.862 174.236 138.189 174.32 138.553 174.32ZM140.527 176V174.46L140.569 172.22L140.429 169.994V165.612H142.613V176H140.527ZM153.107 176.168C151.716 176.168 150.629 175.781 149.845 175.006C149.061 174.231 148.669 173.125 148.669 171.688V166.2H150.937V171.604C150.937 172.537 151.128 173.209 151.511 173.62C151.893 174.031 152.43 174.236 153.121 174.236C153.811 174.236 154.348 174.031 154.731 173.62C155.113 173.209 155.305 172.537 155.305 171.604V166.2H157.545V171.688C157.545 173.125 157.153 174.231 156.369 175.006C155.585 175.781 154.497 176.168 153.107 176.168ZM164.21 168.356C164.807 168.356 165.339 168.477 165.806 168.72C166.282 168.953 166.655 169.317 166.926 169.812C167.197 170.297 167.332 170.923 167.332 171.688V176H165.148V172.024C165.148 171.417 165.013 170.969 164.742 170.68C164.481 170.391 164.107 170.246 163.622 170.246C163.277 170.246 162.964 170.321 162.684 170.47C162.413 170.61 162.199 170.829 162.04 171.128C161.891 171.427 161.816 171.809 161.816 172.276V176H159.632V168.468H161.718V170.554L161.326 169.924C161.597 169.42 161.984 169.033 162.488 168.762C162.992 168.491 163.566 168.356 164.21 168.356ZM172.392 176.112C171.505 176.112 170.814 175.888 170.32 175.44C169.825 174.983 169.578 174.306 169.578 173.41V166.802H171.762V173.382C171.762 173.699 171.846 173.947 172.014 174.124C172.182 174.292 172.41 174.376 172.7 174.376C173.045 174.376 173.339 174.283 173.582 174.096L174.17 175.636C173.946 175.795 173.675 175.916 173.358 176C173.05 176.075 172.728 176.112 172.392 176.112ZM168.416 170.316V168.636H173.638V170.316H168.416ZM175.396 176V168.468H177.58V176H175.396ZM176.488 167.418C176.086 167.418 175.76 167.301 175.508 167.068C175.256 166.835 175.13 166.545 175.13 166.2C175.13 165.855 175.256 165.565 175.508 165.332C175.76 165.099 176.086 164.982 176.488 164.982C176.889 164.982 177.216 165.094 177.468 165.318C177.72 165.533 177.846 165.813 177.846 166.158C177.846 166.522 177.72 166.825 177.468 167.068C177.225 167.301 176.898 167.418 176.488 167.418ZM179.607 176V165.612H181.791V176H179.607Z" fill="white"/>
<line x1="53" y1="186.5" x2="237" y2="186.5" stroke="white"/>
<path d="M97.966 216.22C96.9833 216.22 96.074 216.029 95.238 215.648C94.4167 215.267 93.742 214.717 93.214 213.998L94.842 212.04C95.2673 212.627 95.7293 213.067 96.228 213.36C96.7413 213.653 97.2987 213.8 97.9 213.8C99.4987 213.8 100.298 212.854 100.298 210.962V202.998H94.82V200.6H103.158V210.808C103.158 212.627 102.711 213.983 101.816 214.878C100.936 215.773 99.6527 216.22 97.966 216.22ZM104.229 216L111.159 200.6H113.975L120.927 216H117.935L111.973 202.118H113.117L107.177 216H104.229ZM107.419 212.436L108.189 210.192H116.505L117.275 212.436H107.419ZM122.446 216V200.6H124.8L134.458 212.458H133.292V200.6H136.13V216H133.776L124.118 204.142H125.284V216H122.446ZM144.158 216V214.086L150.274 208.278C150.788 207.794 151.169 207.369 151.418 207.002C151.668 206.635 151.829 206.298 151.902 205.99C151.99 205.667 152.034 205.367 152.034 205.088C152.034 204.384 151.792 203.841 151.308 203.46C150.824 203.064 150.113 202.866 149.174 202.866C148.426 202.866 147.744 202.998 147.128 203.262C146.527 203.526 146.006 203.929 145.566 204.472L143.564 202.932C144.166 202.125 144.972 201.502 145.984 201.062C147.011 200.607 148.155 200.38 149.416 200.38C150.531 200.38 151.499 200.563 152.32 200.93C153.156 201.282 153.794 201.788 154.234 202.448C154.689 203.108 154.916 203.893 154.916 204.802C154.916 205.301 154.85 205.799 154.718 206.298C154.586 206.782 154.337 207.295 153.97 207.838C153.604 208.381 153.068 208.989 152.364 209.664L147.106 214.658L146.512 213.58H155.51V216H144.158ZM163.145 216.22C161.928 216.22 160.828 215.912 159.845 215.296C158.877 214.68 158.114 213.785 157.557 212.612C157 211.424 156.721 209.987 156.721 208.3C156.721 206.613 157 205.183 157.557 204.01C158.114 202.822 158.877 201.92 159.845 201.304C160.828 200.688 161.928 200.38 163.145 200.38C164.377 200.38 165.477 200.688 166.445 201.304C167.413 201.92 168.176 202.822 168.733 204.01C169.305 205.183 169.591 206.613 169.591 208.3C169.591 209.987 169.305 211.424 168.733 212.612C168.176 213.785 167.413 214.68 166.445 215.296C165.477 215.912 164.377 216.22 163.145 216.22ZM163.145 213.734C163.864 213.734 164.487 213.543 165.015 213.162C165.543 212.766 165.954 212.165 166.247 211.358C166.555 210.551 166.709 209.532 166.709 208.3C166.709 207.053 166.555 206.034 166.247 205.242C165.954 204.435 165.543 203.841 165.015 203.46C164.487 203.064 163.864 202.866 163.145 202.866C162.456 202.866 161.84 203.064 161.297 203.46C160.769 203.841 160.351 204.435 160.043 205.242C159.75 206.034 159.603 207.053 159.603 208.3C159.603 209.532 159.75 210.551 160.043 211.358C160.351 212.165 160.769 212.766 161.297 213.162C161.84 213.543 162.456 213.734 163.145 213.734ZM170.864 216V214.086L176.98 208.278C177.494 207.794 177.875 207.369 178.124 207.002C178.374 206.635 178.535 206.298 178.608 205.99C178.696 205.667 178.74 205.367 178.74 205.088C178.74 204.384 178.498 203.841 178.014 203.46C177.53 203.064 176.819 202.866 175.88 202.866C175.132 202.866 174.45 202.998 173.834 203.262C173.233 203.526 172.712 203.929 172.272 204.472L170.27 202.932C170.872 202.125 171.678 201.502 172.69 201.062C173.717 200.607 174.861 200.38 176.122 200.38C177.237 200.38 178.205 200.563 179.026 200.93C179.862 201.282 180.5 201.788 180.94 202.448C181.395 203.108 181.622 203.893 181.622 204.802C181.622 205.301 181.556 205.799 181.424 206.298C181.292 206.782 181.043 207.295 180.676 207.838C180.31 208.381 179.774 208.989 179.07 209.664L173.812 214.658L173.218 213.58H182.216V216H170.864ZM188.619 200.38C190.027 200.38 191.222 200.681 192.205 201.282C193.202 201.869 193.965 202.727 194.493 203.856C195.021 204.985 195.285 206.379 195.285 208.036C195.285 209.796 194.962 211.285 194.317 212.502C193.686 213.719 192.806 214.643 191.677 215.274C190.548 215.905 189.235 216.22 187.739 216.22C186.962 216.22 186.221 216.139 185.517 215.978C184.813 215.817 184.204 215.567 183.691 215.23L184.747 213.074C185.172 213.353 185.634 213.551 186.133 213.668C186.632 213.771 187.145 213.822 187.673 213.822C189.125 213.822 190.276 213.375 191.127 212.48C191.978 211.585 192.403 210.265 192.403 208.52C192.403 208.241 192.396 207.919 192.381 207.552C192.366 207.171 192.315 206.789 192.227 206.408L193.107 207.376C192.858 207.977 192.498 208.483 192.029 208.894C191.56 209.29 191.01 209.591 190.379 209.796C189.748 210.001 189.052 210.104 188.289 210.104C187.292 210.104 186.39 209.913 185.583 209.532C184.791 209.136 184.16 208.586 183.691 207.882C183.222 207.163 182.987 206.327 182.987 205.374C182.987 204.347 183.236 203.467 183.735 202.734C184.234 201.986 184.908 201.407 185.759 200.996C186.624 200.585 187.578 200.38 188.619 200.38ZM188.773 202.624C188.186 202.624 187.666 202.734 187.211 202.954C186.756 203.159 186.397 203.46 186.133 203.856C185.884 204.237 185.759 204.699 185.759 205.242C185.759 206.049 186.038 206.687 186.595 207.156C187.152 207.625 187.9 207.86 188.839 207.86C189.455 207.86 189.998 207.75 190.467 207.53C190.936 207.295 191.303 206.98 191.567 206.584C191.831 206.173 191.963 205.719 191.963 205.22C191.963 204.736 191.838 204.303 191.589 203.922C191.34 203.526 190.98 203.211 190.511 202.976C190.042 202.741 189.462 202.624 188.773 202.624Z" fill="white"/>
<path d="M27.2565 143.75C27.9269 79.2943 80.3856 27.25 145 27.25C209.614 27.25 262.073 79.2943 262.743 143.75H262.614H261.927H261.245H260.566H259.892H259.222H258.556H257.894H257.236H256.583H255.933H255.288H254.646H254.009H253.375H252.746H252.12H251.499H250.881H250.268H249.658H249.053H248.451H247.853H247.259H246.669H246.082H245.5H244.921H244.346H243.775H243.208H242.644H242.084H241.528H240.976H240.427H239.882H239.341H238.803H238.269H237.739H237.212H236.689H236.17H235.654H235.141H234.633H234.127H233.625H233.127H232.632H232.141H231.653H231.169H230.688H230.21H229.736H229.266H228.798H228.334H227.874H227.416H226.962H226.512H226.064H225.62H225.179H224.742H224.308H223.876H223.449H223.024H222.602H222.184H221.769H221.357H220.948H220.542H220.139H219.74H219.343H218.95H218.559H218.172H217.787H217.406H217.028H216.652H216.28H215.91H215.543H215.18H214.819H214.461H214.106H213.753H213.404H213.058H212.714H212.373H212.035H211.699H211.367H211.037H210.71H210.385H210.064H209.745H209.428H209.114H208.803H208.495H208.189H207.886H207.585H207.287H206.992H206.699H206.408H206.121H205.835H205.552H205.272H204.994H204.718H204.445H204.175H203.906H203.64H203.377H203.116H202.857H202.601H202.346H202.095H201.845H201.598H201.353H201.11H200.87H200.631H200.395H200.161H199.93H199.7H199.473H199.247H199.024H198.803H198.584H198.368H198.153H197.94H197.729H197.521H197.314H197.109H196.907H196.706H196.507H196.31H196.115H195.922H195.731H195.542H195.355H195.169H194.986H194.804H194.624H194.445H194.269H194.094H193.921H193.75H193.581H193.413H193.247H193.083H192.92H192.759H192.6H192.442H192.286H192.131H191.978H191.827H191.677H191.529H191.382H191.236H191.093H190.95H190.81H190.67H190.532H190.396H190.261H190.127H189.995H189.864H189.735H189.606H189.48H189.354H189.23H189.107H188.985H188.865H188.746H188.628H188.511H188.395H188.281H188.168H188.056H187.945H187.835H187.727H187.619H187.513H187.407H187.303H187.2H187.098H186.997H186.897H186.797H186.699H186.602H186.506H186.41H186.316H186.222H186.13H186.038H185.947H185.857H185.768H185.68H185.592H185.505H185.419H185.334H185.25H185.166H185.083H185H184.919H184.838H184.758H184.678H184.599H184.521H184.443H184.366H184.289H184.213H184.138H184.063H183.989H183.915H183.841H183.768H183.696H183.624H183.552H183.481H183.411H183.34H183.27H183.201H183.132H183.063H182.994H182.926H182.858H182.791H182.723H182.656H182.589H182.523H182.456H182.39H182.324H182.258H182.193H182.127H182.062H181.996H181.931H181.866H181.801H181.736H181.671H181.606H181.541H181.476H181.411H181.346H181.282H181.216H181.151H181.086H181.021H180.956H180.89H180.824H180.759H180.693H180.626H180.56H180.494H180.427H180.36H180.292H180.225H180.157H180.089H180.021H179.952H179.883H179.813H179.743H179.673H179.603H179.532H179.46H179.388H179.316H179.243H179.17H179.096H179.022H178.947H178.872H178.796H178.72H178.643H178.565H178.487H178.408H178.329H178.249H178.168H178.087H178.005H177.922H177.838H177.754H177.669H177.583H177.497H177.409H177.321H177.232H177.142H177.052H176.96H176.868H176.775H176.68H176.585H176.489H176.392H176.294H176.196H176.096H175.995H175.893H175.79H175.686H175.581H175.475H175.368H175.259H175.15H175.039H174.928H174.815H174.701H174.586H174.469H174.352H174.233H174.113H173.992H173.869H173.745H173.62H173.493H173.366H173.236H173.106H172.974H172.841H172.706H172.57H172.433H172.294H172.153H172.011H171.868H171.723H171.577H171.429H171.28H171.129H170.976H170.822H170.666H170.509H170.35H170.189H170.027H169.863H169.698H169.53H169.362H169.191H169.018H168.844H168.668H168.491H168.311H168.13H167.947H167.762H167.575H167.386H167.195H167.003H166.809H166.612H166.414H166.214H166.012H165.808H165.601H165.393H165.183H164.971H164.757H164.541H164.322H164.102H163.879H163.655H163.428H163.199H162.968H162.734H162.499H162.261H162.021H161.779H161.535H161.288H161.039H160.788H160.535H160.279H160.021H159.76H159.498H159.232H158.965H158.695H158.422H158.148H157.87H157.59H157.308H157.024H156.736H156.447H156.154H155.86H155.562H155.262H154.96H154.655H154.347H154.037H153.724H153.408H153.09H152.769H152.445H152.119H151.79H151.458H151.123H150.786H150.446H150.103H149.757H149.409H149.057H148.703H148.346H147.986H147.623H147.257H146.888H146.516H146.142H145.764H145.384H145H144.616H144.236H143.858H143.484H143.112H142.743H142.377H142.014H141.654H141.297H140.943H140.591H140.243H139.897H139.554H139.214H138.877H138.542H138.21H137.881H137.555H137.231H136.91H136.592H136.276H135.963H135.653H135.345H135.04H134.738H134.438H134.14H133.846H133.553H133.264H132.976H132.692H132.41H132.13H131.852H131.578H131.305H131.035H130.768H130.502H130.24H129.979H129.721H129.465H129.212H128.961H128.712H128.465H128.221H127.979H127.739H127.501H127.266H127.032H126.801H126.572H126.345H126.121H125.898H125.678H125.459H125.243H125.029H124.817H124.607H124.399H124.192H123.988H123.786H123.586H123.388H123.191H122.997H122.805H122.614H122.425H122.238H122.053H121.87H121.689H121.509H121.332H121.156H120.982H120.809H120.638H120.47H120.302H120.137H119.973H119.811H119.65H119.491H119.334H119.178H119.024H118.871H118.72H118.571H118.423H118.277H118.132H117.989H117.847H117.706H117.567H117.43H117.294H117.159H117.026H116.894H116.764H116.634H116.507H116.38H116.255H116.131H116.008H115.887H115.767H115.648H115.531H115.414H115.299H115.185H115.072H114.961H114.85H114.741H114.632H114.525H114.419H114.314H114.21H114.107H114.005H113.904H113.804H113.706H113.608H113.511H113.415H113.32H113.225H113.132H113.04H112.948H112.858H112.768H112.679H112.591H112.503H112.417H112.331H112.246H112.162H112.078H111.995H111.913H111.832H111.751H111.671H111.592H111.513H111.435H111.357H111.28H111.204H111.128H111.053H110.978H110.904H110.83H110.757H110.684H110.612H110.54H110.468H110.397H110.327H110.257H110.187H110.117H110.048H109.979H109.911H109.843H109.775H109.708H109.64H109.573H109.506H109.44H109.374H109.307H109.241H109.176H109.11H109.044H108.979H108.914H108.849H108.784H108.718H108.654H108.589H108.524H108.459H108.394H108.329H108.264H108.199H108.134H108.069H108.004H107.938H107.873H107.807H107.742H107.676H107.61H107.544H107.477H107.411H107.344H107.277H107.209H107.142H107.074H107.006H106.937H106.868H106.799H106.73H106.66H106.589H106.519H106.448H106.376H106.304H106.232H106.159H106.085H106.011H105.937H105.862H105.787H105.711H105.634H105.557H105.479H105.401H105.322H105.242H105.162H105.081H105H104.917H104.834H104.75H104.666H104.581H104.495H104.408H104.32H104.232H104.143H104.053H103.962H103.87H103.778H103.684H103.59H103.494H103.398H103.301H103.203H103.103H103.003H102.902H102.8H102.697H102.593H102.487H102.381H102.273H102.165H102.055H101.944H101.832H101.719H101.605H101.489H101.372H101.254H101.135H101.015H100.893H100.77H100.646H100.52H100.394H100.265H100.136H100.005H99.8727H99.7391H99.604H99.4676H99.3297H99.1903H99.0495H98.9073H98.7635H98.6183H98.4715H98.3232H98.1733H98.0219H97.869H97.7144H97.5583H97.4005H97.2411H97.0801H96.9174H96.753H96.587H96.4192H96.2498H96.0786H95.9057H95.731H95.5545H95.3763H95.1963H95.0145H94.8308H94.6453H94.4579H94.2687H94.0776H93.8846H93.6897H93.4929H93.2941H93.0934H92.8907H92.686H92.4793H92.2707H92.06H91.8472H91.6324H91.4156H91.1967H90.9756H90.7525H90.5272H90.2999H90.0703H89.8386H89.6047H89.3686H89.1304H88.8899H88.6471H88.4021H88.1549H87.9053H87.6535H87.3994H87.1429H86.8842H86.623H86.3595H86.0937H85.8254H85.5547H85.2817H85.0061H84.7282H84.4477H84.1648H83.8795H83.5916H83.3012H83.0082H82.7127H82.4147H82.114H81.8108H81.505H81.1966H80.8855H80.5718H80.2555H79.9364H79.6147H79.2903H78.9631H78.6332H78.3006H77.9653H77.6271H77.2862H76.9424H76.5959H76.2465H75.8943H75.5392H75.1813H74.8204H74.4567H74.09H73.7205H73.348H72.9725H72.594H72.2126H71.8282H71.4408H71.0503H70.6568H70.2602H69.8606H69.4579H69.0521H68.6432H68.2311H67.8159H67.3976H66.9761H66.5514H66.1235H65.6924H65.2581H64.8205H64.3797H63.9356H63.4883H63.0376H62.5837H62.1264H61.6658H61.2018H60.7344H60.2637H59.7896H59.3121H58.8311H58.3468H57.8589H57.3676H56.8728H56.3746H55.8728H55.3675H54.8587H54.3463H53.8303H53.3108H52.7877H52.261H51.7306H51.1967H50.659H50.1177H49.5728H49.0241H48.4718H47.9157H47.3559H46.7923H46.225H45.6539H45.079H44.5003H43.9178H43.3314H42.7413H42.1472H41.5493H40.9475H40.3418H39.7321H39.1186H38.5011H37.8796H37.2542H36.6247H35.9913H35.3538H34.7124H34.0668H33.4173H32.7636H32.1059H31.444H30.7781H30.108H29.4338H28.7554H28.0728H27.3861H27.2565Z" stroke="#E2BE08" stroke-width="2.5"/>
<path d="M144 36H235.719L253 51.7637L274.5 72H144V36Z" fill="#1492EF"/>
<path d="M145.5 36H53.7811L36.5 51.7637L15 72H145.5V36Z" fill="#1492EF"/>
<path d="M86.4826 60.168C85.6986 60.168 84.9473 60.0653 84.2286 59.86C83.5099 59.6453 82.9313 59.37 82.4926 59.034L83.2626 57.326C83.6826 57.6247 84.1773 57.872 84.7466 58.068C85.3253 58.2547 85.9086 58.348 86.4966 58.348C86.9446 58.348 87.3039 58.306 87.5746 58.222C87.8546 58.1287 88.0599 58.0027 88.1906 57.844C88.3213 57.6853 88.3866 57.5033 88.3866 57.298C88.3866 57.0367 88.2839 56.8313 88.0786 56.682C87.8733 56.5233 87.6026 56.3973 87.2666 56.304C86.9306 56.2013 86.5573 56.108 86.1466 56.024C85.7453 55.9307 85.3393 55.8187 84.9286 55.688C84.5273 55.5573 84.1586 55.3893 83.8226 55.184C83.4866 54.9787 83.2113 54.708 82.9966 54.372C82.7913 54.036 82.6886 53.6067 82.6886 53.084C82.6886 52.524 82.8379 52.0153 83.1366 51.558C83.4446 51.0913 83.9019 50.7227 84.5086 50.452C85.1246 50.172 85.8946 50.032 86.8186 50.032C87.4346 50.032 88.0413 50.1067 88.6386 50.256C89.2359 50.396 89.7633 50.6107 90.2206 50.9L89.5206 52.622C89.0633 52.3607 88.6059 52.1693 88.1486 52.048C87.6913 51.9173 87.2433 51.852 86.8046 51.852C86.3659 51.852 86.0066 51.9033 85.7266 52.006C85.4466 52.1087 85.2459 52.244 85.1246 52.412C85.0033 52.5707 84.9426 52.7573 84.9426 52.972C84.9426 53.224 85.0453 53.4293 85.2506 53.588C85.4559 53.7373 85.7266 53.8587 86.0626 53.952C86.3986 54.0453 86.7673 54.1387 87.1686 54.232C87.5793 54.3253 87.9853 54.4327 88.3866 54.554C88.7973 54.6753 89.1706 54.8387 89.5066 55.044C89.8426 55.2493 90.1133 55.52 90.3186 55.856C90.5333 56.192 90.6406 56.6167 90.6406 57.13C90.6406 57.6807 90.4866 58.1847 90.1786 58.642C89.8706 59.0993 89.4086 59.468 88.7926 59.748C88.1859 60.028 87.4159 60.168 86.4826 60.168ZM98.5443 60.168C97.1537 60.168 96.0663 59.7807 95.2823 59.006C94.4983 58.2313 94.1063 57.1253 94.1063 55.688V50.2H96.3743V55.604C96.3743 56.5373 96.5657 57.2093 96.9483 57.62C97.331 58.0307 97.8677 58.236 98.5583 58.236C99.249 58.236 99.7857 58.0307 100.168 57.62C100.551 57.2093 100.742 56.5373 100.742 55.604V50.2H102.982V55.688C102.982 57.1253 102.59 58.2313 101.806 59.006C101.022 59.7807 99.935 60.168 98.5443 60.168ZM110.444 60.168C109.66 60.168 108.908 60.0653 108.19 59.86C107.471 59.6453 106.892 59.37 106.454 59.034L107.224 57.326C107.644 57.6247 108.138 57.872 108.708 58.068C109.286 58.2547 109.87 58.348 110.458 58.348C110.906 58.348 111.265 58.306 111.536 58.222C111.816 58.1287 112.021 58.0027 112.152 57.844C112.282 57.6853 112.348 57.5033 112.348 57.298C112.348 57.0367 112.245 56.8313 112.04 56.682C111.834 56.5233 111.564 56.3973 111.228 56.304C110.892 56.2013 110.518 56.108 110.108 56.024C109.706 55.9307 109.3 55.8187 108.89 55.688C108.488 55.5573 108.12 55.3893 107.784 55.184C107.448 54.9787 107.172 54.708 106.958 54.372C106.752 54.036 106.65 53.6067 106.65 53.084C106.65 52.524 106.799 52.0153 107.098 51.558C107.406 51.0913 107.863 50.7227 108.47 50.452C109.086 50.172 109.856 50.032 110.78 50.032C111.396 50.032 112.002 50.1067 112.6 50.256C113.197 50.396 113.724 50.6107 114.182 50.9L113.482 52.622C113.024 52.3607 112.567 52.1693 112.11 52.048C111.652 51.9173 111.204 51.852 110.766 51.852C110.327 51.852 109.968 51.9033 109.688 52.006C109.408 52.1087 109.207 52.244 109.086 52.412C108.964 52.5707 108.904 52.7573 108.904 52.972C108.904 53.224 109.006 53.4293 109.212 53.588C109.417 53.7373 109.688 53.8587 110.024 53.952C110.36 54.0453 110.728 54.1387 111.13 54.232C111.54 54.3253 111.946 54.4327 112.348 54.554C112.758 54.6753 113.132 54.8387 113.468 55.044C113.804 55.2493 114.074 55.52 114.28 55.856C114.494 56.192 114.602 56.6167 114.602 57.13C114.602 57.6807 114.448 58.1847 114.14 58.642C113.832 59.0993 113.37 59.468 112.754 59.748C112.147 60.028 111.377 60.168 110.444 60.168ZM120.045 60V52.048H116.909V50.2H125.449V52.048H122.313V60H120.045ZM126.889 60L131.257 50.2H133.497L137.879 60H135.499L131.915 51.348H132.811L129.213 60H126.889ZM129.073 57.9L129.675 56.178H134.715L135.331 57.9H129.073ZM140.895 60V50.2H143.163V60H140.895ZM147.489 60V50.2H149.365L155.147 57.256H154.237V50.2H156.477V60H154.615L148.819 52.944H149.729V60H147.489ZM159.508 60L163.876 50.2H166.116L170.498 60H168.118L164.534 51.348H165.43L161.832 60H159.508ZM161.692 57.9L162.294 56.178H167.334L167.95 57.9H161.692ZM173.515 60V50.2H178.303C179.535 50.2 180.459 50.4333 181.075 50.9C181.7 51.3667 182.013 51.9827 182.013 52.748C182.013 53.2613 181.887 53.7093 181.635 54.092C181.383 54.4653 181.037 54.7547 180.599 54.96C180.16 55.1653 179.656 55.268 179.087 55.268L179.353 54.694C179.969 54.694 180.515 54.7967 180.991 55.002C181.467 55.198 181.835 55.492 182.097 55.884C182.367 56.276 182.503 56.7567 182.503 57.326C182.503 58.166 182.171 58.824 181.509 59.3C180.846 59.7667 179.871 60 178.583 60H173.515ZM175.769 58.292H178.415C179.003 58.292 179.446 58.1987 179.745 58.012C180.053 57.816 180.207 57.508 180.207 57.088C180.207 56.6773 180.053 56.374 179.745 56.178C179.446 55.9727 179.003 55.87 178.415 55.87H175.601V54.218H178.023C178.573 54.218 178.993 54.1247 179.283 53.938C179.581 53.742 179.731 53.448 179.731 53.056C179.731 52.6733 179.581 52.3887 179.283 52.202C178.993 52.006 178.573 51.908 178.023 51.908H175.769V58.292ZM186.22 60V50.2H188.488V58.152H193.402V60H186.22ZM198.755 54.148H203.473V55.912H198.755V54.148ZM198.923 58.18H204.257V60H196.669V50.2H204.075V52.02H198.923V58.18Z" fill="white"/>
<path d="M265.5 72L270 80.5L274.5 72H265.5Z" fill="#083570"/>
<path d="M24.5 72L19.5 80.5L15 72H24.5Z" fill="#083570"/>
<path d="M26.5 144V143.5H26H7H6.5V144V145V145.5H7H26H26.5V145V144Z" fill="#E2BE08" stroke="#E2BE08"/>
<path d="M284.5 144V143.5H284H264H263.5V144V145V145.5H264H284H284.5V145V144Z" fill="#E2BE08" stroke="#E2BE08"/>
<path d="M53.175 104V87.2H57.063V104H53.175ZM60.57 104V87.2H63.786L70.938 99.056H69.234L76.266 87.2H79.458L79.506 104H75.858L75.834 92.792H76.506L70.89 102.224H69.138L63.402 92.792H64.218V104H60.57ZM83.0118 104V87.2H90.2838C91.7878 87.2 93.0838 87.448 94.1718 87.944C95.2598 88.424 96.0998 89.12 96.6918 90.032C97.2838 90.944 97.5798 92.032 97.5798 93.296C97.5798 94.544 97.2838 95.624 96.6918 96.536C96.0998 97.448 95.2598 98.152 94.1718 98.648C93.0838 99.128 91.7878 99.368 90.2838 99.368H85.1718L86.8998 97.616V104H83.0118ZM86.8998 98.048L85.1718 96.2H90.0678C91.2678 96.2 92.1638 95.944 92.7558 95.432C93.3478 94.92 93.6438 94.208 93.6438 93.296C93.6438 92.368 93.3478 91.648 92.7558 91.136C92.1638 90.624 91.2678 90.368 90.0678 90.368H85.1718L86.8998 88.52V98.048ZM96.8238 104L104.312 87.2H108.152L115.664 104H111.584L105.44 89.168H106.976L100.808 104H96.8238ZM100.568 100.4L101.6 97.448H110.24L111.296 100.4H100.568ZM120.407 100.16L120.191 95.672L128.231 87.2H132.551L125.303 95L123.143 97.304L120.407 100.16ZM116.927 104V87.2H120.791V104H116.927ZM128.423 104L122.447 96.68L124.991 93.92L132.959 104H128.423ZM136.544 104V90.368H131.168V87.2H145.808V90.368H140.432V104H136.544ZM150.996 93.968H159.084V96.992H150.996V93.968ZM151.284 100.88H160.428V104H147.42V87.2H160.116V90.32H151.284V100.88ZM163.042 104V87.2H170.314C171.818 87.2 173.114 87.448 174.202 87.944C175.29 88.424 176.13 89.12 176.722 90.032C177.314 90.944 177.61 92.032 177.61 93.296C177.61 94.544 177.314 95.624 176.722 96.536C176.13 97.432 175.29 98.12 174.202 98.6C173.114 99.08 171.818 99.32 170.314 99.32H165.202L166.93 97.616V104H163.042ZM173.722 104L169.522 97.904H173.674L177.922 104H173.722ZM166.93 98.048L165.202 96.224H170.098C171.298 96.224 172.194 95.968 172.786 95.456C173.378 94.928 173.674 94.208 173.674 93.296C173.674 92.368 173.378 91.648 172.786 91.136C172.194 90.624 171.298 90.368 170.098 90.368H165.202L166.93 88.52V98.048Z" fill="#1D2029"/>
<path d="M186.527 104V87.2H193.799C195.303 87.2 196.599 87.448 197.687 87.944C198.775 88.424 199.615 89.12 200.207 90.032C200.799 90.944 201.095 92.032 201.095 93.296C201.095 94.544 200.799 95.624 200.207 96.536C199.615 97.448 198.775 98.152 197.687 98.648C196.599 99.128 195.303 99.368 193.799 99.368H188.687L190.415 97.616V104H186.527ZM190.415 98.048L188.687 96.2H193.583C194.783 96.2 195.679 95.944 196.271 95.432C196.863 94.92 197.159 94.208 197.159 93.296C197.159 92.368 196.863 91.648 196.271 91.136C195.679 90.624 194.783 90.368 193.583 90.368H188.687L190.415 88.52V98.048ZM203.391 104V87.2H210.663C212.167 87.2 213.463 87.448 214.551 87.944C215.639 88.424 216.479 89.12 217.071 90.032C217.663 90.944 217.959 92.032 217.959 93.296C217.959 94.544 217.663 95.624 217.071 96.536C216.479 97.432 215.639 98.12 214.551 98.6C213.463 99.08 212.167 99.32 210.663 99.32H205.551L207.279 97.616V104H203.391ZM214.071 104L209.871 97.904H214.023L218.271 104H214.071ZM207.279 98.048L205.551 96.224H210.447C211.647 96.224 212.543 95.968 213.135 95.456C213.727 94.928 214.023 94.208 214.023 93.296C214.023 92.368 213.727 91.648 213.135 91.136C212.543 90.624 211.647 90.368 210.447 90.368H205.551L207.279 88.52V98.048ZM228.719 104.288C227.391 104.288 226.159 104.072 225.023 103.64C223.903 103.208 222.927 102.6 222.095 101.816C221.279 101.032 220.639 100.112 220.175 99.056C219.727 98 219.503 96.848 219.503 95.6C219.503 94.352 219.727 93.2 220.175 92.144C220.639 91.088 221.287 90.168 222.119 89.384C222.951 88.6 223.927 87.992 225.047 87.56C226.167 87.128 227.383 86.912 228.695 86.912C230.023 86.912 231.239 87.128 232.343 87.56C233.463 87.992 234.431 88.6 235.247 89.384C236.079 90.168 236.727 91.088 237.191 92.144C237.655 93.184 237.887 94.336 237.887 95.6C237.887 96.848 237.655 98.008 237.191 99.08C236.727 100.136 236.079 101.056 235.247 101.84C234.431 102.608 233.463 103.208 232.343 103.64C231.239 104.072 230.031 104.288 228.719 104.288ZM228.695 100.976C229.447 100.976 230.135 100.848 230.759 100.592C231.399 100.336 231.959 99.968 232.439 99.488C232.919 99.008 233.287 98.44 233.543 97.784C233.815 97.128 233.951 96.4 233.951 95.6C233.951 94.8 233.815 94.072 233.543 93.416C233.287 92.76 232.919 92.192 232.439 91.712C231.975 91.232 231.423 90.864 230.783 90.608C230.143 90.352 229.447 90.224 228.695 90.224C227.943 90.224 227.247 90.352 226.607 90.608C225.983 90.864 225.431 91.232 224.951 91.712C224.471 92.192 224.095 92.76 223.823 93.416C223.567 94.072 223.439 94.8 223.439 95.6C223.439 96.384 223.567 97.112 223.823 97.784C224.095 98.44 224.463 99.008 224.927 99.488C225.407 99.968 225.967 100.336 226.607 100.592C227.247 100.848 227.943 100.976 228.695 100.976Z" fill="#1492EF"/>
<path fill-rule="evenodd" clip-rule="evenodd" d="M103.5 116.25C99.7721 116.25 96.75 119.272 96.75 123C96.75 126.728 99.7721 129.75 103.5 129.75C107.228 129.75 110.25 126.728 110.25 123C110.25 119.272 107.228 116.25 103.5 116.25ZM95.25 123C95.25 118.444 98.9437 114.75 103.5 114.75C108.056 114.75 111.75 118.444 111.75 123C111.75 127.556 108.056 131.25 103.5 131.25C98.9437 131.25 95.25 127.556 95.25 123ZM103.5 119.25C103.914 119.25 104.25 119.586 104.25 120V123C104.25 123.414 103.914 123.75 103.5 123.75C103.086 123.75 102.75 123.414 102.75 123V120C102.75 119.586 103.086 119.25 103.5 119.25ZM102.75 126C102.75 125.586 103.086 125.25 103.5 125.25H103.507C103.922 125.25 104.257 125.586 104.257 126C104.257 126.414 103.922 126.75 103.507 126.75H103.5C103.086 126.75 102.75 126.414 102.75 126Z" fill="#E2BE08"/>
<path d="M117.851 129V117.8H122.699C123.702 117.8 124.566 117.965 125.291 118.296C126.017 118.616 126.577 119.08 126.971 119.688C127.366 120.296 127.563 121.021 127.563 121.864C127.563 122.696 127.366 123.416 126.971 124.024C126.577 124.632 126.017 125.101 125.291 125.432C124.566 125.752 123.702 125.912 122.699 125.912H119.291L120.443 124.744V129H117.851ZM120.443 125.032L119.291 123.8H122.555C123.355 123.8 123.953 123.629 124.347 123.288C124.742 122.947 124.939 122.472 124.939 121.864C124.939 121.245 124.742 120.765 124.347 120.424C123.953 120.083 123.355 119.912 122.555 119.912H119.291L120.443 118.68V125.032ZM131.798 122.312H137.19V124.328H131.798V122.312ZM131.99 126.92H138.086V129H129.414V117.8H137.878V119.88H131.99V126.92ZM140.148 129V117.8H142.292L148.9 125.864H147.86V117.8H150.42V129H148.292L141.668 120.936H142.708V129H140.148ZM153.07 129V117.8H158.158C159.374 117.8 160.446 118.035 161.374 118.504C162.302 118.963 163.028 119.608 163.55 120.44C164.073 121.272 164.334 122.259 164.334 123.4C164.334 124.531 164.073 125.517 163.55 126.36C163.028 127.192 162.302 127.843 161.374 128.312C160.446 128.771 159.374 129 158.158 129H153.07ZM155.662 126.872H158.03C158.777 126.872 159.422 126.733 159.966 126.456C160.521 126.168 160.948 125.763 161.246 125.24C161.556 124.717 161.71 124.104 161.71 123.4C161.71 122.685 161.556 122.072 161.246 121.56C160.948 121.037 160.521 120.637 159.966 120.36C159.422 120.072 158.777 119.928 158.03 119.928H155.662V126.872ZM166.289 129V117.8H168.881V129H166.289ZM171.539 129V117.8H173.683L180.291 125.864H179.251V117.8H181.811V129H179.683L173.059 120.936H174.099V129H171.539ZM189.869 129.192C188.983 129.192 188.167 129.053 187.421 128.776C186.685 128.488 186.039 128.083 185.485 127.56C184.941 127.037 184.514 126.424 184.205 125.72C183.906 125.016 183.757 124.243 183.757 123.4C183.757 122.557 183.906 121.784 184.205 121.08C184.514 120.376 184.946 119.763 185.501 119.24C186.055 118.717 186.706 118.317 187.453 118.04C188.199 117.752 189.021 117.608 189.917 117.608C190.909 117.608 191.799 117.773 192.589 118.104C193.389 118.435 194.061 118.915 194.605 119.544L192.941 121.08C192.535 120.653 192.093 120.339 191.613 120.136C191.133 119.923 190.61 119.816 190.045 119.816C189.501 119.816 189.005 119.901 188.557 120.072C188.109 120.243 187.719 120.488 187.389 120.808C187.069 121.128 186.818 121.507 186.637 121.944C186.466 122.381 186.381 122.867 186.381 123.4C186.381 123.923 186.466 124.403 186.637 124.84C186.818 125.277 187.069 125.661 187.389 125.992C187.719 126.312 188.103 126.557 188.541 126.728C188.989 126.899 189.479 126.984 190.013 126.984C190.525 126.984 191.021 126.904 191.501 126.744C191.991 126.573 192.466 126.291 192.925 125.896L194.397 127.768C193.789 128.227 193.079 128.579 192.269 128.824C191.469 129.069 190.669 129.192 189.869 129.192ZM192.029 127.432V123.224H194.397V127.768L192.029 127.432Z" fill="#1D2029"/>
</svg>
