<svg width="16" height="17" viewBox="0 0 16 17" fill="none" xmlns="http://www.w3.org/2000/svg">
<path d="M9.81326 6.35999L6.95326 9.22666L5.85325 8.12666C5.79349 8.05687 5.71994 8.00019 5.63723 7.96018C5.55452 7.92016 5.46444 7.89768 5.37262 7.89413C5.28081 7.89058 5.18926 7.90605 5.10371 7.93957C5.01816 7.97309 4.94046 8.02392 4.87549 8.08889C4.81052 8.15386 4.75968 8.23156 4.72616 8.31711C4.69265 8.40266 4.67718 8.49422 4.68072 8.58603C4.68427 8.67784 4.70676 8.76793 4.74677 8.85064C4.78679 8.93335 4.84347 9.0069 4.91325 9.06666L6.47992 10.64C6.54222 10.7018 6.61609 10.7507 6.69732 10.7838C6.77854 10.817 6.86552 10.8338 6.95326 10.8333C7.12815 10.8326 7.29575 10.7632 7.41992 10.64L10.7533 7.30666C10.8157 7.24469 10.8653 7.17095 10.8992 7.08971C10.933 7.00847 10.9505 6.92134 10.9505 6.83333C10.9505 6.74532 10.933 6.65818 10.8992 6.57694C10.8653 6.4957 10.8157 6.42197 10.7533 6.35999C10.6283 6.23583 10.4594 6.16613 10.2833 6.16613C10.1071 6.16613 9.93816 6.23583 9.81326 6.35999ZM7.99992 1.83333C6.68138 1.83333 5.39245 2.22432 4.29612 2.95686C3.19979 3.68941 2.34531 4.7306 1.84072 5.94877C1.33614 7.16695 1.20412 8.50739 1.46135 9.8006C1.71859 11.0938 2.35353 12.2817 3.28588 13.214C4.21823 14.1464 5.40611 14.7813 6.69932 15.0386C7.99253 15.2958 9.33297 15.1638 10.5511 14.6592C11.7693 14.1546 12.8105 13.3001 13.5431 12.2038C14.2756 11.1075 14.6666 9.81854 14.6666 8.5C14.6666 7.62452 14.4942 6.75761 14.1591 5.94877C13.8241 5.13993 13.333 4.40501 12.714 3.78595C12.0949 3.16689 11.36 2.67583 10.5511 2.3408C9.74231 2.00577 8.8754 1.83333 7.99992 1.83333ZM7.99992 13.8333C6.94509 13.8333 5.91394 13.5205 5.03688 12.9345C4.15982 12.3485 3.47623 11.5155 3.07256 10.541C2.6689 9.56643 2.56328 8.49408 2.76907 7.45951C2.97485 6.42495 3.48281 5.47464 4.22869 4.72876C4.97457 3.98288 5.92487 3.47493 6.95944 3.26914C7.99401 3.06335 9.06636 3.16897 10.0409 3.57264C11.0154 3.97631 11.8484 4.65989 12.4344 5.53695C13.0205 6.41402 13.3333 7.44516 13.3333 8.5C13.3333 9.91448 12.7714 11.271 11.7712 12.2712C10.771 13.2714 9.41441 13.8333 7.99992 13.8333Z" fill="#12B76A"/>
</svg>
