<svg width="152" height="39" viewBox="0 0 152 39" fill="none" xmlns="http://www.w3.org/2000/svg">
<path d="M1.328 15V3.8H3.92V15H1.328ZM6.258 15V3.8H8.402L13.17 11.704H12.034L16.722 3.8H18.85L18.882 15H16.45L16.434 7.528H16.882L13.138 13.816H11.97L8.146 7.528H8.69V15H6.258ZM21.2193 15V3.8H26.0673C27.0699 3.8 27.9339 3.96533 28.6593 4.296C29.3846 4.616 29.9446 5.08 30.3393 5.688C30.7339 6.296 30.9313 7.02133 30.9313 7.864C30.9313 8.696 30.7339 9.416 30.3393 10.024C29.9446 10.632 29.3846 11.1013 28.6593 11.432C27.9339 11.752 27.0699 11.912 26.0673 11.912H22.6593L23.8113 10.744V15H21.2193ZM23.8113 11.032L22.6593 9.8H25.9233C26.7233 9.8 27.3206 9.62933 27.7153 9.288C28.1099 8.94667 28.3073 8.472 28.3073 7.864C28.3073 7.24533 28.1099 6.76533 27.7153 6.424C27.3206 6.08267 26.7233 5.912 25.9233 5.912H22.6593L23.8113 4.68V11.032ZM30.4273 15L35.4193 3.8H37.9793L42.9873 15H40.2673L36.1713 5.112H37.1953L33.0833 15H30.4273ZM32.9233 12.6L33.6113 10.632H39.3713L40.0753 12.6H32.9233ZM46.1493 12.44L46.0053 9.448L51.3653 3.8H54.2453L49.4133 9L47.9733 10.536L46.1493 12.44ZM43.8293 15V3.8H46.4053V15H43.8293ZM51.4933 15L47.5093 10.12L49.2053 8.28L54.5173 15H51.4933ZM56.9074 15V5.912H53.3234V3.8H63.0834V5.912H59.4994V15H56.9074ZM66.542 8.312H71.934V10.328H66.542V8.312ZM66.734 12.92H72.83V15H64.158V3.8H72.622V5.88H66.734V12.92ZM74.5724 15V3.8H79.4204C80.423 3.8 81.287 3.96533 82.0124 4.296C82.7377 4.616 83.2977 5.08 83.6924 5.688C84.087 6.296 84.2844 7.02133 84.2844 7.864C84.2844 8.696 84.087 9.416 83.6924 10.024C83.2977 10.6213 82.7377 11.08 82.0124 11.4C81.287 11.72 80.423 11.88 79.4204 11.88H76.0124L77.1644 10.744V15H74.5724ZM81.6924 15L78.8924 10.936H81.6604L84.4924 15H81.6924ZM77.1644 11.032L76.0124 9.816H79.2764C80.0764 9.816 80.6737 9.64533 81.0684 9.304C81.463 8.952 81.6604 8.472 81.6604 7.864C81.6604 7.24533 81.463 6.76533 81.0684 6.424C80.6737 6.08267 80.0764 5.912 79.2764 5.912H76.0124L77.1644 4.68V11.032Z" fill="#1D2029"/>
<path d="M90.2293 15V3.8H95.0773C96.0799 3.8 96.9439 3.96533 97.6693 4.296C98.3946 4.616 98.9546 5.08 99.3493 5.688C99.7439 6.296 99.9413 7.02133 99.9413 7.864C99.9413 8.696 99.7439 9.416 99.3493 10.024C98.9546 10.632 98.3946 11.1013 97.6693 11.432C96.9439 11.752 96.0799 11.912 95.0773 11.912H91.6693L92.8213 10.744V15H90.2293ZM92.8213 11.032L91.6693 9.8H94.9333C95.7333 9.8 96.3306 9.62933 96.7253 9.288C97.1199 8.94667 97.3173 8.472 97.3173 7.864C97.3173 7.24533 97.1199 6.76533 96.7253 6.424C96.3306 6.08267 95.7333 5.912 94.9333 5.912H91.6693L92.8213 4.68V11.032ZM101.472 15V3.8H106.32C107.322 3.8 108.186 3.96533 108.912 4.296C109.637 4.616 110.197 5.08 110.592 5.688C110.986 6.296 111.184 7.02133 111.184 7.864C111.184 8.696 110.986 9.416 110.592 10.024C110.197 10.6213 109.637 11.08 108.912 11.4C108.186 11.72 107.322 11.88 106.32 11.88H102.912L104.064 10.744V15H101.472ZM108.592 15L105.792 10.936H108.56L111.392 15H108.592ZM104.064 11.032L102.912 9.816H106.176C106.976 9.816 107.573 9.64533 107.968 9.304C108.362 8.952 108.56 8.472 108.56 7.864C108.56 7.24533 108.362 6.76533 107.968 6.424C107.573 6.08267 106.976 5.912 106.176 5.912H102.912L104.064 4.68V11.032ZM118.357 15.192C117.472 15.192 116.651 15.048 115.893 14.76C115.147 14.472 114.496 14.0667 113.941 13.544C113.397 13.0213 112.971 12.408 112.661 11.704C112.363 11 112.213 10.232 112.213 9.4C112.213 8.568 112.363 7.8 112.661 7.096C112.971 6.392 113.403 5.77867 113.957 5.256C114.512 4.73333 115.163 4.328 115.909 4.04C116.656 3.752 117.467 3.608 118.341 3.608C119.227 3.608 120.037 3.752 120.773 4.04C121.52 4.328 122.165 4.73333 122.709 5.256C123.264 5.77867 123.696 6.392 124.005 7.096C124.315 7.78933 124.469 8.55733 124.469 9.4C124.469 10.232 124.315 11.0053 124.005 11.72C123.696 12.424 123.264 13.0373 122.709 13.56C122.165 14.072 121.52 14.472 120.773 14.76C120.037 15.048 119.232 15.192 118.357 15.192ZM118.341 12.984C118.843 12.984 119.301 12.8987 119.717 12.728C120.144 12.5573 120.517 12.312 120.837 11.992C121.157 11.672 121.403 11.2933 121.573 10.856C121.755 10.4187 121.845 9.93333 121.845 9.4C121.845 8.86667 121.755 8.38133 121.573 7.944C121.403 7.50667 121.157 7.128 120.837 6.808C120.528 6.488 120.16 6.24267 119.733 6.072C119.307 5.90133 118.843 5.816 118.341 5.816C117.84 5.816 117.376 5.90133 116.949 6.072C116.533 6.24267 116.165 6.488 115.845 6.808C115.525 7.128 115.275 7.50667 115.093 7.944C114.923 8.38133 114.837 8.86667 114.837 9.4C114.837 9.92267 114.923 10.408 115.093 10.856C115.275 11.2933 115.52 11.672 115.829 11.992C116.149 12.312 116.523 12.5573 116.949 12.728C117.376 12.8987 117.84 12.984 118.341 12.984Z" fill="#1492EF"/>
<path d="M4.8 36.036C4.2 36.036 3.644 35.928 3.132 35.712C2.62 35.496 2.172 35.196 1.788 34.812C1.404 34.42 1.104 33.968 0.888 33.456C0.68 32.944 0.576 32.392 0.576 31.8C0.576 31.208 0.684 30.656 0.9 30.144C1.116 29.632 1.416 29.184 1.8 28.8C2.184 28.408 2.632 28.104 3.144 27.888C3.664 27.672 4.224 27.564 4.824 27.564C5.424 27.564 5.98 27.672 6.492 27.888C7.012 28.096 7.46 28.392 7.836 28.776C8.22 29.16 8.516 29.608 8.724 30.12C8.94 30.624 9.048 31.176 9.048 31.776C9.048 32.376 8.94 32.936 8.724 33.456C8.508 33.968 8.204 34.42 7.812 34.812C7.428 35.196 6.98 35.496 6.468 35.712C5.956 35.928 5.4 36.036 4.8 36.036ZM4.8 35.496C5.32 35.496 5.804 35.4 6.252 35.208C6.7 35.016 7.092 34.752 7.428 34.416C7.764 34.08 8.024 33.688 8.208 33.24C8.392 32.784 8.484 32.296 8.484 31.776C8.484 31.256 8.392 30.772 8.208 30.324C8.024 29.876 7.768 29.488 7.44 29.16C7.112 28.832 6.724 28.576 6.276 28.392C5.836 28.2 5.352 28.104 4.824 28.104C4.296 28.104 3.804 28.2 3.348 28.392C2.9 28.576 2.512 28.84 2.184 29.184C1.856 29.52 1.6 29.912 1.416 30.36C1.232 30.8 1.14 31.28 1.14 31.8C1.14 32.32 1.232 32.804 1.416 33.252C1.6 33.7 1.856 34.092 2.184 34.428C2.512 34.764 2.9 35.028 3.348 35.22C3.796 35.404 4.28 35.496 4.8 35.496ZM4.932 34.272C4.444 34.272 4.008 34.168 3.624 33.96C3.24 33.752 2.94 33.464 2.724 33.096C2.508 32.72 2.4 32.288 2.4 31.8C2.4 31.312 2.508 30.884 2.724 30.516C2.94 30.14 3.24 29.848 3.624 29.64C4.008 29.432 4.444 29.328 4.932 29.328C5.356 29.328 5.736 29.416 6.072 29.592C6.416 29.76 6.684 29.996 6.876 30.3L6.192 30.792C6.04 30.568 5.852 30.404 5.628 30.3C5.412 30.196 5.176 30.144 4.92 30.144C4.608 30.144 4.332 30.216 4.092 30.36C3.86 30.496 3.672 30.688 3.528 30.936C3.384 31.176 3.312 31.464 3.312 31.8C3.312 32.136 3.384 32.428 3.528 32.676C3.672 32.916 3.86 33.108 4.092 33.252C4.332 33.388 4.608 33.456 4.92 33.456C5.176 33.456 5.412 33.404 5.628 33.3C5.852 33.196 6.04 33.032 6.192 32.808L6.876 33.288C6.684 33.592 6.416 33.832 6.072 34.008C5.736 34.184 5.356 34.272 4.932 34.272ZM9.70791 36V35.184L13.1279 31.884C13.4319 31.596 13.6559 31.344 13.7999 31.128C13.9519 30.904 14.0519 30.7 14.0999 30.516C14.1559 30.324 14.1839 30.14 14.1839 29.964C14.1839 29.532 14.0319 29.192 13.7279 28.944C13.4239 28.696 12.9799 28.572 12.3959 28.572C11.9479 28.572 11.5439 28.648 11.1839 28.8C10.8239 28.944 10.5119 29.172 10.2479 29.484L9.43191 28.776C9.75191 28.368 10.1799 28.056 10.7159 27.84C11.2599 27.616 11.8559 27.504 12.5039 27.504C13.0879 27.504 13.5959 27.6 14.0279 27.792C14.4599 27.976 14.7919 28.244 15.0239 28.596C15.2639 28.948 15.3839 29.364 15.3839 29.844C15.3839 30.116 15.3479 30.384 15.2759 30.648C15.2039 30.912 15.0679 31.192 14.8679 31.488C14.6679 31.784 14.3799 32.116 14.0039 32.484L10.9559 35.424L10.6679 34.956H15.7439V36H9.70791ZM19.9108 36.096C19.2548 36.096 18.6668 35.928 18.1468 35.592C17.6348 35.256 17.2268 34.768 16.9228 34.128C16.6268 33.488 16.4788 32.712 16.4788 31.8C16.4788 30.888 16.6268 30.112 16.9228 29.472C17.2268 28.832 17.6348 28.344 18.1468 28.008C18.6668 27.672 19.2548 27.504 19.9108 27.504C20.5588 27.504 21.1428 27.672 21.6628 28.008C22.1828 28.344 22.5908 28.832 22.8868 29.472C23.1828 30.112 23.3308 30.888 23.3308 31.8C23.3308 32.712 23.1828 33.488 22.8868 34.128C22.5908 34.768 22.1828 35.256 21.6628 35.592C21.1428 35.928 20.5588 36.096 19.9108 36.096ZM19.9108 35.028C20.3508 35.028 20.7348 34.908 21.0628 34.668C21.3988 34.428 21.6588 34.068 21.8428 33.588C22.0348 33.108 22.1308 32.512 22.1308 31.8C22.1308 31.088 22.0348 30.492 21.8428 30.012C21.6588 29.532 21.3988 29.172 21.0628 28.932C20.7348 28.692 20.3508 28.572 19.9108 28.572C19.4708 28.572 19.0828 28.692 18.7468 28.932C18.4108 29.172 18.1468 29.532 17.9548 30.012C17.7708 30.492 17.6788 31.088 17.6788 31.8C17.6788 32.512 17.7708 33.108 17.9548 33.588C18.1468 34.068 18.4108 34.428 18.7468 34.668C19.0828 34.908 19.4708 35.028 19.9108 35.028ZM24.1107 36V35.184L27.5307 31.884C27.8347 31.596 28.0587 31.344 28.2027 31.128C28.3547 30.904 28.4547 30.7 28.5027 30.516C28.5587 30.324 28.5867 30.14 28.5867 29.964C28.5867 29.532 28.4347 29.192 28.1307 28.944C27.8267 28.696 27.3827 28.572 26.7987 28.572C26.3507 28.572 25.9467 28.648 25.5867 28.8C25.2267 28.944 24.9147 29.172 24.6507 29.484L23.8347 28.776C24.1547 28.368 24.5827 28.056 25.1187 27.84C25.6627 27.616 26.2587 27.504 26.9067 27.504C27.4907 27.504 27.9987 27.6 28.4307 27.792C28.8627 27.976 29.1947 28.244 29.4267 28.596C29.6667 28.948 29.7867 29.364 29.7867 29.844C29.7867 30.116 29.7507 30.384 29.6787 30.648C29.6067 30.912 29.4707 31.192 29.2707 31.488C29.0707 31.784 28.7827 32.116 28.4067 32.484L25.3587 35.424L25.0707 34.956H30.1467V36H24.1107ZM30.5507 33.936V33.096L34.8467 27.6H36.1427L31.8827 33.096L31.2707 32.904H37.9787V33.936H30.5507ZM35.2187 36V33.936L35.2547 32.904V31.08H36.3827V36H35.2187ZM42.1247 36V27.6H43.3247V36H42.1247ZM45.5995 36V27.6H46.5835L50.3515 33.948H49.8235L53.5435 27.6H54.5275L54.5395 36H53.3875L53.3755 29.412H53.6515L50.3395 34.98H49.7875L46.4515 29.412H46.7515V36H45.5995ZM56.8205 36V27.6H60.0965C60.8325 27.6 61.4605 27.716 61.9805 27.948C62.5005 28.18 62.9005 28.516 63.1805 28.956C63.4605 29.396 63.6005 29.92 63.6005 30.528C63.6005 31.136 63.4605 31.66 63.1805 32.1C62.9005 32.532 62.5005 32.868 61.9805 33.108C61.4605 33.34 60.8325 33.456 60.0965 33.456H57.4805L58.0205 32.892V36H56.8205ZM58.0205 33.012L57.4805 32.412H60.0605C60.8285 32.412 61.4085 32.248 61.8005 31.92C62.2005 31.592 62.4005 31.128 62.4005 30.528C62.4005 29.928 62.2005 29.464 61.8005 29.136C61.4085 28.808 60.8285 28.644 60.0605 28.644H57.4805L58.0205 28.044V33.012ZM63.4296 36L67.2336 27.6H68.4216L72.2376 36H70.9776L67.5816 28.272H68.0616L64.6656 36H63.4296ZM65.0496 33.9L65.3736 32.94H70.1016L70.4496 33.9H65.0496ZM74.3066 33.972L74.2466 32.508L79.0106 27.6H80.3786L76.6946 31.488L76.0226 32.232L74.3066 33.972ZM73.2506 36V27.6H74.4506V36H73.2506ZM79.2026 36L75.7586 31.992L76.5626 31.104L80.6066 36H79.2026ZM82.788 36V28.644H79.908V27.6H86.856V28.644H83.976V36H82.788ZM89.015 31.224H93.335V32.244H89.015V31.224ZM89.123 34.956H94.019V36H87.923V27.6H93.851V28.644H89.123V34.956ZM95.722 36V27.6H98.998C99.734 27.6 100.362 27.716 100.882 27.948C101.402 28.18 101.802 28.516 102.082 28.956C102.362 29.396 102.502 29.92 102.502 30.528C102.502 31.136 102.362 31.66 102.082 32.1C101.802 32.532 101.402 32.864 100.882 33.096C100.362 33.328 99.734 33.444 98.998 33.444H96.382L96.922 32.892V36H95.722ZM101.338 36L99.202 32.952H100.486L102.646 36H101.338ZM96.922 33.012L96.382 32.424H98.962C99.73 32.424 100.31 32.26 100.702 31.932C101.102 31.596 101.302 31.128 101.302 30.528C101.302 29.928 101.102 29.464 100.702 29.136C100.31 28.808 99.73 28.644 98.962 28.644H96.382L96.922 28.044V33.012ZM107.183 36V27.6H108.383V34.956H112.931V36H107.183ZM113.9 36V29.64H115.052V36H113.9ZM114.476 28.416C114.252 28.416 114.064 28.344 113.912 28.2C113.768 28.056 113.696 27.88 113.696 27.672C113.696 27.456 113.768 27.276 113.912 27.132C114.064 26.988 114.252 26.916 114.476 26.916C114.7 26.916 114.884 26.988 115.028 27.132C115.18 27.268 115.256 27.44 115.256 27.648C115.256 27.864 115.184 28.048 115.04 28.2C114.896 28.344 114.708 28.416 114.476 28.416ZM124.968 29.58C125.48 29.58 125.932 29.68 126.324 29.88C126.716 30.08 127.02 30.384 127.236 30.792C127.46 31.2 127.572 31.716 127.572 32.34V36H126.42V32.472C126.42 31.856 126.276 31.392 125.988 31.08C125.7 30.768 125.296 30.612 124.776 30.612C124.392 30.612 124.056 30.692 123.768 30.852C123.48 31.012 123.256 31.248 123.096 31.56C122.944 31.872 122.868 32.26 122.868 32.724V36H121.716V32.472C121.716 31.856 121.572 31.392 121.284 31.08C121.004 30.768 120.6 30.612 120.072 30.612C119.696 30.612 119.364 30.692 119.076 30.852C118.788 31.012 118.564 31.248 118.404 31.56C118.244 31.872 118.164 32.26 118.164 32.724V36H117.012V29.64H118.116V31.332L117.936 30.9C118.136 30.484 118.444 30.16 118.86 29.928C119.276 29.696 119.76 29.58 120.312 29.58C120.92 29.58 121.444 29.732 121.884 30.036C122.324 30.332 122.612 30.784 122.748 31.392L122.28 31.2C122.472 30.712 122.808 30.32 123.288 30.024C123.768 29.728 124.328 29.58 124.968 29.58ZM129.452 36V29.64H130.604V36H129.452ZM130.028 28.416C129.804 28.416 129.616 28.344 129.464 28.2C129.32 28.056 129.248 27.88 129.248 27.672C129.248 27.456 129.32 27.276 129.464 27.132C129.616 26.988 129.804 26.916 130.028 26.916C130.252 26.916 130.436 26.988 130.58 27.132C130.732 27.268 130.808 27.44 130.808 27.648C130.808 27.864 130.736 28.048 130.592 28.2C130.448 28.344 130.26 28.416 130.028 28.416ZM134.747 36.072C134.107 36.072 133.611 35.9 133.259 35.556C132.907 35.212 132.731 34.72 132.731 34.08V28.248H133.883V34.032C133.883 34.376 133.967 34.64 134.135 34.824C134.311 35.008 134.559 35.1 134.879 35.1C135.239 35.1 135.539 35 135.779 34.8L136.139 35.628C135.963 35.78 135.751 35.892 135.503 35.964C135.263 36.036 135.011 36.072 134.747 36.072ZM131.651 30.588V29.64H135.707V30.588H131.651ZM139.913 36.072C139.233 36.072 138.633 35.932 138.113 35.652C137.601 35.372 137.201 34.988 136.913 34.5C136.633 34.012 136.493 33.452 136.493 32.82C136.493 32.188 136.629 31.628 136.901 31.14C137.181 30.652 137.561 30.272 138.041 30C138.529 29.72 139.077 29.58 139.685 29.58C140.301 29.58 140.845 29.716 141.317 29.988C141.789 30.26 142.157 30.644 142.421 31.14C142.693 31.628 142.829 32.2 142.829 32.856C142.829 32.904 142.825 32.96 142.817 33.024C142.817 33.088 142.813 33.148 142.805 33.204H137.393V32.376H142.205L141.737 32.664C141.745 32.256 141.661 31.892 141.485 31.572C141.309 31.252 141.065 31.004 140.753 30.828C140.449 30.644 140.093 30.552 139.685 30.552C139.285 30.552 138.929 30.644 138.617 30.828C138.305 31.004 138.061 31.256 137.885 31.584C137.709 31.904 137.621 32.272 137.621 32.688V32.88C137.621 33.304 137.717 33.684 137.909 34.02C138.109 34.348 138.385 34.604 138.737 34.788C139.089 34.972 139.493 35.064 139.949 35.064C140.325 35.064 140.665 35 140.969 34.872C141.281 34.744 141.553 34.552 141.785 34.296L142.421 35.04C142.133 35.376 141.773 35.632 141.341 35.808C140.917 35.984 140.441 36.072 139.913 36.072ZM146.817 36.072C146.201 36.072 145.649 35.936 145.161 35.664C144.681 35.392 144.301 35.012 144.021 34.524C143.741 34.036 143.601 33.468 143.601 32.82C143.601 32.172 143.741 31.608 144.021 31.128C144.301 30.64 144.681 30.26 145.161 29.988C145.649 29.716 146.201 29.58 146.817 29.58C147.353 29.58 147.837 29.7 148.269 29.94C148.701 30.18 149.045 30.54 149.301 31.02C149.565 31.5 149.697 32.1 149.697 32.82C149.697 33.54 149.569 34.14 149.313 34.62C149.065 35.1 148.725 35.464 148.293 35.712C147.861 35.952 147.369 36.072 146.817 36.072ZM146.913 35.064C147.313 35.064 147.673 34.972 147.993 34.788C148.321 34.604 148.577 34.344 148.761 34.008C148.953 33.664 149.049 33.268 149.049 32.82C149.049 32.364 148.953 31.972 148.761 31.644C148.577 31.308 148.321 31.048 147.993 30.864C147.673 30.68 147.313 30.588 146.913 30.588C146.505 30.588 146.141 30.68 145.821 30.864C145.501 31.048 145.245 31.308 145.053 31.644C144.861 31.972 144.765 32.364 144.765 32.82C144.765 33.268 144.861 33.664 145.053 34.008C145.245 34.344 145.501 34.604 145.821 34.788C146.141 34.972 146.505 35.064 146.913 35.064ZM149.085 36V34.284L149.157 32.808L149.037 31.332V27.096H150.189V36H149.085Z" fill="#7C7C7C"/>
</svg>
