<svg width="16" height="16" viewBox="0 0 16 16" fill="none" xmlns="http://www.w3.org/2000/svg">
<g clip-path="url(#clip0_1776_74413)">
<path fill-rule="evenodd" clip-rule="evenodd" d="M8.00008 1.99996C4.68637 1.99996 2.00008 4.68625 2.00008 7.99996C2.00008 11.3137 4.68637 14 8.00008 14C11.3138 14 14.0001 11.3137 14.0001 7.99996C14.0001 4.68625 11.3138 1.99996 8.00008 1.99996ZM0.666748 7.99996C0.666748 3.94987 3.94999 0.666626 8.00008 0.666626C12.0502 0.666626 15.3334 3.94987 15.3334 7.99996C15.3334 12.05 12.0502 15.3333 8.00008 15.3333C3.94999 15.3333 0.666748 12.05 0.666748 7.99996ZM7.52868 5.8047C7.26833 5.54435 7.26833 5.12224 7.52868 4.86189C7.78903 4.60154 8.21114 4.60154 8.47149 4.86189L11.1382 7.52855C11.3985 7.7889 11.3985 8.21101 11.1382 8.47136L8.47149 11.138C8.21114 11.3984 7.78903 11.3984 7.52868 11.138C7.26833 10.8777 7.26833 10.4556 7.52868 10.1952L9.05727 8.66663H5.33341C4.96522 8.66663 4.66675 8.36815 4.66675 7.99996C4.66675 7.63177 4.96522 7.33329 5.33341 7.33329H9.05727L7.52868 5.8047Z" fill="#1492EF"/>
</g>
<defs>
<clipPath id="clip0_1776_74413">
<rect width="16" height="16" fill="white"/>
</clipPath>
</defs>
</svg>
