<svg width="21" height="20" viewBox="0 0 21 20" fill="none" xmlns="http://www.w3.org/2000/svg">
<path fill-rule="evenodd" clip-rule="evenodd" d="M3.45825 1.875C3.29249 1.875 3.13352 1.94085 3.01631 2.05806C2.8991 2.17527 2.83325 2.33424 2.83325 2.5V18.125H6.58325V16.25C6.58325 15.9048 6.86307 15.625 7.20825 15.625C7.55343 15.625 7.83325 15.9048 7.83325 16.25V18.125H11.5833V2.5C11.5833 2.33424 11.5174 2.17527 11.4002 2.05806C11.283 1.94085 11.124 1.875 10.9583 1.875H3.45825ZM12.8333 8.125V18.125H17.8333V8.75C17.8333 8.58424 17.7674 8.42527 17.6502 8.30806C17.533 8.19085 17.374 8.125 17.2083 8.125H12.8333ZM12.1342 19.3707C12.1585 19.3735 12.1832 19.375 12.2083 19.375H18.4583C18.8034 19.375 19.0833 19.0952 19.0833 18.75V8.75C19.0833 8.25272 18.8857 7.77581 18.5341 7.42418C18.1824 7.07254 17.7055 6.875 17.2083 6.875H12.8333V2.5C12.8333 2.00272 12.6357 1.52581 12.2841 1.17417C11.9324 0.822544 11.4555 0.625 10.9583 0.625H3.45825C2.96097 0.625 2.48406 0.822544 2.13243 1.17417C1.7808 1.52581 1.58325 2.00272 1.58325 2.5V18.75C1.58325 19.0952 1.86307 19.375 2.20825 19.375H12.052C12.0796 19.375 12.107 19.3735 12.1342 19.3707Z" fill="#1492EF"/>
<path d="M4.1645 16.8699C4.03506 16.8869 3.90357 16.8628 3.78848 16.8012C3.67339 16.7396 3.58048 16.6435 3.52279 16.5264C3.4651 16.4093 3.44553 16.2771 3.46682 16.1483C3.48811 16.0195 3.5492 15.9006 3.64151 15.8083C3.73382 15.7159 3.85271 15.6549 3.98151 15.6336C4.11031 15.6123 4.24254 15.6318 4.35964 15.6895C4.47675 15.7472 4.57285 15.8401 4.63446 15.9552C4.69608 16.0703 4.7201 16.2018 4.70317 16.3312C4.68531 16.4679 4.62281 16.5947 4.52539 16.6921C4.42798 16.7896 4.30111 16.8521 4.1645 16.8699Z" fill="#1492EF"/>
<path d="M4.1645 13.7449C4.03506 13.7619 3.90357 13.7378 3.78848 13.6762C3.67339 13.6146 3.58048 13.5185 3.52279 13.4014C3.4651 13.2843 3.44553 13.1521 3.46682 13.0233C3.48811 12.8945 3.5492 12.7756 3.64151 12.6833C3.73382 12.5909 3.85271 12.5299 3.98151 12.5086C4.11031 12.4873 4.24254 12.5068 4.35964 12.5645C4.47675 12.6222 4.57285 12.7151 4.63446 12.8302C4.69608 12.9453 4.7201 13.0768 4.70317 13.2062C4.68531 13.3429 4.62281 13.4697 4.52539 13.5671C4.42798 13.6646 4.30111 13.7271 4.1645 13.7449Z" fill="#1492EF"/>
<path d="M4.1645 10.6199C4.03506 10.6369 3.90357 10.6128 3.78848 10.5512C3.67339 10.4896 3.58048 10.3935 3.52279 10.2764C3.4651 10.1593 3.44553 10.0271 3.46682 9.89826C3.48811 9.76946 3.5492 9.65057 3.64151 9.55826C3.73382 9.46595 3.85271 9.40486 3.98151 9.38357C4.11031 9.36228 4.24254 9.38185 4.35964 9.43954C4.47675 9.49722 4.57285 9.59013 4.63446 9.70522C4.69608 9.82031 4.7201 9.95181 4.70317 10.0812C4.68531 10.2179 4.62281 10.3447 4.52539 10.4421C4.42798 10.5396 4.30111 10.6021 4.1645 10.6199Z" fill="#1492EF"/>
<path d="M4.1645 7.49492C4.03506 7.51185 3.90357 7.48782 3.78848 7.42621C3.67339 7.3646 3.58048 7.2685 3.52279 7.15139C3.4651 7.03428 3.44553 6.90205 3.46682 6.77326C3.48811 6.64446 3.5492 6.52557 3.64151 6.43326C3.73382 6.34095 3.85271 6.27986 3.98151 6.25857C4.11031 6.23728 4.24254 6.25685 4.35964 6.31454C4.47675 6.37222 4.57285 6.46513 4.63446 6.58022C4.69608 6.69531 4.7201 6.82681 4.70317 6.95625C4.68531 7.09285 4.62281 7.21973 4.52539 7.31714C4.42798 7.41456 4.30111 7.47706 4.1645 7.49492Z" fill="#1492EF"/>
<path d="M4.1645 4.36992C4.03506 4.38685 3.90357 4.36282 3.78848 4.30121C3.67339 4.2396 3.58048 4.1435 3.52279 4.02639C3.4651 3.90928 3.44553 3.77705 3.46682 3.64826C3.48811 3.51946 3.5492 3.40057 3.64151 3.30826C3.73382 3.21595 3.85271 3.15486 3.98151 3.13357C4.11031 3.11228 4.24254 3.13185 4.35964 3.18954C4.47675 3.24722 4.57285 3.34013 4.63446 3.45522C4.69608 3.57031 4.7201 3.70181 4.70317 3.83125C4.68531 3.96785 4.62281 4.09473 4.52539 4.19214C4.42798 4.28956 4.30111 4.35206 4.1645 4.36992Z" fill="#1492EF"/>
<path d="M7.2895 13.7449C7.16006 13.7619 7.02857 13.7378 6.91348 13.6762C6.79839 13.6146 6.70548 13.5185 6.64779 13.4014C6.5901 13.2843 6.57053 13.1521 6.59182 13.0233C6.61311 12.8945 6.6742 12.7756 6.76651 12.6833C6.85882 12.5909 6.97771 12.5299 7.10651 12.5086C7.23531 12.4873 7.36754 12.5068 7.48464 12.5645C7.60175 12.6222 7.69785 12.7151 7.75946 12.8302C7.82108 12.9453 7.8451 13.0768 7.82817 13.2062C7.81031 13.3429 7.74781 13.4697 7.65039 13.5671C7.55298 13.6646 7.42611 13.7271 7.2895 13.7449Z" fill="#1492EF"/>
<path d="M7.2895 10.6199C7.16006 10.6369 7.02857 10.6128 6.91348 10.5512C6.79839 10.4896 6.70548 10.3935 6.64779 10.2764C6.5901 10.1593 6.57053 10.0271 6.59182 9.89826C6.61311 9.76946 6.6742 9.65057 6.76651 9.55826C6.85882 9.46595 6.97771 9.40486 7.10651 9.38357C7.23531 9.36228 7.36754 9.38185 7.48464 9.43954C7.60175 9.49722 7.69785 9.59013 7.75946 9.70522C7.82108 9.82031 7.8451 9.95181 7.82817 10.0812C7.81031 10.2179 7.74781 10.3447 7.65039 10.4421C7.55298 10.5396 7.42611 10.6021 7.2895 10.6199Z" fill="#1492EF"/>
<path d="M7.2895 7.49492C7.16006 7.51185 7.02857 7.48782 6.91348 7.42621C6.79839 7.3646 6.70548 7.2685 6.64779 7.15139C6.5901 7.03428 6.57053 6.90205 6.59182 6.77326C6.61311 6.64446 6.6742 6.52557 6.76651 6.43326C6.85882 6.34095 6.97771 6.27986 7.10651 6.25857C7.23531 6.23728 7.36754 6.25685 7.48464 6.31454C7.60175 6.37222 7.69785 6.46513 7.75946 6.58022C7.82108 6.69531 7.8451 6.82681 7.82817 6.95625C7.81031 7.09285 7.74781 7.21973 7.65039 7.31714C7.55298 7.41456 7.42611 7.47706 7.2895 7.49492Z" fill="#1492EF"/>
<path d="M7.2895 4.36992C7.16006 4.38685 7.02857 4.36282 6.91348 4.30121C6.79839 4.2396 6.70548 4.1435 6.64779 4.02639C6.5901 3.90928 6.57053 3.77705 6.59182 3.64826C6.61311 3.51946 6.6742 3.40057 6.76651 3.30826C6.85882 3.21595 6.97771 3.15486 7.10651 3.13357C7.23531 3.11228 7.36754 3.13185 7.48464 3.18954C7.60175 3.24722 7.69785 3.34013 7.75946 3.45522C7.82108 3.57031 7.8451 3.70181 7.82817 3.83125C7.81031 3.96785 7.74781 4.09473 7.65039 4.19214C7.55298 4.28956 7.42611 4.35206 7.2895 4.36992Z" fill="#1492EF"/>
<path d="M10.4145 16.8699C10.2851 16.8869 10.1536 16.8628 10.0385 16.8012C9.92339 16.7396 9.83048 16.6435 9.77279 16.5264C9.7151 16.4093 9.69553 16.2771 9.71682 16.1483C9.73811 16.0195 9.7992 15.9006 9.89151 15.8083C9.98382 15.7159 10.1027 15.6549 10.2315 15.6336C10.3603 15.6123 10.4925 15.6318 10.6096 15.6895C10.7267 15.7472 10.8229 15.8401 10.8845 15.9552C10.9461 16.0703 10.9701 16.2018 10.9532 16.3312C10.9353 16.4679 10.8728 16.5947 10.7754 16.6921C10.678 16.7896 10.5511 16.8521 10.4145 16.8699Z" fill="#1492EF"/>
<path d="M10.4145 13.7449C10.2851 13.7619 10.1536 13.7378 10.0385 13.6762C9.92339 13.6146 9.83048 13.5185 9.77279 13.4014C9.7151 13.2843 9.69553 13.1521 9.71682 13.0233C9.73811 12.8945 9.7992 12.7756 9.89151 12.6833C9.98382 12.5909 10.1027 12.5299 10.2315 12.5086C10.3603 12.4873 10.4925 12.5068 10.6096 12.5645C10.7267 12.6222 10.8229 12.7151 10.8845 12.8302C10.9461 12.9453 10.9701 13.0768 10.9532 13.2062C10.9353 13.3429 10.8728 13.4697 10.7754 13.5671C10.678 13.6646 10.5511 13.7271 10.4145 13.7449Z" fill="#1492EF"/>
<path d="M10.4145 10.6199C10.2851 10.6369 10.1536 10.6128 10.0385 10.5512C9.92339 10.4896 9.83048 10.3935 9.77279 10.2764C9.7151 10.1593 9.69553 10.0271 9.71682 9.89826C9.73811 9.76946 9.7992 9.65057 9.89151 9.55826C9.98382 9.46595 10.1027 9.40486 10.2315 9.38357C10.3603 9.36228 10.4925 9.38185 10.6096 9.43954C10.7267 9.49722 10.8229 9.59013 10.8845 9.70522C10.9461 9.82031 10.9701 9.95181 10.9532 10.0812C10.9353 10.2179 10.8728 10.3447 10.7754 10.4421C10.678 10.5396 10.5511 10.6021 10.4145 10.6199Z" fill="#1492EF"/>
<path d="M10.776 7.31744C11.0193 7.07412 11.0184 6.67864 10.7738 6.43411C10.5293 6.18957 10.1338 6.18858 9.89049 6.4319C9.64717 6.67521 9.64816 7.07069 9.8927 7.31523C10.1372 7.55976 10.5327 7.56075 10.776 7.31744Z" fill="#1492EF"/>
<path d="M10.4145 4.36992C10.2851 4.38685 10.1536 4.36282 10.0385 4.30121C9.92339 4.2396 9.83048 4.1435 9.77279 4.02639C9.7151 3.90928 9.69553 3.77705 9.71682 3.64826C9.73811 3.51946 9.7992 3.40057 9.89151 3.30826C9.98382 3.21595 10.1027 3.15486 10.2315 3.13357C10.3603 3.11228 10.4925 3.13185 10.6096 3.18954C10.7267 3.24722 10.8229 3.34013 10.8845 3.45522C10.9461 3.57031 10.9701 3.70181 10.9532 3.83125C10.9353 3.96785 10.8728 4.09473 10.7754 4.19214C10.678 4.28956 10.5511 4.35206 10.4145 4.36992Z" fill="#1492EF"/>
<path d="M15.9583 15.625C15.8346 15.625 15.7138 15.6617 15.611 15.7303C15.5082 15.799 15.4281 15.8966 15.3808 16.0108C15.3335 16.125 15.3211 16.2507 15.3453 16.3719C15.3694 16.4932 15.4289 16.6045 15.5163 16.6919C15.6037 16.7794 15.7151 16.8389 15.8363 16.863C15.9576 16.8871 16.0832 16.8747 16.1974 16.8274C16.3116 16.7801 16.4092 16.7 16.4779 16.5972C16.5466 16.4945 16.5833 16.3736 16.5833 16.25C16.5833 16.0842 16.5174 15.9253 16.4002 15.8081C16.283 15.6908 16.124 15.625 15.9583 15.625Z" fill="#1492EF"/>
<path d="M15.9583 12.5C15.8346 12.5 15.7138 12.5367 15.611 12.6053C15.5082 12.674 15.4281 12.7716 15.3808 12.8858C15.3335 13 15.3211 13.1257 15.3453 13.2469C15.3694 13.3682 15.4289 13.4795 15.5163 13.5669C15.6037 13.6544 15.7151 13.7139 15.8363 13.738C15.9576 13.7621 16.0832 13.7497 16.1974 13.7024C16.3116 13.6551 16.4092 13.575 16.4779 13.4722C16.5466 13.3695 16.5833 13.2486 16.5833 13.125C16.5833 12.9592 16.5174 12.8003 16.4002 12.6831C16.283 12.5658 16.124 12.5 15.9583 12.5Z" fill="#1492EF"/>
<path d="M15.9583 9.375C15.8346 9.375 15.7138 9.41166 15.611 9.48033C15.5082 9.54901 15.4281 9.64662 15.3808 9.76082C15.3335 9.87503 15.3211 10.0007 15.3453 10.1219C15.3694 10.2432 15.4289 10.3545 15.5163 10.4419C15.6037 10.5294 15.7151 10.5889 15.8363 10.613C15.9576 10.6371 16.0832 10.6247 16.1974 10.5774C16.3116 10.5301 16.4092 10.45 16.4779 10.3472C16.5466 10.2445 16.5833 10.1236 16.5833 10C16.5833 9.83424 16.5174 9.67527 16.4002 9.55806C16.283 9.44085 16.124 9.375 15.9583 9.375Z" fill="#1492EF"/>
<path d="M13.4583 15.625C13.3346 15.625 13.2138 15.6617 13.111 15.7303C13.0082 15.799 12.9281 15.8966 12.8808 16.0108C12.8335 16.125 12.8211 16.2507 12.8453 16.3719C12.8694 16.4932 12.9289 16.6045 13.0163 16.6919C13.1037 16.7794 13.2151 16.8389 13.3363 16.863C13.4576 16.8871 13.5832 16.8747 13.6974 16.8274C13.8116 16.7801 13.9092 16.7 13.9779 16.5972C14.0466 16.4945 14.0833 16.3736 14.0833 16.25C14.0833 16.0842 14.0174 15.9253 13.9002 15.8081C13.783 15.6908 13.624 15.625 13.4583 15.625Z" fill="#1492EF"/>
<path d="M13.4583 12.5C13.3346 12.5 13.2138 12.5367 13.111 12.6053C13.0082 12.674 12.9281 12.7716 12.8808 12.8858C12.8335 13 12.8211 13.1257 12.8453 13.2469C12.8694 13.3682 12.9289 13.4795 13.0163 13.5669C13.1037 13.6544 13.2151 13.7139 13.3363 13.738C13.4576 13.7621 13.5832 13.7497 13.6974 13.7024C13.8116 13.6551 13.9092 13.575 13.9779 13.4722C14.0466 13.3695 14.0833 13.2486 14.0833 13.125C14.0833 12.9592 14.0174 12.8003 13.9002 12.6831C13.783 12.5658 13.624 12.5 13.4583 12.5Z" fill="#1492EF"/>
<path d="M13.4583 9.375C13.3346 9.375 13.2138 9.41166 13.111 9.48033C13.0082 9.54901 12.9281 9.64662 12.8808 9.76082C12.8335 9.87503 12.8211 10.0007 12.8453 10.1219C12.8694 10.2432 12.9289 10.3545 13.0163 10.4419C13.1037 10.5294 13.2151 10.5889 13.3363 10.613C13.4576 10.6371 13.5832 10.6247 13.6974 10.5774C13.8116 10.5301 13.9092 10.45 13.9779 10.3472C14.0466 10.2445 14.0833 10.1236 14.0833 10C14.0833 9.83424 14.0174 9.67527 13.9002 9.55806C13.783 9.44085 13.624 9.375 13.4583 9.375Z" fill="#1492EF"/>
</svg>
