<svg width="21" height="20" viewBox="0 0 21 20" fill="none" xmlns="http://www.w3.org/2000/svg">
<path fill-rule="evenodd" clip-rule="evenodd" d="M15.6667 3.125C14.9764 3.125 14.4167 3.68464 14.4167 4.375C14.4167 4.59054 14.4713 4.79333 14.5674 4.97033C14.5708 4.97606 14.5742 4.98186 14.5775 4.98773C14.5807 4.99337 14.5837 4.99904 14.5867 5.00473C14.8035 5.37575 15.206 5.625 15.6667 5.625C16.3571 5.625 16.9167 5.06536 16.9167 4.375C16.9167 3.68464 16.3571 3.125 15.6667 3.125ZM13.8634 6.10648C14.3184 6.58017 14.9581 6.875 15.6667 6.875C17.0475 6.875 18.1667 5.75571 18.1667 4.375C18.1667 2.99429 17.0475 1.875 15.6667 1.875C14.286 1.875 13.1667 2.99429 13.1667 4.375C13.1667 4.59706 13.1957 4.81236 13.25 5.01733L7.47007 8.26852C7.01514 7.79483 6.37538 7.5 5.66675 7.5C4.28604 7.5 3.16675 8.61929 3.16675 10C3.16675 11.3807 4.28604 12.5 5.66675 12.5C6.37538 12.5 7.01514 12.2052 7.47007 11.7315L13.25 14.9827C13.1957 15.1876 13.1667 15.4029 13.1667 15.625C13.1667 17.0057 14.286 18.125 15.6667 18.125C17.0475 18.125 18.1667 17.0057 18.1667 15.625C18.1667 14.2443 17.0475 13.125 15.6667 13.125C14.9581 13.125 14.3184 13.4198 13.8634 13.8935L8.08346 10.6423C8.1378 10.4374 8.16675 10.2221 8.16675 10C8.16675 9.77794 8.1378 9.56264 8.08346 9.35767L13.8634 6.10648ZM6.74677 9.37028C6.74975 9.37597 6.75283 9.38163 6.756 9.38727C6.7593 9.39314 6.76268 9.39893 6.76614 9.40465C6.86219 9.58166 6.91675 9.78446 6.91675 10C6.91675 10.2155 6.86219 10.4183 6.76614 10.5953C6.76268 10.6011 6.7593 10.6069 6.756 10.6127C6.75283 10.6184 6.74975 10.624 6.74677 10.6297C6.52998 11.0007 6.12747 11.25 5.66675 11.25C4.97639 11.25 4.41675 10.6904 4.41675 10C4.41675 9.30964 4.97639 8.75 5.66675 8.75C6.12747 8.75 6.52998 8.99926 6.74677 9.37028ZM14.5673 15.0297C14.5708 15.0239 14.5742 15.0181 14.5775 15.0123C14.5807 15.0066 14.5838 15.001 14.5867 14.9953C14.8035 14.6242 15.206 14.375 15.6667 14.375C16.3571 14.375 16.9167 14.9346 16.9167 15.625C16.9167 16.3154 16.3571 16.875 15.6667 16.875C14.9764 16.875 14.4167 16.3154 14.4167 15.625C14.4167 15.4095 14.4713 15.2067 14.5673 15.0297Z" fill="#E8B500"/>
</svg>
