<svg width="20" height="20" viewBox="0 0 20 20" fill="none" xmlns="http://www.w3.org/2000/svg">
<path fill-rule="evenodd" clip-rule="evenodd" d="M2.6419 2.11865C2.57504 2.04782 2.44892 1.93669 2.25853 1.89298C2.03444 1.84152 1.82636 1.90654 1.67734 2.02071C1.55061 2.1178 1.48056 2.23751 1.44342 2.31303C1.40283 2.39558 1.37523 2.48021 1.35539 2.55527C1.28023 2.83967 1.25138 3.24569 1.25051 3.69722C1.24871 4.62648 1.36723 5.95994 1.64044 7.42869C2.18013 10.33 3.36047 13.9613 5.59801 16.0053L5.59822 16.0055C7.24362 17.5073 9.33805 18.1772 11.2462 18.1036C13.0859 18.0326 14.8316 17.2603 15.7825 15.7735C16.516 15.9646 17.2767 16.121 18.0691 16.2429C18.4102 16.2954 18.7293 16.0613 18.7818 15.7202C18.8343 15.379 18.6003 15.0599 18.2591 15.0074C17.5985 14.9058 16.9616 14.7791 16.3451 14.6268C17.4009 11.7517 16.2185 8.30612 12.913 6.17124C11.3092 5.13522 9.66195 4.8599 8.16308 4.60938C7.91621 4.56811 7.67332 4.52752 7.43535 4.48431C5.74016 4.17652 4.16774 3.73419 2.642 2.11876L2.6419 2.11865ZM15.1356 14.287C16.0165 12.0091 15.165 9.11373 12.2348 7.22125L12.2347 7.22122C10.864 6.33577 9.49186 6.10345 7.99099 5.84932C7.73529 5.80603 7.47585 5.7621 7.21205 5.7142C5.66715 5.4337 4.05978 5.01792 2.5005 3.70403C2.49927 4.54136 2.60787 5.79435 2.86936 7.2001C3.39997 10.0526 4.5223 13.3294 6.44089 15.0823L6.44095 15.0823L6.44109 15.0824C7.83433 16.354 9.60504 16.916 11.1979 16.8545C12.5972 16.8005 13.7952 16.2735 14.512 15.399C11.449 14.3873 8.84884 12.7109 6.32933 10.3379C6.07805 10.1013 6.06621 9.7057 6.30287 9.45443C6.53954 9.20315 6.93509 9.19131 7.18636 9.42798C9.65001 11.7484 12.1611 13.3465 15.1356 14.287Z" fill="#03A500"/>
</svg>
