<svg width="80" height="46" viewBox="0 0 80 46" fill="none" xmlns="http://www.w3.org/2000/svg">
<rect y="0.333344" width="80" height="45.3333" rx="8" fill="#F1F8FF"/>
<path fill-rule="evenodd" clip-rule="evenodd" d="M33 15C32.4477 15 32 15.4477 32 16V30C32 30.4288 32.2699 30.7946 32.6491 30.9367L43.2929 20.2929C43.6834 19.9024 44.3166 19.9024 44.7071 20.2929L48 23.5858V16C48 15.4477 47.5523 15 47 15H33ZM50 25.999V16C50 14.3431 48.6569 13 47 13H33C31.3431 13 30 14.3431 30 16V30C30 31.6569 31.3431 33 33 33H47C48.6569 33 50 31.6569 50 30V26.001C50 26.0003 50 25.9997 50 25.999ZM48 26.4142L44 22.4142L35.4142 31H47C47.5523 31 48 30.5523 48 30V26.4142ZM36.5 19C36.2239 19 36 19.2239 36 19.5C36 19.7761 36.2239 20 36.5 20C36.7761 20 37 19.7761 37 19.5C37 19.2239 36.7761 19 36.5 19ZM34 19.5C34 18.1193 35.1193 17 36.5 17C37.8807 17 39 18.1193 39 19.5C39 20.8807 37.8807 22 36.5 22C35.1193 22 34 20.8807 34 19.5Z" fill="#1492EF"/>
</svg>
