<svg width="16" height="12" viewBox="0 0 16 12" fill="none" xmlns="http://www.w3.org/2000/svg">
<path fill-rule="evenodd" clip-rule="evenodd" d="M1.42717 6.00004C1.50003 6.12596 1.59663 6.28641 1.71629 6.4717C2.02364 6.94759 2.4788 7.58045 3.06971 8.21077C4.26371 9.48436 5.93305 10.6667 8.00006 10.6667C10.0671 10.6667 11.7364 9.48436 12.9304 8.21077C13.5213 7.58045 13.9765 6.94759 14.2838 6.4717C14.4035 6.28641 14.5001 6.12596 14.5729 6.00004C14.5001 5.87413 14.4035 5.71367 14.2838 5.52839C13.9765 5.0525 13.5213 4.41963 12.9304 3.78932C11.7364 2.51572 10.0671 1.33334 8.00006 1.33334C5.93305 1.33334 4.26371 2.51572 3.06971 3.78932C2.4788 4.41963 2.02364 5.0525 1.71629 5.52839C1.59663 5.71367 1.50003 5.87413 1.42717 6.00004ZM15.3334 6.00004C15.9297 5.7019 15.9296 5.70167 15.9295 5.70143L15.9284 5.69929L15.9261 5.69473L15.9186 5.67992C15.9122 5.66756 15.9032 5.65025 15.8916 5.62833C15.8684 5.58451 15.8348 5.52219 15.7908 5.44403C15.7029 5.2878 15.5735 5.06771 15.4039 4.80502C15.0654 4.28091 14.5622 3.58042 13.9031 2.87739C12.5971 1.4843 10.5997 0 8.00006 0C5.40037 0 3.40301 1.4843 2.09699 2.87739C1.4379 3.58042 0.934717 4.28091 0.596228 4.80502C0.42657 5.06771 0.297197 5.2878 0.209316 5.44403C0.16535 5.52219 0.131694 5.58451 0.108503 5.62833C0.0969052 5.65025 0.0879174 5.66756 0.0815592 5.67992L0.0739939 5.69473L0.0716931 5.69929L0.0709139 5.70084C0.0707914 5.70108 0.0703824 5.7019 0.666672 6.00004L0.0703824 5.7019C-0.0234608 5.88959 -0.0234608 6.1105 0.0703824 6.29819L0.666672 6.00004C0.0703824 6.29819 0.0702599 6.29794 0.0703824 6.29819L0.0716931 6.3008L0.0739939 6.30535L0.0815592 6.32016C0.0879174 6.33253 0.0969052 6.34984 0.108503 6.37175C0.131694 6.41558 0.16535 6.47789 0.209316 6.55606C0.297197 6.71229 0.42657 6.93237 0.596228 7.19507C0.934717 7.71918 1.4379 8.41966 2.09699 9.12269C3.40301 10.5158 5.40037 12.0001 8.00006 12.0001C10.5997 12.0001 12.5971 10.5158 13.9031 9.12269C14.5622 8.41966 15.0654 7.71918 15.4039 7.19507C15.5735 6.93237 15.7029 6.71229 15.7908 6.55606C15.8348 6.47789 15.8684 6.41558 15.8916 6.37175C15.9032 6.34984 15.9122 6.33253 15.9186 6.32016L15.9261 6.30535L15.9284 6.3008L15.9292 6.29925C15.9293 6.299 15.9297 6.29819 15.3334 6.00004ZM15.3334 6.00004L15.9297 6.29819C16.0236 6.1105 16.0233 5.88912 15.9295 5.70143L15.3334 6.00004ZM8.00006 4.6667C7.26367 4.6667 6.66672 5.26366 6.66672 6.00004C6.66672 6.73643 7.26367 7.33339 8.00006 7.33339C8.73644 7.33339 9.3334 6.73643 9.3334 6.00004C9.3334 5.26366 8.73644 4.6667 8.00006 4.6667ZM5.33337 6.00004C5.33337 4.52727 6.52729 3.33336 8.00006 3.33336C9.47283 3.33336 10.6667 4.52727 10.6667 6.00004C10.6667 7.47281 9.47283 8.66673 8.00006 8.66673C6.52729 8.66673 5.33337 7.47281 5.33337 6.00004Z" fill="#1492EF"/>
</svg>
