<svg width="10" height="12" viewBox="0 0 10 12" fill="none" xmlns="http://www.w3.org/2000/svg">
<path fill-rule="evenodd" clip-rule="evenodd" d="M5 0C5.36819 0 5.66667 0.298477 5.66667 0.666667V11.3333C5.66667 11.7015 5.36819 12 5 12C4.63181 12 4.33333 11.7015 4.33333 11.3333V0.666667C4.33333 0.298477 4.63181 0 5 0ZM9 4C9.36819 4 9.66667 4.29848 9.66667 4.66667V11.3333C9.66667 11.7015 9.36819 12 9 12C8.63181 12 8.33333 11.7015 8.33333 11.3333V4.66667C8.33333 4.29848 8.63181 4 9 4ZM1 6.66667C1.36819 6.66667 1.66667 6.96514 1.66667 7.33333V11.3333C1.66667 11.7015 1.36819 12 1 12C0.631811 12 0.333334 11.7015 0.333334 11.3333V7.33333C0.333334 6.96514 0.631811 6.66667 1 6.66667Z" fill="#1492EF"/>
</svg>
