<svg width="16" height="16" viewBox="0 0 16 16" fill="none" xmlns="http://www.w3.org/2000/svg">
<path d="M11.3333 14.5H4.66667C1.72667 14.5 0.833334 13.6067 0.833334 10.6667V5.33333C0.833334 2.39333 1.72667 1.5 4.66667 1.5H11.3333C14.2733 1.5 15.1667 2.39333 15.1667 5.33333V10.6667C15.1667 13.6067 14.2733 14.5 11.3333 14.5ZM4.66667 2.5C2.28 2.5 1.83333 2.95333 1.83333 5.33333V10.6667C1.83333 13.0467 2.28 13.5 4.66667 13.5H11.3333C13.72 13.5 14.1667 13.0467 14.1667 10.6667V5.33333C14.1667 2.95333 13.72 2.5 11.3333 2.5H4.66667Z" fill="#1492EF"/>
<path d="M12.6667 5.83333H9.33333C9.06 5.83333 8.83333 5.60666 8.83333 5.33333C8.83333 5.05999 9.06 4.83333 9.33333 4.83333H12.6667C12.94 4.83333 13.1667 5.05999 13.1667 5.33333C13.1667 5.60666 12.94 5.83333 12.6667 5.83333Z" fill="#1492EF"/>
<path d="M12.6667 8.5H10C9.72667 8.5 9.5 8.27333 9.5 8C9.5 7.72667 9.72667 7.5 10 7.5H12.6667C12.94 7.5 13.1667 7.72667 13.1667 8C13.1667 8.27333 12.94 8.5 12.6667 8.5Z" fill="#1492EF"/>
<path d="M12.6667 11.1667H11.3333C11.06 11.1667 10.8333 10.94 10.8333 10.6667C10.8333 10.3933 11.06 10.1667 11.3333 10.1667H12.6667C12.94 10.1667 13.1667 10.3933 13.1667 10.6667C13.1667 10.94 12.94 11.1667 12.6667 11.1667Z" fill="#1492EF"/>
<path d="M5.66667 8.02666C4.72667 8.02666 3.96 7.25999 3.96 6.31999C3.96 5.37999 4.72667 4.61333 5.66667 4.61333C6.60667 4.61333 7.37333 5.37999 7.37333 6.31999C7.37333 7.25999 6.60667 8.02666 5.66667 8.02666ZM5.66667 5.61333C5.28 5.61333 4.96 5.93333 4.96 6.31999C4.96 6.70666 5.28 7.02666 5.66667 7.02666C6.05333 7.02666 6.37333 6.70666 6.37333 6.31999C6.37333 5.93333 6.05333 5.61333 5.66667 5.61333Z" fill="#1492EF"/>
<path d="M8 11.3867C7.74667 11.3867 7.52667 11.1933 7.5 10.9333C7.42667 10.2133 6.84667 9.63334 6.12 9.56667C5.81333 9.54001 5.50667 9.54001 5.2 9.56667C4.47333 9.63334 3.89333 10.2067 3.82 10.9333C3.79333 11.2067 3.54667 11.4133 3.27333 11.38C3 11.3533 2.8 11.1067 2.82667 10.8333C2.94667 9.63334 3.9 8.68001 5.10667 8.57334C5.47333 8.54001 5.84667 8.54001 6.21333 8.57334C7.41333 8.68667 8.37333 9.64001 8.49333 10.8333C8.52 11.1067 8.32 11.3533 8.04667 11.38C8.03333 11.3867 8.01333 11.3867 8 11.3867Z" fill="#1492EF"/>
</svg>
