<svg width="49" height="48" viewBox="0 0 49 48" fill="none" xmlns="http://www.w3.org/2000/svg">
<rect x="0.666992" width="48" height="48" rx="12" fill="#F1F8FF"/>
<path fill-rule="evenodd" clip-rule="evenodd" d="M17.667 16C17.1147 16 16.667 16.4477 16.667 17V31C16.667 31.4288 16.9369 31.7946 17.3161 31.9367L27.9599 21.2929C28.3504 20.9024 28.9836 20.9024 29.3741 21.2929L32.667 24.5858V17C32.667 16.4477 32.2193 16 31.667 16H17.667ZM34.667 26.999V17C34.667 15.3431 33.3238 14 31.667 14H17.667C16.0101 14 14.667 15.3431 14.667 17V31C14.667 32.6569 16.0101 34 17.667 34H31.667C33.3238 34 34.667 32.6569 34.667 31V27.001C34.667 27.0003 34.667 26.9997 34.667 26.999ZM32.667 27.4142L28.667 23.4142L20.0812 32H31.667C32.2193 32 32.667 31.5523 32.667 31V27.4142ZM21.167 20C20.8908 20 20.667 20.2239 20.667 20.5C20.667 20.7761 20.8908 21 21.167 21C21.4431 21 21.667 20.7761 21.667 20.5C21.667 20.2239 21.4431 20 21.167 20ZM18.667 20.5C18.667 19.1193 19.7863 18 21.167 18C22.5477 18 23.667 19.1193 23.667 20.5C23.667 21.8807 22.5477 23 21.167 23C19.7863 23 18.667 21.8807 18.667 20.5Z" fill="#1492EF"/>
</svg>
