<svg width="76" height="68" viewBox="0 0 76 68" fill="none" xmlns="http://www.w3.org/2000/svg">
<g filter="url(#filter0_d_1462_13611)">
<rect x="12" y="8" width="48" height="48" rx="12" fill="#FFFAE5" shape-rendering="crispEdges"/>
<path fill-rule="evenodd" clip-rule="evenodd" d="M41 25.125C40.3096 25.125 39.75 25.6846 39.75 26.375C39.75 26.5905 39.8046 26.7933 39.9006 26.9703C39.9041 26.9761 39.9074 26.9819 39.9108 26.9877C39.9139 26.9934 39.917 26.999 39.92 27.0047C40.1368 27.3757 40.5393 27.625 41 27.625C41.6904 27.625 42.25 27.0654 42.25 26.375C42.25 25.6846 41.6904 25.125 41 25.125ZM39.1967 28.1065C39.6516 28.5802 40.2914 28.875 41 28.875C42.3807 28.875 43.5 27.7557 43.5 26.375C43.5 24.9943 42.3807 23.875 41 23.875C39.6193 23.875 38.5 24.9943 38.5 26.375C38.5 26.5971 38.529 26.8124 38.5833 27.0173L32.8033 30.2685C32.3484 29.7948 31.7086 29.5 31 29.5C29.6193 29.5 28.5 30.6193 28.5 32C28.5 33.3807 29.6193 34.5 31 34.5C31.7086 34.5 32.3484 34.2052 32.8033 33.7315L38.5833 36.9827C38.529 37.1876 38.5 37.4029 38.5 37.625C38.5 39.0057 39.6193 40.125 41 40.125C42.3807 40.125 43.5 39.0057 43.5 37.625C43.5 36.2443 42.3807 35.125 41 35.125C40.2914 35.125 39.6516 35.4198 39.1967 35.8935L33.4167 32.6423C33.471 32.4374 33.5 32.2221 33.5 32C33.5 31.7779 33.471 31.5626 33.4167 31.3577L39.1967 28.1065ZM32.08 31.3703C32.083 31.376 32.0861 31.3816 32.0892 31.3873C32.0925 31.3931 32.0959 31.3989 32.0994 31.4047C32.1954 31.5817 32.25 31.7845 32.25 32C32.25 32.2155 32.1954 32.4183 32.0994 32.5953C32.0959 32.6011 32.0925 32.6069 32.0892 32.6127C32.0861 32.6184 32.083 32.624 32.08 32.6297C31.8632 33.0007 31.4607 33.25 31 33.25C30.3096 33.25 29.75 32.6904 29.75 32C29.75 31.3096 30.3096 30.75 31 30.75C31.4607 30.75 31.8632 30.9993 32.08 31.3703ZM39.9006 37.0297C39.9041 37.0239 39.9074 37.0181 39.9108 37.0123C39.9139 37.0066 39.917 37.001 39.92 36.9953C40.1368 36.6242 40.5393 36.375 41 36.375C41.6904 36.375 42.25 36.9346 42.25 37.625C42.25 38.3154 41.6904 38.875 41 38.875C40.3096 38.875 39.75 38.3154 39.75 37.625C39.75 37.4095 39.8046 37.2067 39.9006 37.0297Z" fill="#E8B500"/>
</g>
<defs>
<filter id="filter0_d_1462_13611" x="-4" y="0" width="80" height="80" filterUnits="userSpaceOnUse" color-interpolation-filters="sRGB">
<feFlood flood-opacity="0" result="BackgroundImageFix"/>
<feColorMatrix in="SourceAlpha" type="matrix" values="0 0 0 0 0 0 0 0 0 0 0 0 0 0 0 0 0 0 127 0" result="hardAlpha"/>
<feOffset dy="8"/>
<feGaussianBlur stdDeviation="8"/>
<feComposite in2="hardAlpha" operator="out"/>
<feColorMatrix type="matrix" values="0 0 0 0 0.201367 0 0 0 0 0.374404 0 0 0 0 1 0 0 0 0.1 0"/>
<feBlend mode="normal" in2="BackgroundImageFix" result="effect1_dropShadow_1462_13611"/>
<feBlend mode="normal" in="SourceGraphic" in2="effect1_dropShadow_1462_13611" result="shape"/>
</filter>
</defs>
</svg>
