<svg width="16" height="16" viewBox="0 0 16 16" fill="none" xmlns="http://www.w3.org/2000/svg">
<path fill-rule="evenodd" clip-rule="evenodd" d="M5.80476 3.52859C6.06511 3.78894 6.06511 4.21105 5.80476 4.4714L2.27616 8L5.80476 11.5286C6.06511 11.7889 6.06511 12.2111 5.80476 12.4714C5.54441 12.7317 5.1223 12.7317 4.86195 12.4714L0.861949 8.4714C0.6016 8.21105 0.6016 7.78894 0.861949 7.52859L4.86195 3.52859C5.1223 3.26824 5.54441 3.26824 5.80476 3.52859ZM10.1953 3.52859C10.4556 3.26824 10.8777 3.26824 11.1381 3.52859L15.1381 7.52859C15.3984 7.78894 15.3984 8.21105 15.1381 8.4714L11.1381 12.4714C10.8777 12.7317 10.4556 12.7317 10.1953 12.4714C9.93493 12.2111 9.93493 11.7889 10.1953 11.5286L13.7239 8L10.1953 4.4714C9.93493 4.21105 9.93493 3.78894 10.1953 3.52859Z" fill="#1492EF"/>
</svg>
