<svg width="28" height="28" viewBox="0 0 28 28" fill="none" xmlns="http://www.w3.org/2000/svg">
<path d="M19.6326 8.239C20.9999 9.47917 20.9999 11.4742 20.9999 15.463V17.2037C20.9999 21.1937 20.9999 23.1887 19.6326 24.4277C18.2653 25.6667 16.0661 25.6667 11.6666 25.6667C7.26709 25.6667 5.06675 25.6667 3.70059 24.4277C2.33442 23.1887 2.33325 21.1937 2.33325 17.2037V15.463C2.33325 11.473 2.33325 9.478 3.70059 8.239C5.06792 7 7.26709 7 11.6666 7C16.0661 7 18.2664 7 19.6326 8.239Z" stroke="#E8B500" stroke-width="1.5" stroke-linecap="round" stroke-linejoin="round"/>
<path d="M7.0769 6.99999C7.20174 5.38066 7.52607 4.33416 8.36607 3.57233C9.73224 2.33333 11.9326 2.33333 16.3321 2.33333C20.7316 2.33333 22.9319 2.33333 24.2992 3.57233C25.6666 4.81133 25.6654 6.80749 25.6654 10.7963V12.537C25.6654 16.527 25.6654 18.522 24.2992 19.761C23.5362 20.4517 22.5154 20.7573 20.9987 20.8927" stroke="#E8B500" stroke-width="1.5" stroke-linecap="round" stroke-linejoin="round"/>
<path d="M12.4728 12.341L13.2942 13.9977C13.3638 14.1218 13.4588 14.2299 13.573 14.3149C13.6872 14.3999 13.8179 14.46 13.9568 14.4912L15.4455 14.7397C16.3975 14.8995 16.6215 15.596 15.9355 16.2832L14.7782 17.4498C14.6767 17.5647 14.6023 17.7008 14.5603 17.8482C14.5183 17.9955 14.5098 18.1504 14.5355 18.3015L14.8668 19.7458C15.1282 20.8892 14.5262 21.3313 13.5228 20.734L12.1275 19.901C11.9847 19.8269 11.8263 19.7883 11.6655 19.7883C11.5047 19.7883 11.3462 19.8269 11.2035 19.901L9.80816 20.734C8.80949 21.3313 8.20282 20.8845 8.46416 19.7458L8.79549 18.3015C8.82116 18.1504 8.81269 17.9955 8.7707 17.8482C8.72871 17.7008 8.65427 17.5647 8.55282 17.4498L7.39666 16.2832C6.71532 15.596 6.93466 14.8995 7.88666 14.7397L9.37416 14.4912C9.5123 14.4592 9.64223 14.3987 9.75556 14.3135C9.86889 14.2283 9.96311 14.1203 10.0322 13.9965L10.8535 12.3398C11.3015 11.4415 12.0295 11.4415 12.4728 12.3398" stroke="#E8B500" stroke-width="1.5" stroke-linecap="round" stroke-linejoin="round"/>
</svg>
