<svg width="236" height="38" viewBox="0 0 236 38" fill="none" xmlns="http://www.w3.org/2000/svg">
<g clip-path="url(#clip0_1134_19953)">
<path fill-rule="evenodd" clip-rule="evenodd" d="M62.442 13.5156C61.2602 12.989 59.9398 12.8586 58.6777 13.1437C57.4157 13.4288 56.2796 14.1143 55.439 15.0979C54.5983 16.0814 54.0982 17.3103 54.013 18.6014C53.9279 19.8924 54.2624 21.1764 54.9666 22.2619C55.6708 23.3473 56.707 24.176 57.9207 24.6244C59.1344 25.0728 60.4605 25.1168 61.7012 24.75C62.942 24.3831 64.0309 23.625 64.8056 22.5887C65.5803 21.5524 65.9993 20.2935 66 18.9996V18.3867C66 18.0185 66.2985 17.72 66.6667 17.72C67.0349 17.72 67.3334 18.0185 67.3334 18.3867V19C67.3325 20.5814 66.8204 22.1205 65.8735 23.387C64.9267 24.6536 63.5958 25.5802 62.0793 26.0286C60.5628 26.4769 58.942 26.4231 57.4586 25.8751C55.9753 25.327 54.7088 24.3142 53.8481 22.9876C52.9873 21.6609 52.5785 20.0916 52.6826 18.5137C52.7866 16.9357 53.398 15.4337 54.4254 14.2316C55.4529 13.0294 56.8414 12.1917 58.3839 11.8431C59.9264 11.4946 61.5402 11.6541 62.9847 12.2977C63.321 12.4476 63.4722 12.8417 63.3223 13.178C63.1725 13.5143 62.7783 13.6655 62.442 13.5156ZM67.1379 13.195C67.3983 13.4552 67.3986 13.8773 67.1383 14.1378L60.4717 20.8112C60.3467 20.9363 60.1771 21.0066 60.0002 21.0067C59.8233 21.0067 59.6537 20.9365 59.5286 20.8114L57.5286 18.8114C57.2683 18.551 57.2683 18.1289 57.5286 17.8686C57.789 17.6082 58.2111 17.6082 58.4714 17.8686L59.9998 19.3969L66.1951 13.1955C66.4553 12.935 66.8774 12.9348 67.1379 13.195Z" fill="#12B76A"/>
</g>
<path d="M80.575 24.168C79.791 24.168 79.0396 24.0653 78.321 23.86C77.6023 23.6453 77.0236 23.37 76.585 23.034L77.355 21.326C77.775 21.6247 78.2696 21.872 78.839 22.068C79.4176 22.2547 80.001 22.348 80.589 22.348C81.037 22.348 81.3963 22.306 81.667 22.222C81.947 22.1287 82.1523 22.0027 82.283 21.844C82.4136 21.6853 82.479 21.5033 82.479 21.298C82.479 21.0367 82.3763 20.8313 82.171 20.682C81.9656 20.5233 81.695 20.3973 81.359 20.304C81.023 20.2013 80.6496 20.108 80.239 20.024C79.8376 19.9307 79.4316 19.8187 79.021 19.688C78.6196 19.5573 78.251 19.3893 77.915 19.184C77.579 18.9787 77.3036 18.708 77.089 18.372C76.8836 18.036 76.781 17.6067 76.781 17.084C76.781 16.524 76.9303 16.0153 77.229 15.558C77.537 15.0913 77.9943 14.7227 78.601 14.452C79.217 14.172 79.987 14.032 80.911 14.032C81.527 14.032 82.1336 14.1067 82.731 14.256C83.3283 14.396 83.8556 14.6107 84.313 14.9L83.613 16.622C83.1556 16.3607 82.6983 16.1693 82.241 16.048C81.7836 15.9173 81.3356 15.852 80.897 15.852C80.4583 15.852 80.099 15.9033 79.819 16.006C79.539 16.1087 79.3383 16.244 79.217 16.412C79.0956 16.5707 79.035 16.7573 79.035 16.972C79.035 17.224 79.1376 17.4293 79.343 17.588C79.5483 17.7373 79.819 17.8587 80.155 17.952C80.491 18.0453 80.8596 18.1387 81.261 18.232C81.6716 18.3253 82.0776 18.4327 82.479 18.554C82.8896 18.6753 83.263 18.8387 83.599 19.044C83.935 19.2493 84.2056 19.52 84.411 19.856C84.6256 20.192 84.733 20.6167 84.733 21.13C84.733 21.6807 84.579 22.1847 84.271 22.642C83.963 23.0993 83.501 23.468 82.885 23.748C82.2783 24.028 81.5083 24.168 80.575 24.168ZM91.4367 24.168C90.046 24.168 88.9587 23.7807 88.1747 23.006C87.3907 22.2313 86.9987 21.1253 86.9987 19.688V14.2H89.2667V19.604C89.2667 20.5373 89.458 21.2093 89.8407 21.62C90.2234 22.0307 90.76 22.236 91.4507 22.236C92.1414 22.236 92.678 22.0307 93.0607 21.62C93.4434 21.2093 93.6347 20.5373 93.6347 19.604V14.2H95.8747V19.688C95.8747 21.1253 95.4827 22.2313 94.6987 23.006C93.9147 23.7807 92.8274 24.168 91.4367 24.168ZM98.9159 24V14.2H103.704C104.936 14.2 105.86 14.4333 106.476 14.9C107.101 15.3667 107.414 15.9827 107.414 16.748C107.414 17.2613 107.288 17.7093 107.036 18.092C106.784 18.4653 106.439 18.7547 106 18.96C105.561 19.1653 105.057 19.268 104.488 19.268L104.754 18.694C105.37 18.694 105.916 18.7967 106.392 19.002C106.868 19.198 107.237 19.492 107.498 19.884C107.769 20.276 107.904 20.7567 107.904 21.326C107.904 22.166 107.573 22.824 106.91 23.3C106.247 23.7667 105.272 24 103.984 24H98.9159ZM101.17 22.292H103.816C104.404 22.292 104.847 22.1987 105.146 22.012C105.454 21.816 105.608 21.508 105.608 21.088C105.608 20.6773 105.454 20.374 105.146 20.178C104.847 19.9727 104.404 19.87 103.816 19.87H101.002V18.218H103.424C103.975 18.218 104.395 18.1247 104.684 17.938C104.983 17.742 105.132 17.448 105.132 17.056C105.132 16.6733 104.983 16.3887 104.684 16.202C104.395 16.006 103.975 15.908 103.424 15.908H101.17V22.292ZM113.641 24.168C112.857 24.168 112.106 24.0653 111.387 23.86C110.668 23.6453 110.09 23.37 109.651 23.034L110.421 21.326C110.841 21.6247 111.336 21.872 111.905 22.068C112.484 22.2547 113.067 22.348 113.655 22.348C114.103 22.348 114.462 22.306 114.733 22.222C115.013 22.1287 115.218 22.0027 115.349 21.844C115.48 21.6853 115.545 21.5033 115.545 21.298C115.545 21.0367 115.442 20.8313 115.237 20.682C115.032 20.5233 114.761 20.3973 114.425 20.304C114.089 20.2013 113.716 20.108 113.305 20.024C112.904 19.9307 112.498 19.8187 112.087 19.688C111.686 19.5573 111.317 19.3893 110.981 19.184C110.645 18.9787 110.37 18.708 110.155 18.372C109.95 18.036 109.847 17.6067 109.847 17.084C109.847 16.524 109.996 16.0153 110.295 15.558C110.603 15.0913 111.06 14.7227 111.667 14.452C112.283 14.172 113.053 14.032 113.977 14.032C114.593 14.032 115.2 14.1067 115.797 14.256C116.394 14.396 116.922 14.6107 117.379 14.9L116.679 16.622C116.222 16.3607 115.764 16.1693 115.307 16.048C114.85 15.9173 114.402 15.852 113.963 15.852C113.524 15.852 113.165 15.9033 112.885 16.006C112.605 16.1087 112.404 16.244 112.283 16.412C112.162 16.5707 112.101 16.7573 112.101 16.972C112.101 17.224 112.204 17.4293 112.409 17.588C112.614 17.7373 112.885 17.8587 113.221 17.952C113.557 18.0453 113.926 18.1387 114.327 18.232C114.738 18.3253 115.144 18.4327 115.545 18.554C115.956 18.6753 116.329 18.8387 116.665 19.044C117.001 19.2493 117.272 19.52 117.477 19.856C117.692 20.192 117.799 20.6167 117.799 21.13C117.799 21.6807 117.645 22.1847 117.337 22.642C117.029 23.0993 116.567 23.468 115.951 23.748C115.344 24.028 114.574 24.168 113.641 24.168ZM124.839 24.168C124.083 24.168 123.378 24.0467 122.725 23.804C122.081 23.552 121.521 23.1973 121.045 22.74C120.569 22.2827 120.195 21.746 119.925 21.13C119.663 20.514 119.533 19.8373 119.533 19.1C119.533 18.3627 119.663 17.686 119.925 17.07C120.195 16.454 120.569 15.9173 121.045 15.46C121.53 15.0027 122.095 14.6527 122.739 14.41C123.383 14.158 124.087 14.032 124.853 14.032C125.702 14.032 126.467 14.1813 127.149 14.48C127.839 14.7693 128.418 15.1987 128.885 15.768L127.429 17.112C127.093 16.7293 126.719 16.4447 126.309 16.258C125.898 16.062 125.45 15.964 124.965 15.964C124.507 15.964 124.087 16.0387 123.705 16.188C123.322 16.3373 122.991 16.552 122.711 16.832C122.431 17.112 122.211 17.4433 122.053 17.826C121.903 18.2087 121.829 18.6333 121.829 19.1C121.829 19.5667 121.903 19.9913 122.053 20.374C122.211 20.7567 122.431 21.088 122.711 21.368C122.991 21.648 123.322 21.8627 123.705 22.012C124.087 22.1613 124.507 22.236 124.965 22.236C125.45 22.236 125.898 22.1427 126.309 21.956C126.719 21.76 127.093 21.466 127.429 21.074L128.885 22.418C128.418 22.9873 127.839 23.4213 127.149 23.72C126.467 24.0187 125.697 24.168 124.839 24.168ZM131.216 24V14.2H135.458C136.336 14.2 137.092 14.3447 137.726 14.634C138.361 14.914 138.851 15.32 139.196 15.852C139.542 16.384 139.714 17.0187 139.714 17.756C139.714 18.484 139.542 19.114 139.196 19.646C138.851 20.1687 138.361 20.57 137.726 20.85C137.092 21.13 136.336 21.27 135.458 21.27H132.476L133.484 20.276V24H131.216ZM137.446 24L134.996 20.444H137.418L139.896 24H137.446ZM133.484 20.528L132.476 19.464H135.332C136.032 19.464 136.555 19.3147 136.9 19.016C137.246 18.708 137.418 18.288 137.418 17.756C137.418 17.2147 137.246 16.7947 136.9 16.496C136.555 16.1973 136.032 16.048 135.332 16.048H132.476L133.484 14.97V20.528ZM142.311 24V14.2H144.579V24H142.311ZM147.705 24V14.2H152.493C153.725 14.2 154.649 14.4333 155.265 14.9C155.89 15.3667 156.203 15.9827 156.203 16.748C156.203 17.2613 156.077 17.7093 155.825 18.092C155.573 18.4653 155.228 18.7547 154.789 18.96C154.35 19.1653 153.846 19.268 153.277 19.268L153.543 18.694C154.159 18.694 154.705 18.7967 155.181 19.002C155.657 19.198 156.026 19.492 156.287 19.884C156.558 20.276 156.693 20.7567 156.693 21.326C156.693 22.166 156.362 22.824 155.699 23.3C155.036 23.7667 154.061 24 152.773 24H147.705ZM149.959 22.292H152.605C153.193 22.292 153.636 22.1987 153.935 22.012C154.243 21.816 154.397 21.508 154.397 21.088C154.397 20.6773 154.243 20.374 153.935 20.178C153.636 19.9727 153.193 19.87 152.605 19.87H149.791V18.218H152.213C152.764 18.218 153.184 18.1247 153.473 17.938C153.772 17.742 153.921 17.448 153.921 17.056C153.921 16.6733 153.772 16.3887 153.473 16.202C153.184 16.006 152.764 15.908 152.213 15.908H149.959V22.292ZM161.296 18.148H166.014V19.912H161.296V18.148ZM161.464 22.18H166.798V24H159.21V14.2H166.616V16.02H161.464V22.18ZM169.403 24V14.2H173.855C174.919 14.2 175.857 14.4053 176.669 14.816C177.481 15.2173 178.115 15.782 178.573 16.51C179.03 17.238 179.259 18.1013 179.259 19.1C179.259 20.0893 179.03 20.9527 178.573 21.69C178.115 22.418 177.481 22.9873 176.669 23.398C175.857 23.7993 174.919 24 173.855 24H169.403ZM171.671 22.138H173.743C174.396 22.138 174.961 22.0167 175.437 21.774C175.922 21.522 176.295 21.1673 176.557 20.71C176.827 20.2527 176.963 19.716 176.963 19.1C176.963 18.4747 176.827 17.938 176.557 17.49C176.295 17.0327 175.922 16.6827 175.437 16.44C174.961 16.188 174.396 16.062 173.743 16.062H171.671V22.138Z" fill="#12B76A"/>
<defs>
<clipPath id="clip0_1134_19953">
<rect width="16" height="16" fill="white" transform="translate(52 11)"/>
</clipPath>
</defs>
</svg>
