<svg width="33" height="32" viewBox="0 0 33 32" fill="none" xmlns="http://www.w3.org/2000/svg">
<rect x="0.5" width="32" height="32" rx="16" fill="#1492EF" fill-opacity="0.1"/>
<path fill-rule="evenodd" clip-rule="evenodd" d="M16.0288 9.52876C16.2891 9.26841 16.7112 9.26841 16.9716 9.52876L20.3049 12.8621C20.5653 13.1224 20.5653 13.5446 20.3049 13.8049C20.0446 14.0653 19.6224 14.0653 19.3621 13.8049L17.1668 11.6096V18.0002C17.1668 18.3684 16.8684 18.6668 16.5002 18.6668C16.132 18.6668 15.8335 18.3684 15.8335 18.0002V11.6096L13.6382 13.8049C13.3779 14.0653 12.9558 14.0653 12.6954 13.8049C12.4351 13.5446 12.4351 13.1224 12.6954 12.8621L16.0288 9.52876ZM10.5002 17.3335C10.8684 17.3335 11.1668 17.632 11.1668 18.0002V20.6668C11.1668 20.8436 11.2371 21.0132 11.3621 21.1382C11.4871 21.2633 11.6567 21.3335 11.8335 21.3335H21.1668C21.3436 21.3335 21.5132 21.2633 21.6382 21.1382C21.7633 21.0132 21.8335 20.8436 21.8335 20.6668V18.0002C21.8335 17.632 22.132 17.3335 22.5002 17.3335C22.8684 17.3335 23.1668 17.632 23.1668 18.0002V20.6668C23.1668 21.1973 22.9561 21.706 22.581 22.081C22.206 22.4561 21.6973 22.6668 21.1668 22.6668H11.8335C11.3031 22.6668 10.7944 22.4561 10.4193 22.081C10.0442 21.706 9.8335 21.1973 9.8335 20.6668V18.0002C9.8335 17.632 10.132 17.3335 10.5002 17.3335Z" fill="#1492EF"/>
</svg>
