<svg width="15" height="15" viewBox="0 0 15 15" fill="none" xmlns="http://www.w3.org/2000/svg">
<path fill-rule="evenodd" clip-rule="evenodd" d="M10.0385 2.01866C9.71656 1.98228 9.38917 1.99282 9.06674 2.05157C8.40012 2.17303 7.78635 2.49476 7.30722 2.97389C6.82809 3.45302 6.50636 4.06679 6.3849 4.73341C6.26344 5.40003 6.34802 6.08783 6.62737 6.70516C6.74177 6.95797 6.68762 7.2552 6.4914 7.45141L1.88474 12.0581C1.74454 12.1983 1.66579 12.3884 1.66579 12.5867C1.66579 12.7849 1.74455 12.9751 1.88474 13.1153C2.02493 13.2555 2.21507 13.3342 2.41333 13.3342C2.61159 13.3342 2.80174 13.2555 2.94193 13.1153L7.5486 8.5086C7.74481 8.31239 8.04204 8.25823 8.29485 8.37263C8.91218 8.65199 9.59998 8.73657 10.2666 8.61511C10.9332 8.49365 11.547 8.17192 12.0261 7.69279C12.5052 7.21366 12.827 6.59989 12.9484 5.93327C13.0072 5.61084 13.0177 5.28345 12.9813 4.96147L11.2667 6.67613C11.0175 6.92043 10.6823 7.05725 10.3333 7.05725C9.98433 7.05725 9.64924 6.92041 9.4 6.6761L9.39524 6.67144L8.32388 5.60003C8.07958 5.35079 7.94276 5.01568 7.94276 4.66667C7.94276 4.31767 8.0796 3.98258 8.3239 3.73334L8.32857 3.72858L10.0385 2.01866ZM8.82773 0.739833C9.761 0.56979 10.7239 0.688206 11.5882 1.0793C11.7876 1.16953 11.93 1.35187 11.9692 1.56717C12.0084 1.78248 11.9395 2.00333 11.7847 2.15808L9.27614 4.66667L10.3333 5.72387L12.8419 3.21527C12.9967 3.06052 13.2175 2.99158 13.4328 3.03081C13.6481 3.07003 13.8305 3.21244 13.9207 3.41183C14.3118 4.27608 14.4302 5.23901 14.2602 6.17227C14.0901 7.10554 13.6397 7.96482 12.9689 8.6356C12.2981 9.30638 11.4389 9.75681 10.5056 9.92685C9.7273 10.0687 8.92837 10.0098 8.18324 9.75957L3.88474 14.0581C3.4945 14.4483 2.96522 14.6676 2.41333 14.6676C1.86145 14.6676 1.33217 14.4483 0.941928 14.0581C0.551688 13.6678 0.332453 13.1386 0.332453 12.5867C0.332453 12.0348 0.551688 11.5055 0.941929 11.1153L5.24043 6.81676C4.99016 6.07164 4.93135 5.27271 5.07316 4.49441C5.2432 3.56115 5.69363 2.70187 6.36441 2.03108C7.03519 1.3603 7.89447 0.909876 8.82773 0.739833Z" fill="#1492EF"/>
</svg>
